<?xml version="1.0" encoding="UTF-8"?>
<svg version="1.1" xmlns="http://www.w3.org/2000/svg" width="512" height="512">
<path d="M0 0 C0.68449219 0.60585937 1.36898437 1.21171875 2.07421875 1.8359375 C2.72777344 2.35929687 3.38132812 2.88265625 4.0546875 3.421875 C9.43042101 7.75455574 13.90366933 12.19110171 15.13671875 19.2109375 C15.43241156 23.57979882 14.19939304 26.49030606 11.984375 30.20703125 C8.35630297 40.68639809 13.34982157 52.34509751 16.22900391 62.52636719 C22.68602994 85.53348791 22.68602994 85.53348791 17.69921875 94.8984375 C16.85185504 96.22894718 15.97936687 97.54404427 15.07421875 98.8359375 C12.38100349 102.8757604 12.44590484 106.17245205 13.07421875 110.8359375 C16.14974656 122.34202977 23.72958385 132.71861896 29.84667969 142.77978516 C32.18463673 146.69590971 32.39317324 149.13265693 31.8359375 153.6484375 C30.88060682 156.39195124 30.02154296 156.9372141 27.44921875 158.2109375 C26.00409193 158.78691264 24.54502719 159.32912251 23.07421875 159.8359375 C17.03969213 162.02836259 17.03969213 162.02836259 13.07421875 166.8359375 C13.16804604 170.26785104 13.51472571 173.51542559 14.01171875 176.90429688 C14.23828125 178.98828125 14.23828125 178.98828125 14.07421875 182.8359375 C11.59765625 185.83984375 11.59765625 185.83984375 9.07421875 187.8359375 C10.06421875 188.795 10.06421875 188.795 11.07421875 189.7734375 C14.20644896 194.56966502 13.58211849 199.16297609 12.5390625 204.65234375 C12.00762928 208.29199144 12.16002614 211.66399372 12.32421875 215.3359375 C12.36457156 223.55983919 12.36457156 223.55983919 10.01171875 226.6484375 C2.09978375 232.54030399 -7.44557785 231.20487398 -16.69335938 229.8671875 C-17.57443359 229.733125 -18.45550781 229.5990625 -19.36328125 229.4609375 C-20.24048828 229.33460938 -21.11769531 229.20828125 -22.02148438 229.078125 C-27.26740439 228.30496067 -32.44300266 227.35891308 -37.62133789 226.21630859 C-40.13710468 225.80105649 -42.38158977 225.63100419 -44.92578125 225.8359375 C-55.65840372 236.26191361 -51.52197934 255.31807836 -51.92578125 267.8359375 C-88.88578125 267.8359375 -125.84578125 267.8359375 -163.92578125 267.8359375 C-164.25578125 252.9859375 -164.58578125 238.1359375 -164.92578125 222.8359375 C-167.78409625 191.3944725 -174.94035829 172.34628488 -189.71362305 145.54614258 C-205.79225 116.33263991 -216.05658179 84.96918096 -206.52001953 51.79785156 C-202.04622215 37.02733563 -195.13898667 23.43299327 -184.92578125 11.8359375 C-184.2503125 11.01738281 -183.57484375 10.19882813 -182.87890625 9.35546875 C-162.67222117 -14.42794708 -132.76028328 -24.09853099 -102.55688477 -26.9699707 C-67.80485325 -29.53356586 -27.28397349 -23.43920303 0 0 Z " fill="#FECDBF" transform="translate(346.92578125,139.1640625)"/>
<path d="M0 0 C17.02749614 13.21574443 29.49526158 30.5206218 33 52.25 C35.12017318 75.81192461 30.19970623 96.51151163 15.375 115.375 C2.92280003 130.05681685 -15.37158867 140.35427039 -34.625 142.375 C-48.7641992 143.42282021 -61.50936978 142.96019534 -74.625 137.375 C-76.25308594 136.68857422 -76.25308594 136.68857422 -77.9140625 135.98828125 C-84.97590607 132.72553074 -90.84480738 128.55308922 -96.625 123.375 C-97.8934375 122.24771484 -97.8934375 122.24771484 -99.1875 121.09765625 C-108.90212653 111.96057611 -115.20789978 100.89011728 -119.625 88.375 C-119.9446875 87.51390625 -120.264375 86.6528125 -120.59375 85.765625 C-126.61349288 66.48015243 -122.80682803 44.90394442 -113.625 27.375 C-113.19574219 26.54613281 -112.76648438 25.71726563 -112.32421875 24.86328125 C-102.4432787 7.13325643 -85.70307207 -5.04179377 -66.5234375 -10.9453125 C-43.84064543 -17.28136184 -19.51092458 -13.45388504 0 0 Z " fill="#CEE7FE" transform="translate(283.625,149.625)"/>
<path d="M0 0 C0.68449219 0.60585937 1.36898437 1.21171875 2.07421875 1.8359375 C2.72777344 2.35929687 3.38132812 2.88265625 4.0546875 3.421875 C9.43042101 7.75455574 13.90366933 12.19110171 15.13671875 19.2109375 C15.43241156 23.57979882 14.19939304 26.49030606 11.984375 30.20703125 C8.35630297 40.68639809 13.34982157 52.34509751 16.22900391 62.52636719 C22.68602994 85.53348791 22.68602994 85.53348791 17.69921875 94.8984375 C16.85185504 96.22894718 15.97936687 97.54404427 15.07421875 98.8359375 C12.38100349 102.8757604 12.44590484 106.17245205 13.07421875 110.8359375 C16.14974656 122.34202977 23.72958385 132.71861896 29.84667969 142.77978516 C32.18463673 146.69590971 32.39317324 149.13265693 31.8359375 153.6484375 C30.88060682 156.39195124 30.02154296 156.9372141 27.44921875 158.2109375 C26.00409193 158.78691264 24.54502719 159.32912251 23.07421875 159.8359375 C17.03969213 162.02836259 17.03969213 162.02836259 13.07421875 166.8359375 C13.16804604 170.26785104 13.51472571 173.51542559 14.01171875 176.90429688 C14.23828125 178.98828125 14.23828125 178.98828125 14.07421875 182.8359375 C11.59765625 185.83984375 11.59765625 185.83984375 9.07421875 187.8359375 C10.06421875 188.795 10.06421875 188.795 11.07421875 189.7734375 C14.20644896 194.56966502 13.58211849 199.16297609 12.5390625 204.65234375 C12.00762928 208.29199144 12.16002614 211.66399372 12.32421875 215.3359375 C12.36457156 223.55983919 12.36457156 223.55983919 10.01171875 226.6484375 C4.0791633 231.06629794 -1.82223916 231.12587799 -8.92578125 230.8359375 C-8.92578125 230.1759375 -8.92578125 229.5159375 -8.92578125 228.8359375 C-8.14203125 228.3821875 -7.35828125 227.9284375 -6.55078125 227.4609375 C-3.68017089 225.68389299 -3.12214252 224.89468628 -1.92578125 221.8359375 C-1.66946242 219.76408723 -1.66946242 219.76408723 -1.765625 217.60546875 C-1.77658203 216.80173828 -1.78753906 215.99800781 -1.79882812 215.16992188 C-1.83073242 213.92178711 -1.83073242 213.92178711 -1.86328125 212.6484375 C-1.96977218 207.67491683 -1.9904913 202.90895578 -1.27734375 197.9765625 C-0.92612906 195.17330905 -0.82204921 194.08692836 -1.921875 191.42578125 C-2.39753906 190.88050781 -2.87320313 190.33523438 -3.36328125 189.7734375 C-4.20890625 188.8040625 -5.05453125 187.8346875 -5.92578125 186.8359375 C-4.93578125 186.3203125 -3.94578125 185.8046875 -2.92578125 185.2734375 C0.46933125 183.09178372 0.46933125 183.09178372 0.51171875 179.2109375 C0.2799719 175.97367662 0.2799719 175.97367662 -0.92578125 173.8359375 C-1.50473603 166.77268916 -1.50473603 166.77268916 0.6796875 163.23828125 C3.5323336 160.37632799 5.88223385 159.47752166 9.69921875 158.2109375 C14.74087945 156.69153499 14.74087945 156.69153499 18.07421875 152.8359375 C17.92369884 146.33621393 16.07637919 142.48493883 12.44921875 137.2109375 C-3.03623951 113.64707864 -3.03623951 113.64707864 -0.92578125 100.8359375 C0.63671875 98.01953125 0.63671875 98.01953125 2.57421875 95.2734375 C6.39295362 89.7660937 7.19056574 86.40998091 6.07421875 79.8359375 C4.63584989 72.52296741 2.84274501 65.33241173 0.6953125 58.1953125 C-5.76891204 36.61600901 -5.76891204 36.61600901 -0.92578125 27.3984375 C-0.56742188 26.7796875 -0.2090625 26.1609375 0.16015625 25.5234375 C1.69875352 22.68295023 1.71812959 20.99110063 1.07421875 17.8359375 C-4.86730894 5.39962247 -17.22394891 -2.74952597 -28.92578125 -9.1640625 C-30.00859375 -9.75960937 -31.09140625 -10.35515625 -32.20703125 -10.96875 C-58.47715471 -24.28131256 -85.9030922 -27.46609584 -113.92578125 -18.4765625 C-126.08646517 -14.38234014 -137.19578791 -8.6075949 -146.92578125 -0.1640625 C-147.71082031 0.47789062 -148.49585938 1.11984375 -149.3046875 1.78125 C-157.91281677 9.08266794 -166.47315582 18.39654815 -171.04296875 28.8671875 C-172.15704736 31.35168139 -173.51178375 33.66001473 -174.86328125 36.0234375 C-186.51886048 57.29855807 -188.13821742 81.48025804 -181.92578125 104.8359375 C-177.00745719 121.28865753 -169.32047387 136.60514178 -161.05078125 151.5859375 C-143.6717026 183.15673765 -139.51243071 209.26511691 -139.80078125 245.1484375 C-139.81084799 247.36523026 -139.8199672 249.58202752 -139.828125 251.79882812 C-139.84807988 257.14473958 -139.88727511 262.49000157 -139.92578125 267.8359375 C-147.84578125 267.8359375 -155.76578125 267.8359375 -163.92578125 267.8359375 C-163.97476563 264.84273438 -164.02375 261.84953125 -164.07421875 258.765625 C-164.12862441 255.78316314 -164.18577392 252.80076514 -164.24316406 249.81835938 C-164.28084425 247.78618365 -164.31578784 245.75395486 -164.34765625 243.72167969 C-164.95164489 205.63264612 -171.27261962 178.99992035 -189.71362305 145.54614258 C-205.79225 116.33263991 -216.05658179 84.96918096 -206.52001953 51.79785156 C-202.04622215 37.02733563 -195.13898667 23.43299327 -184.92578125 11.8359375 C-184.2503125 11.01738281 -183.57484375 10.19882813 -182.87890625 9.35546875 C-162.67222117 -14.42794708 -132.76028328 -24.09853099 -102.55688477 -26.9699707 C-67.80485325 -29.53356586 -27.28397349 -23.43920303 0 0 Z " fill="#FDB0A0" transform="translate(346.92578125,139.1640625)"/>
<path d="M0 0 C3.09051745 1.53894123 6.09262749 3.17796445 9.08959961 4.89282227 C9.68978409 5.2356424 10.28996857 5.57846252 10.90834045 5.93167114 C12.17236674 6.65463779 13.43549014 7.37918507 14.69775391 8.10522461 C16.61317225 9.20647489 18.53178975 10.30197604 20.45092773 11.39672852 C27.32426617 15.33323073 27.32426617 15.33323073 30.68725586 17.33813477 C31.79343262 17.87921875 32.89960937 18.42030273 34.03930664 18.9777832 C36.94230965 21.56548679 37.11811839 21.99205515 37.51123047 25.64428711 C37.57102841 27.40339329 37.59494032 29.16395812 37.58959961 30.92407227 C37.60245499 31.85861237 37.61531036 32.79315247 37.6285553 33.75601196 C37.64576827 35.73122882 37.64729778 37.70663582 37.63427734 39.68188477 C37.62480269 42.69822472 37.6950952 45.70570265 37.77124023 48.72094727 C37.77806104 50.64281115 37.78016884 52.56469872 37.77709961 54.48657227 C37.81854347 55.83215714 37.81854347 55.83215714 37.86082458 57.20492554 C37.77578959 61.06172426 37.65125265 63.39880697 34.8119812 66.16542053 C32.4999217 67.73093825 30.16800581 69.05957071 27.68725586 70.33813477 C26.17566895 71.24245239 26.17566895 71.24245239 24.63354492 72.16503906 C23.74892578 72.65915283 22.86430664 73.1532666 21.95288086 73.66235352 C20.47368164 74.49283203 20.47368164 74.49283203 18.96459961 75.34008789 C17.96557617 75.89631836 16.96655273 76.45254883 15.93725586 77.02563477 C13.92132405 78.15399304 11.90568851 79.28288083 9.89038086 80.41235352 C9.01027344 80.9030835 8.13016602 81.39381348 7.22338867 81.89941406 C4.63299338 83.30887771 4.63299338 83.30887771 2.17456055 85.14599609 C-0.31274414 86.33813477 -0.31274414 86.33813477 -2.77050781 85.71826172 C-3.6094458 85.26281982 -4.44838379 84.80737793 -5.31274414 84.33813477 C-6.21549072 83.86529053 -7.1182373 83.39244629 -8.04833984 82.90527344 C-9.01860107 82.36104736 -9.9888623 81.81682129 -10.98852539 81.25610352 C-12.06424805 80.6534668 -13.1399707 80.05083008 -14.24829102 79.42993164 C-15.36268555 78.80151367 -16.47708008 78.1730957 -17.62524414 77.52563477 C-18.72803711 76.90881836 -19.83083008 76.29200195 -20.96704102 75.65649414 C-24.09307528 73.90031608 -27.21507939 72.14395589 -30.31274414 70.33813477 C-31.36774612 69.85962318 -31.36774612 69.85962318 -32.44406128 69.3714447 C-34.7539386 68.21089744 -36.48609502 67.17334848 -38.31274414 65.33813477 C-39.40902463 61.88108518 -39.24894044 58.60303078 -39.09399414 55.00610352 C-39.08267456 54.01435623 -39.07135498 53.02260895 -39.05969238 52.00080872 C-39.01498997 48.84043246 -38.91463957 45.68463353 -38.81274414 42.52563477 C-38.77260918 40.38051811 -38.73610844 38.23533016 -38.70336914 36.09008789 C-38.61527747 30.83788134 -38.48150826 25.58833496 -38.31274414 20.33813477 C-37.50643555 19.87963135 -36.70012695 19.42112793 -35.86938477 18.94873047 C-32.84192494 17.22611278 -29.81533828 15.50197983 -26.78930664 13.77685547 C-25.48626124 13.03439642 -24.18288328 12.29252069 -22.87915039 11.55126953 C-21.61272964 10.83113841 -20.34677333 10.11018986 -19.08129883 9.38839722 C-17.84477468 8.68326803 -16.60715039 7.98006442 -15.3684082 7.27883911 C-12.0433755 5.38362262 -8.86401175 3.3713213 -5.71899414 1.19360352 C-2.31274414 -0.66186523 -2.31274414 -0.66186523 0 0 Z " fill="#A7E203" transform="translate(49.312744140625,216.661865234375)"/>
<path d="M0 0 C1.60186157 -0.01891296 1.60186157 -0.01891296 3.23608398 -0.03820801 C4.95807007 -0.02606262 4.95807007 -0.02606262 6.71484375 -0.01367188 C7.89828369 -0.01749878 9.08172363 -0.02132568 10.30102539 -0.02526855 C12.80258027 -0.02798997 15.30416349 -0.02061291 17.80566406 -0.00390625 C21.63801424 0.01749809 25.46848949 -0.00370232 29.30078125 -0.02929688 C31.73047289 -0.02665364 34.16016337 -0.02152876 36.58984375 -0.01367188 C37.73783447 -0.0217688 38.8858252 -0.02986572 40.06860352 -0.03820801 C41.13651123 -0.02559937 42.20441895 -0.01299072 43.3046875 0 C44.7122229 0.00477356 44.7122229 0.00477356 46.14819336 0.00964355 C49.47584739 0.6846152 50.64575695 1.80709207 52.65234375 4.51757812 C53.16700745 6.97703552 53.16700745 6.97703552 53.18579102 9.75756836 C53.20162735 10.80222763 53.21746368 11.8468869 53.23377991 12.92320251 C53.22882004 14.0461824 53.22386017 15.16916229 53.21875 16.32617188 C53.22494858 17.4850441 53.23114716 18.64391632 53.23753357 19.83790588 C53.24463608 22.28816894 53.24145032 24.73848022 53.22875977 27.1887207 C53.21490716 30.93791591 53.24894739 34.68460989 53.28710938 38.43359375 C53.28806067 40.81445374 53.28620118 43.19531685 53.28125 45.57617188 C53.29450821 46.69712753 53.30776642 47.81808319 53.32142639 48.9730072 C53.26620202 53.58995583 53.13539441 56.66113953 50.84350586 60.72460938 C45.96958568 63.4630433 41.46751667 63.21305304 35.96484375 63.14648438 C34.2619519 63.15010231 34.2619519 63.15010231 32.5246582 63.15379333 C30.12740583 63.15281501 27.73013083 63.13942509 25.33300781 63.11450195 C21.6652343 63.08019869 17.99987064 63.09384475 14.33203125 63.11328125 C12.00129183 63.10638267 9.67055863 63.09671018 7.33984375 63.08398438 C6.24389893 63.08894424 5.1479541 63.09390411 4.01879883 63.09901428 C-0.22583063 63.03340644 -3.58077337 62.82553989 -7.53881836 61.23608398 C-10.58247533 56.66176621 -10.03851028 51.81896042 -9.9765625 46.45507812 C-9.97897446 45.27163818 -9.98138641 44.08819824 -9.98387146 42.86889648 C-9.98289215 40.36731617 -9.96947898 37.86571441 -9.94458008 35.36425781 C-9.91028356 31.53180433 -9.92391622 27.70165696 -9.94335938 23.86914062 C-9.93646092 21.43944329 -9.92678856 19.00975192 -9.9140625 16.58007812 C-9.91902237 15.4320874 -9.92398224 14.28409668 -9.92909241 13.10131836 C-9.91325607 12.03341064 -9.89741974 10.96550293 -9.88110352 9.86523438 C-9.87490494 8.92687744 -9.86870636 7.98852051 -9.86231995 7.02172852 C-8.72503618 1.48815464 -5.27127402 0.01787716 0 0 Z " fill="#4DB0FC" transform="translate(236.34765625,18.482421875)"/>
<path d="M0 0 C8.3600595 4.74969752 13.63436369 10.37352326 17.51953125 19.25390625 C19.84352979 29.39499081 19.58069688 39.11756012 14.390625 48.4140625 C8.92901528 56.90389147 1.94152052 61.53256504 -7.79296875 64.25390625 C-17.86892544 65.21671989 -26.72652195 64.70615069 -35.0390625 58.60546875 C-37.06335443 56.90432067 -38.93915559 55.13789776 -40.79296875 53.25390625 C-41.90671875 52.14015625 -41.90671875 52.14015625 -43.04296875 51.00390625 C-48.90342324 41.79462062 -50.35801755 31.99623375 -48.203125 21.3359375 C-45.6532798 13.00487645 -40.48749636 6.20494601 -33.08984375 1.5546875 C-22.7163707 -3.7382103 -10.78603445 -5.13365156 0 0 Z " fill="#FE4C4C" transform="translate(482.79296875,228.74609375)"/>
<path d="M0 0 C2 1.5 2 1.5 3 4 C2.56381733 9.99588411 1.18605947 15.28596351 -0.8125 20.9375 C-1.26338989 22.21318848 -1.26338989 22.21318848 -1.72338867 23.51464844 C-16.31246367 63.32060142 -41.89111559 98.72597037 -76 124 C-77.11980911 124.85023745 -78.2396009 125.7004977 -79.359375 126.55078125 C-91.1363728 135.35668234 -104.01549648 142.21283903 -117.25 148.5625 C-117.9406958 148.89717285 -118.6313916 149.2318457 -119.34301758 149.57666016 C-123.21952247 151.38738031 -126.74623622 152.5178187 -131 153 C-130.34 153.99 -129.68 154.98 -129 156 C-128.57216934 158.80590236 -128.77169298 161.1233315 -129 164 C-132.80284688 166.53523126 -134.46585023 166.38656242 -139 166 C-142.19819775 165.11344749 -145.23865921 163.93256835 -148.3125 162.6875 C-149.12267578 162.37876953 -149.93285156 162.07003906 -150.76757812 161.75195312 C-156.74014677 159.38977985 -156.74014677 159.38977985 -159 156 C-158.91642931 149.70940592 -156.54861205 146.36535257 -152.6875 141.75 C-151.95756836 140.83347656 -151.95756836 140.83347656 -151.21289062 139.8984375 C-148.75507585 136.86834553 -146.4135494 133.98580156 -143 132 C-139.875 132.125 -139.875 132.125 -137 133 C-134.8480563 136.22791555 -134.79913557 137.28400809 -135 141 C-90.51963742 122.11088501 -54.5055516 93.02336023 -30 51 C-29.47696289 50.11658936 -29.47696289 50.11658936 -28.94335938 49.21533203 C-20.93766532 35.55743429 -14.78020722 20.40052369 -10.80200195 5.0871582 C-8.72006739 -0.33094182 -5.49908736 -0.68738592 0 0 Z " fill="#7886BE" transform="translate(464,309)"/>
<path d="M0 0 C1.36656738 0.46249146 1.36656738 0.46249146 2.76074219 0.93432617 C55.69859964 19.31476634 100.45684587 58.65806401 125.2265625 108.94140625 C127.63197145 113.93161479 129.96921864 118.95166649 132.25 124 C132.84683594 123.66871094 133.44367188 123.33742188 134.05859375 122.99609375 C137.19608334 121.56996212 139.00381454 121.96398336 142.25 123 C144.3125 124.875 144.3125 124.875 145.25 128 C144.68862958 131.81731884 143.49605612 135.35695043 142.25 139 C141.93289063 140.00804687 141.61578125 141.01609375 141.2890625 142.0546875 C138.87687546 149.3298436 138.87687546 149.3298436 136.49609375 151.875 C133.22263214 153.51457729 131.74234722 153.09735641 128.25 152 C125.33708572 150.37801167 122.64624956 148.50225059 119.9375 146.5625 C119.20982422 146.05912109 118.48214844 145.55574219 117.73242188 145.03710938 C112.39612684 141.29225368 112.39612684 141.29225368 111.25 139 C110.9375 135.5625 110.9375 135.5625 111.25 132 C113.50359695 129.66869281 115.16215725 129.02928092 118.25 128 C108.28202282 102.86946598 92.95956049 81.36127232 74.25 62 C73.57839844 61.27683594 72.90679687 60.55367188 72.21484375 59.80859375 C50.32866244 36.80719301 20.51875245 21.95728483 -9.09228516 11.90625 C-19.33712016 8.41287984 -19.33712016 8.41287984 -21.75 6 C-22.41666667 -0.11111111 -22.41666667 -0.11111111 -20.25 -3 C-13.96404876 -5.51438049 -6.09922456 -2.07073147 0 0 Z " fill="#7886BE" transform="translate(326.75,54)"/>
<path d="M0 0 C2.81578258 -0.05631565 4.43726023 -0.03526603 7 1 C8.46240234 2.66601562 8.46240234 2.66601562 9.8359375 4.84375 C10.6091333 6.06856079 10.6091333 6.06856079 11.39794922 7.31811523 C14.20124381 12.01092094 16.86617169 16.77293227 19.5 21.5625 C25.02557311 31.54155354 30.70025249 41.41840176 36.55664062 51.20727539 C42.36352372 61.02202322 42.36352372 61.02202322 43 65 C41.96923828 67.62634277 41.96923828 67.62634277 40 70 C36.85009766 70.62145996 36.85009766 70.62145996 32.9140625 70.61523438 C32.19667908 70.62078339 31.47929565 70.6263324 30.74017334 70.63204956 C28.3677703 70.64386501 25.99726953 70.61955485 23.625 70.59375 C21.97737719 70.59203932 20.32975166 70.59210415 18.68212891 70.59387207 C15.22857637 70.59221777 11.77567215 70.5735005 8.32226562 70.54199219 C3.89332969 70.50231367 -0.53475674 70.49794606 -4.96383667 70.50545502 C-8.36620887 70.50852317 -11.76838971 70.49640982 -15.17071533 70.47932434 C-16.80380045 70.47228816 -18.43690727 70.46917056 -20.07000732 70.47001648 C-22.35175844 70.46822058 -24.63248784 70.44685851 -26.9140625 70.41992188 C-28.2129541 70.41150269 -29.5118457 70.4030835 -30.85009766 70.39440918 C-34 70 -34 70 -35.93652344 68.65808105 C-37.3659765 66.42940096 -37.23523819 64.73288372 -36.73535156 62.18212891 C-35.04372577 57.16229113 -32.0892619 52.70666004 -29.375 48.1875 C-28.35789216 46.46347575 -27.34080569 44.73943845 -26.32499695 43.01464844 C-25.62237394 41.82330338 -24.91818163 40.63288256 -24.21247864 39.44335938 C-21.72558354 35.25013653 -19.28859553 31.03097428 -16.87890625 26.79296875 C-16.21113179 25.62148268 -15.54332621 24.45001434 -14.87548828 23.27856445 C-13.614459 21.06389965 -12.35617312 18.84766974 -11.10107422 16.62963867 C-7.74705508 10.77382067 -4.22439798 5.26770943 0 0 Z " fill="#FCC62D" transform="translate(255,423)"/>
<path d="M0 0 C1.06541016 0.38478516 1.06541016 0.38478516 2.15234375 0.77734375 C5.79539519 2.15299316 7.41190622 2.80535933 9.625 6.125 C10.4336202 10.45689395 9.40703178 12.84551134 7.0703125 16.39453125 C5.97797936 17.91930136 4.87067423 19.43343722 3.75 20.9375 C3.19441406 21.71287109 2.63882813 22.48824219 2.06640625 23.28710938 C-2.05758499 28.9662925 -2.05758499 28.9662925 -4.375 30.125 C-9.68520813 30.57693261 -9.68520813 30.57693261 -12.1875 28.9375 C-13.6434696 26.71523062 -13.91207359 24.71993612 -14.375 22.125 C-34.15975658 31.1737397 -52.78571899 40.80056764 -69.375 55.125 C-70.14328125 55.78371094 -70.9115625 56.44242188 -71.703125 57.12109375 C-74.30690708 59.4099022 -76.84773801 61.75188307 -79.375 64.125 C-79.90109863 64.61709961 -80.42719727 65.10919922 -80.96923828 65.61621094 C-105.46538496 88.71884306 -121.35728415 117.45638352 -133.0625 148.7578125 C-134.375 152.125 -134.375 152.125 -135.375 153.125 C-142.6053207 153.70809038 -142.6053207 153.70809038 -145.4375 151.5625 C-148.05260267 144.76323305 -143.53517461 136.71980274 -141 130.4375 C-140.55736816 129.33768799 -140.11473633 128.23787598 -139.65869141 127.10473633 C-129.08644744 101.46713735 -113.45776627 79.10609906 -94.375 59.125 C-93.50230469 58.19945312 -92.62960938 57.27390625 -91.73046875 56.3203125 C-85.32473892 49.69886995 -78.5026467 43.96414364 -71.13818359 38.44824219 C-69.46230314 37.19051966 -67.80350494 35.9126937 -66.14453125 34.6328125 C-51.61748726 23.64446358 -34.98408796 15.4723224 -18.375 8.125 C-19.365 7.135 -19.365 7.135 -20.375 6.125 C-21.04166667 0.01388889 -21.04166667 0.01388889 -18.875 -2.875 C-12.83632795 -5.29046882 -5.76757747 -2.21829903 0 0 Z " fill="#7886BE" transform="translate(197.375,48.875)"/>
<path d="M0 0 C2.69830905 1.39683923 5.18216295 3.03516989 7.6875 4.75 C8.68233398 5.39582031 8.68233398 5.39582031 9.69726562 6.0546875 C13.44743428 8.57745956 16.16657269 10.7196524 18 15 C17.5625 18.1875 17.5625 18.1875 16 21 C12.90234375 22.17578125 12.90234375 22.17578125 10 23 C17.00033307 37.14885111 24.35138044 50.48212176 34 63 C34.76957031 64.0003125 35.53914063 65.000625 36.33203125 66.03125 C38.49620634 68.74524255 40.71908213 71.38342866 43 74 C43.6801416 74.78068848 43.6801416 74.78068848 44.37402344 75.57714844 C50.26149564 82.28265285 56.2699827 88.39855792 63.32421875 93.90625 C65.05052507 95.25705319 66.74439348 96.65088891 68.39453125 98.09375 C87.64677693 114.82956042 110.96692012 125.48989965 135.10205078 132.99511719 C136.21306152 133.34477539 137.32407227 133.69443359 138.46875 134.0546875 C139.46326172 134.35874512 140.45777344 134.66280273 141.48242188 134.97607422 C144.04693459 136.0190888 145.36526126 136.78307197 147 139 C147.65444985 145.10819863 147.65444985 145.10819863 145.73242188 147.72729492 C142.94112927 149.77788798 140.76760552 148.99300556 137.484375 148.49853516 C133.38516025 147.67595295 129.46007763 146.52176107 125.5 145.1875 C124.60563232 144.88618164 123.71126465 144.58486328 122.78979492 144.27441406 C93.28526242 133.91803153 67.47892877 117.53547008 45 96 C44.41605469 95.44860352 43.83210938 94.89720703 43.23046875 94.32910156 C23.46095001 75.5896788 7.62038038 53.14133683 -3 28 C-3.58523437 28.33386719 -4.17046875 28.66773438 -4.7734375 29.01171875 C-8.10362332 30.48985386 -10.52704255 29.83608235 -14 29 C-16.3006117 25.54908244 -16.16540623 23.89418064 -15.609375 19.8828125 C-14.83720485 16.22985372 -13.81657756 12.68024763 -12.6875 9.125 C-12.48697021 8.47047852 -12.28644043 7.81595703 -12.07983398 7.14160156 C-11.14235891 4.34115336 -10.18175932 2.20353876 -8.20703125 -0.0078125 C-4.98403578 -1.45673436 -3.37621804 -1.02878712 0 0 Z " fill="#7886BE" transform="translate(63,320)"/>
<path d="M0 0 C21.1923462 -0.7816849 39.118123 5.37369943 55.06640625 19.72265625 C70.43812707 34.05999586 79.09746869 52.81651176 80.19921875 73.79296875 C80.92834285 95.2783266 73.56308242 114.36650079 59.6875 130.7265625 C46.46809037 144.77218523 27.82199974 154.20020661 8.4453125 155.1796875 C5.62226446 155.18632997 2.81924139 155.13941304 0 155 C0 154.67 0 154.34 0 154 C1.22074219 153.72027344 2.44148437 153.44054687 3.69921875 153.15234375 C25.41113522 147.95714239 42.08342754 137.50953423 54.75 118.6875 C65.39945868 101.11096288 69.26673207 78.96460898 64.5 58.875 C61.12854609 46.21275764 54.84823416 34.64787811 46 25 C45.37480469 24.29488281 44.74960937 23.58976562 44.10546875 22.86328125 C39.06592721 17.47476942 33.36927487 13.67313639 27 10 C26.33226562 9.60941406 25.66453125 9.21882812 24.9765625 8.81640625 C17.30919323 4.65920393 8.58868654 2.27669665 0 1 C0 0.67 0 0.34 0 0 Z " fill="#9ECCFB" transform="translate(237,137)"/>
<path d="M0 0 C4.2670344 2.30419857 7.52069849 4.80425898 10 9 C10.6335033 13.98883846 10.57512803 15.96476955 8.125 20.375 C6 23 6 23 4 25 C3.80319958 27.84012867 3.73047932 30.58407692 3.74462891 33.42529297 C3.73919823 34.73282532 3.73919823 34.73282532 3.73365784 36.06677246 C3.7267536 37.96344835 3.72426032 39.86014415 3.72560501 41.75683212 C3.7265674 44.75746938 3.71366222 47.75774559 3.69662476 50.7583313 C3.65026437 59.2908446 3.62574184 67.8233222 3.61914062 76.35595703 C3.61413194 81.57146801 3.58991298 86.78660352 3.55381393 92.00198746 C3.54399918 93.99149448 3.54169308 95.98105305 3.54698563 97.97057724 C3.55403891 100.75276676 3.53680956 103.5338345 3.51416016 106.31591797 C3.52233261 107.13996124 3.53050507 107.96400452 3.53892517 108.8130188 C3.48657261 112.42216482 3.30292619 114.58000818 1.16317749 117.54666138 C-1 119 -1 119 -4.125 118.9375 C-7 118 -7 118 -9 115 C-9.18788671 112.13202552 -9.25938655 109.3607325 -9.23950195 106.49291992 C-9.24151611 105.62429825 -9.24353027 104.75567657 -9.24560547 103.86073303 C-9.24915252 101.97334804 -9.24838198 100.08595118 -9.24382973 98.19856834 C-9.2382428 95.20990151 -9.24738541 92.2216237 -9.2610321 89.23298645 C-9.29818452 80.73530383 -9.3167032 72.23775175 -9.30541992 63.73999023 C-9.29956479 58.54271736 -9.31785134 53.34599015 -9.35130882 48.14882851 C-9.35925931 46.16934039 -9.35799063 44.18979274 -9.34728432 42.21031761 C-9.33293789 39.43803122 -9.34924839 36.66745591 -9.37231445 33.89526367 C-9.35466286 32.67234116 -9.35466286 32.67234116 -9.33665466 31.42471313 C-9.43195625 25.5731881 -10.91000568 23.16419372 -15 19 C-16.63290762 15.73418475 -16.67786532 12.51603041 -16 9 C-12.26910484 2.74133223 -7.46488397 -0.89578608 0 0 Z " fill="#7986BF" transform="translate(242,155)"/>
<path d="M0 0 C3.13039876 1.48746465 6.12207368 3.12959641 9.13061523 4.85107422 C9.73079971 5.19389435 10.33098419 5.53671448 10.94935608 5.8899231 C12.21338236 6.61288974 13.47650577 7.33743702 14.73876953 8.06347656 C16.65418787 9.16472684 18.57280538 10.260228 20.49194336 11.35498047 C27.3652818 15.29148269 27.3652818 15.29148269 30.72827148 17.29638672 C31.83444824 17.8374707 32.940625 18.37855469 34.08032227 18.93603516 C36.98332528 21.52373874 37.15913401 21.9503071 37.55224609 25.60253906 C37.61204404 27.36164524 37.63595595 29.12221007 37.63061523 30.88232422 C37.64347061 31.81686432 37.65632599 32.75140442 37.66957092 33.71426392 C37.68678389 35.68948077 37.68831341 37.66488778 37.67529297 39.64013672 C37.66581832 42.65647667 37.73611083 45.6639546 37.81225586 48.67919922 C37.81907666 50.60106311 37.82118446 52.52295068 37.81811523 54.44482422 C37.8595591 55.79040909 37.8595591 55.79040909 37.90184021 57.16317749 C37.81680522 61.01997622 37.69226827 63.35705892 34.85299683 66.12367249 C32.54093732 67.68919021 30.20902144 69.01782267 27.72827148 70.29638672 C26.21668457 71.20070435 26.21668457 71.20070435 24.67456055 72.12329102 C23.78994141 72.61740479 22.90532227 73.11151855 21.99389648 73.62060547 C21.00776367 74.17425781 20.02163086 74.72791016 19.00561523 75.29833984 C18.0065918 75.85457031 17.00756836 76.41080078 15.97827148 76.98388672 C13.96233967 78.11224499 11.94670413 79.24113279 9.93139648 80.37060547 C9.05128906 80.86133545 8.17118164 81.35206543 7.2644043 81.85766602 C5.49983188 82.85868885 3.76722966 83.91733102 2.06323242 85.01831055 C-0.27172852 86.29638672 -0.27172852 86.29638672 -2.83422852 85.67138672 C-5.14757684 84.366421 -7.16625673 82.90776259 -9.27172852 81.29638672 C-6.68856759 79.77525996 -4.10520172 78.25448296 -1.52172852 76.73388672 C-0.45631836 76.10643555 -0.45631836 76.10643555 0.63061523 75.46630859 C1.35893555 75.03769531 2.08725586 74.60908203 2.83764648 74.16748047 C3.60044922 73.69173584 4.36325195 73.21599121 5.14916992 72.72583008 C7.72827148 71.29638672 7.72827148 71.29638672 10.94018555 70.16577148 C14.75980041 68.61132323 16.97804981 67.39881135 19.72827148 64.29638672 C21.88843875 57.29417692 21.17473014 49.59123884 20.97827148 42.35888672 C20.96628951 40.31919798 20.95972189 38.27946979 20.95874023 36.23974609 C20.94457191 31.25598794 20.85636669 26.27846581 20.72827148 21.29638672 C20.02162354 21.0335791 19.31497559 20.77077148 18.58691406 20.5 C15.55368689 19.22287899 12.82631244 17.70699905 9.98999023 16.03857422 C8.92329102 15.41337891 7.8565918 14.78818359 6.75756836 14.14404297 C5.65477539 13.49306641 4.55198242 12.84208984 3.41577148 12.17138672 C1.73257813 11.18332031 1.73257813 11.18332031 0.01538086 10.17529297 C-2.74881508 8.55206301 -5.51109484 6.92566518 -8.27172852 5.29638672 C-7.27172852 2.29638672 -7.27172852 2.29638672 -5.02172852 0.48388672 C-2.27172852 -0.70361328 -2.27172852 -0.70361328 0 0 Z " fill="#99D100" transform="translate(49.271728515625,216.70361328125)"/>
<path d="M0 0 C3.4375 0.875 3.4375 0.875 5.4375 3.875 C5.67800903 6.47563171 5.67800903 6.47563171 5.66455078 9.6315918 C5.66439972 10.81258957 5.66424866 11.99358734 5.66409302 13.21037292 C5.65377045 14.48544205 5.64344788 15.76051117 5.6328125 17.07421875 C5.6299826 18.37954056 5.62715271 19.68486237 5.62423706 21.02973938 C5.61660747 24.49695515 5.59696493 27.96400288 5.5748291 31.43115234 C5.55435605 34.97035448 5.54523223 38.50958382 5.53515625 42.04882812 C5.5137183 48.99095437 5.47959056 55.93296911 5.4375 62.875 C6.06011719 63.16246094 6.68273437 63.44992188 7.32421875 63.74609375 C10.33827312 65.35618934 11.15441717 66.70105826 12.4375 69.875 C12.65370098 74.45679771 12.04221386 77.89494651 9.625 81.8125 C5.33541824 85.8569628 1.60727462 86.37199127 -4.15234375 86.26171875 C-8.65887884 85.53862803 -10.36312727 82.53127663 -12.875 79.0625 C-14.33414661 74.41976079 -14.23713671 70.35277566 -12.25 66 C-10.5625 63.875 -10.5625 63.875 -7.5625 61.875 C-7.10531676 59.3131983 -7.10531676 59.3131983 -7.17773438 56.27954102 C-7.16762329 55.10815079 -7.15751221 53.93676056 -7.14709473 52.72987366 C-7.15011597 51.45905441 -7.15313721 50.18823517 -7.15625 48.87890625 C-7.13969577 46.89349814 -7.12312532 44.90809001 -7.10558319 42.92269039 C-7.07874453 39.42766917 -7.07123425 35.9326057 -7.0625 32.4375 C-7.05208393 28.27322715 -7.0383597 24.10918745 -7.00158691 19.9450531 C-6.97996378 17.34980443 -6.9717253 14.75440426 -6.97790527 12.15907288 C-6.96779419 10.98453049 -6.95768311 9.8099881 -6.94726562 8.59985352 C-6.94521118 7.5644191 -6.94315674 6.52898468 -6.94104004 5.46217346 C-6.5625 2.875 -6.5625 2.875 -5.2611084 1.00938416 C-3.5625 -0.125 -3.5625 -0.125 0 0 Z " fill="#7B88C0" transform="translate(275.5625,170.125)"/>
<path d="M0 0 C8.23080537 2.6064217 12.28778658 14.54478869 16.25 21.75 C21.77557311 31.72905354 27.45025249 41.60590176 33.30664062 51.39477539 C39.11352372 61.20952322 39.11352372 61.20952322 39.75 65.1875 C38.94921875 68.04296875 38.94921875 68.04296875 36.75 70.1875 C33.66817762 70.8047939 30.68948415 70.65719565 27.5625 70.5 C26.2950293 70.46616211 26.2950293 70.46616211 25.00195312 70.43164062 C22.91721202 70.37274963 20.83338196 70.28306798 18.75 70.1875 C19.41 69.8575 20.07 69.5275 20.75 69.1875 C21.34369872 63.41243063 19.461909 60.1130481 16.625 55.3125 C16.18994141 54.55235596 15.75488281 53.79221191 15.30664062 53.0090332 C13.80307757 50.39265624 12.27840579 47.78943976 10.75 45.1875 C8.87839348 41.99046583 7.00721143 38.79318643 5.13720703 35.59521484 C3.89569365 33.47677221 2.64940055 31.36112225 1.39794922 29.24853516 C0.82318848 28.27319824 0.24842773 27.29786133 -0.34375 26.29296875 C-0.85615234 25.42824951 -1.36855469 24.56353027 -1.89648438 23.67260742 C-3.22669918 21.23028121 -4.27378825 18.78908103 -5.25 16.1875 C-9.39093698 15.97779441 -9.39093698 15.97779441 -13.25 17.1875 C-11.89293196 13.55342837 -10.25749128 10.31737933 -8.25 7 C-7.734375 6.14019531 -7.21875 5.28039062 -6.6875 4.39453125 C-3.97457208 0.22930224 -3.97457208 0.22930224 0 0 Z " fill="#F9AC00" transform="translate(258.25,422.8125)"/>
<path d="M0 0 C7.35188477 -0.49012565 7.35188477 -0.49012565 10.23228455 1.68812561 C12.34728874 4.45419524 12.5101557 5.79213788 12.53344727 9.23999023 C12.5492836 10.28464951 12.56511993 11.32930878 12.58143616 12.40562439 C12.57647629 13.52860428 12.57151642 14.65158417 12.56640625 15.80859375 C12.57260483 16.96746597 12.57880341 18.1263382 12.58518982 19.32032776 C12.59229233 21.77059082 12.58910657 24.22090209 12.57641602 26.67114258 C12.56256341 30.42033779 12.59660364 34.16703176 12.63476562 37.91601562 C12.63571692 40.29687561 12.63385743 42.67773872 12.62890625 45.05859375 C12.64216446 46.17954941 12.65542267 47.30050507 12.66908264 48.45542908 C12.61385827 53.07237771 12.48305066 56.14356141 10.19116211 60.20703125 C5.31724193 62.94546517 0.81517292 62.69547492 -4.6875 62.62890625 C-6.39039185 62.63252419 -6.39039185 62.63252419 -8.12768555 62.63621521 C-10.52493792 62.63523688 -12.92221292 62.62184696 -15.31933594 62.59692383 C-18.98710945 62.56262056 -22.65247311 62.57626663 -26.3203125 62.59570312 C-28.65105192 62.58880454 -30.98178512 62.57913206 -33.3125 62.56640625 C-34.40844482 62.57136612 -35.50438965 62.57632599 -36.63354492 62.58143616 C-41.11465106 62.51217317 -44.20481344 62.40871099 -48.23046875 60.33959961 C-50.46825173 57.3808973 -50.4119511 55.62516969 -50 52 C-49.44511902 51.99635437 -48.89023804 51.99270874 -48.31854248 51.98895264 C-42.54315306 51.9471416 -36.7685594 51.87780659 -30.99365234 51.79248047 C-28.83845987 51.76425501 -26.68316357 51.74304835 -24.52783203 51.72900391 C-21.4294717 51.70759653 -18.33236173 51.6609568 -15.234375 51.609375 C-14.27070007 51.60814636 -13.30702515 51.60691772 -12.31414795 51.60565186 C-8.52846381 51.52276726 -5.77515447 51.40852736 -2.3984375 49.62890625 C-0.12625963 45.35746573 -0.39643662 41.09336626 -0.390625 36.328125 C-0.37408875 35.29057068 -0.35755249 34.25301636 -0.34051514 33.184021 C-0.29196015 29.8726209 -0.27064698 26.56168029 -0.25 23.25 C-0.22184668 21.00388304 -0.19192016 18.75778755 -0.16015625 16.51171875 C-0.08619938 11.00789613 -0.0346008 5.50420313 0 0 Z " fill="#2A93FB" transform="translate(277,19)"/>
<path d="M0 0 C4.41927014 0.46894216 7.65051646 2.10986794 11.57421875 4.109375 C13.09341431 4.85231671 14.61424982 5.59191452 16.13671875 6.328125 C16.86890625 6.68261719 17.60109375 7.03710938 18.35546875 7.40234375 C26.05764412 11.0312533 34.2171148 13.23432615 42.41796875 15.4296875 C45.38671875 16.359375 45.38671875 16.359375 48.38671875 18.359375 C47.14973958 19.7265625 45.91276042 21.09375 44.67578125 22.4609375 C41.47844978 27.16973475 41.11040298 32.1707778 40.97265625 37.7265625 C40.9532901 38.40615021 40.93392395 39.08573792 40.91397095 39.78591919 C40.85466776 41.93528079 40.80798984 44.08469741 40.76171875 46.234375 C40.72349343 47.7005429 40.68443911 49.16668943 40.64453125 50.6328125 C40.54900831 54.20813664 40.46479749 57.78362248 40.38671875 61.359375 C36.09671875 61.359375 31.80671875 61.359375 27.38671875 61.359375 C27.33064453 59.63654297 27.33064453 59.63654297 27.2734375 57.87890625 C27.03750697 39.91424258 27.03750697 39.91424258 19.38671875 24.359375 C14.27899547 19.71716574 8.24951609 16.44840879 2.22314453 13.16259766 C-3.70371142 9.8961758 -3.70371142 9.8961758 -5.61328125 7.359375 C-5.30353781 3.12621469 -4.52989178 0.62294476 0 0 Z " fill="#FDB0A0" transform="translate(254.61328125,345.640625)"/>
<path d="M0 0 C11.87936331 -0.61622058 20.74697544 0.68811802 30.1796875 8.23046875 C36.78409188 14.65063009 40.12408152 22.42758042 40.96484375 31.5078125 C41.10967107 41.77446003 37.60680201 50.81685626 30.76953125 58.3984375 C23.96834983 64.55403216 15.67775634 67.29580672 6.625 67.125 C5.37976563 67.10695313 4.13453125 67.08890625 2.8515625 67.0703125 C1.91054688 67.04710937 0.96953125 67.02390625 0 67 C1.30928503 64.38142995 2.36302734 64.33579924 5.0625 63.3125 C12.94636872 59.92293861 18.39766827 54.75886834 22 47 C25.20172578 38.83559926 25.23270218 29.3377389 22.03125 21.15625 C17.11314404 10.87293753 10.17798198 5.69753014 0 1 C0 0.67 0 0.34 0 0 Z " fill="#E8323B" transform="translate(461,226)"/>
<path d="M0 0 C4.2670344 2.30419857 7.52069849 4.80425898 10 9 C10.61617063 13.85234374 10.53237687 15.95496392 8.3125 20.3125 C5.41430219 23.68067583 3.36159162 25.6064014 -1.109375 26.3515625 C-5.26517473 26.6165296 -8.11690435 26.38694361 -11.4375 23.75 C-15.3045955 19.59994629 -16.5845324 16.95623615 -16.453125 11.09765625 C-15.60988393 7.19403166 -12.9811205 4.52984996 -10 2 C-6.49011435 -0.03275231 -4.08104537 -0.48972544 0 0 Z " fill="#50B2FB" transform="translate(242,155)"/>
<path d="M0 0 C3.93011189 1.95342839 6.38377904 4.94817165 8 9 C8.24137178 13.49756077 7.55333627 17.10321363 5.1875 20.9375 C0.89791824 24.9819628 -2.83022538 25.49699127 -8.58984375 25.38671875 C-13.09637884 24.66362803 -14.80062727 21.65627663 -17.3125 18.1875 C-18.75486667 13.59815151 -18.67301011 9.51427275 -16.75 5.1875 C-12.05696273 -0.67879659 -7.20527551 -1.12615015 0 0 Z " fill="#FD5050" transform="translate(280,231)"/>
<path d="M0 0 C3.23857278 1.30921027 4.60256422 2.52033613 6.8125 5.1875 C8.38296988 8.90703394 8.60577351 12.01804883 8 16 C6.50282018 19.20824247 4.72481464 21.72932114 2 24 C-1.72400871 25.24133624 -5.13176 25.54111486 -9 25 C-12.75212276 22.98497111 -14.63644095 21.54533858 -17 18 C-17.65237324 13.62566572 -18.03401151 8.98730094 -15.94921875 4.98046875 C-11.29712713 -0.65967773 -6.89290883 -0.59796528 0 0 Z " fill="#FCC730" transform="translate(208,202)"/>
<path d="M0 0 C3.96 0 7.92 0 12 0 C12.0989211 4.21746325 12.17149012 8.43431121 12.21972656 12.65258789 C12.23983525 14.08727786 12.26712673 15.52188593 12.30175781 16.95629883 C12.3503146 19.01924839 12.37297406 21.08111431 12.390625 23.14453125 C12.41157227 24.38565674 12.43251953 25.62678223 12.45410156 26.90551758 C12 30 12 30 10.13574219 31.9362793 C8 33 8 33 5.4375 32.875 C2.70729589 31.89492673 1.7091282 31.327408 0 29 C-0.34057617 25.99731445 -0.34057617 25.99731445 -0.29296875 22.36328125 C-0.2784668 20.41518555 -0.2784668 20.41518555 -0.26367188 18.42773438 C-0.23860585 17.05598361 -0.21321101 15.68423882 -0.1875 14.3125 C-0.1724502 12.92905076 -0.1587623 11.54558599 -0.14648438 10.16210938 C-0.11107223 6.77434793 -0.06168054 3.38736861 0 0 Z " fill="#7C89C0" transform="translate(197,226)"/>
<path d="M0 0 C2.875 0.875 2.875 0.875 4.875 2.875 C5.10205078 5.85595703 5.10205078 5.85595703 5.0703125 9.6328125 C5.0674826 10.29586395 5.06465271 10.95891541 5.06173706 11.64205933 C5.05053435 13.76155583 5.02543051 15.88063104 5 18 C4.98997028 19.43619182 4.98084441 20.87239025 4.97265625 22.30859375 C4.950595 25.83086628 4.91606494 29.35289203 4.875 32.875 C0.915 32.875 -3.045 32.875 -7.125 32.875 C-7.2240914 28.81835053 -7.29657106 24.7621723 -7.34472656 20.70458984 C-7.36480642 19.3252332 -7.39207666 17.94596131 -7.42675781 16.56689453 C-7.47542817 14.58143021 -7.49586418 12.59533746 -7.515625 10.609375 C-7.53657227 9.41538086 -7.55751953 8.22138672 -7.57910156 6.99121094 C-7.125 3.875 -7.125 3.875 -5.29589844 1.44628906 C-3.125 -0.125 -3.125 -0.125 0 0 Z " fill="#7C89BF" transform="translate(204.125,170.125)"/>
</svg>
