<?xml version="1.0" encoding="UTF-8"?>
<svg version="1.1" xmlns="http://www.w3.org/2000/svg" width="512" height="512">
<path d="M0 0 C1.57673241 -0.00929787 1.57673241 -0.00929787 3.18531799 -0.01878357 C5.39640381 -0.02585069 7.60754318 -0.02276247 9.81860352 -0.01000977 C13.178905 0.00385467 16.53641735 -0.03026338 19.89648438 -0.06835938 C22.05599026 -0.06931077 24.21549958 -0.06745064 26.375 -0.0625 C27.36696884 -0.07575821 28.35893768 -0.08901642 29.38096619 -0.10267639 C36.38399588 -0.01040493 41.96382616 1.50708887 47.75390625 5.56640625 C55.04684294 13.7844507 56.06471424 22.61420559 56.01953125 33.20703125 C56.0214447 34.2104657 56.02335815 35.21390015 56.02532959 36.2477417 C56.02668471 38.36226656 56.0230355 40.47679993 56.01464844 42.59130859 C56.00398475 45.79283811 56.01454361 48.99380076 56.02734375 52.1953125 C56.04852319 78.34770467 56.04852319 78.34770467 50.87890625 88.00390625 C50.38648437 88.95136719 49.8940625 89.89882813 49.38671875 90.875 C47.70707341 93.64360201 45.83265533 96.08720551 43.75390625 98.56640625 C44.38296875 98.76234375 45.01203125 98.95828125 45.66015625 99.16015625 C46.51609375 99.45921875 47.37203125 99.75828125 48.25390625 100.06640625 C49.08921875 100.34484375 49.92453125 100.62328125 50.78515625 100.91015625 C58.28054986 105.0917969 63.36610489 112.37835511 68.25390625 119.25390625 C69.46193871 120.92303631 70.67164165 122.59095835 71.8828125 124.2578125 C72.82278076 125.55356201 72.82278076 125.55356201 73.78173828 126.87548828 C77.19080689 131.5269805 80.69016331 136.10911365 84.19140625 140.69140625 C84.84109375 141.54307373 85.49078125 142.39474121 86.16015625 143.2722168 C87.10181641 144.50452026 87.10181641 144.50452026 88.0625 145.76171875 C88.6694873 146.55610352 89.27647461 147.35048828 89.90185547 148.16894531 C91.18243009 149.82663616 92.47667361 151.47382475 93.78173828 153.11230469 C94.42353027 153.91958008 95.06532227 154.72685547 95.7265625 155.55859375 C96.30801025 156.28159668 96.88945801 157.00459961 97.48852539 157.74951172 C98.75390625 159.56640625 98.75390625 159.56640625 98.75390625 161.56640625 C101.51423836 162.33830412 104.0170824 162.70831205 106.87988281 162.77172852 C107.68041077 162.79167374 108.48093872 162.81161896 109.3057251 162.83216858 C110.58718414 162.85723732 110.58718414 162.85723732 111.89453125 162.8828125 C112.77671326 162.9035936 113.65889526 162.92437469 114.56781006 162.94578552 C117.37976456 163.01105492 120.1918107 163.07006072 123.00390625 163.12890625 C124.91276981 163.17211298 126.82162418 163.21572796 128.73046875 163.25976562 C133.40485451 163.36671312 138.07933227 163.4680441 142.75390625 163.56640625 C142.73725166 162.74740845 142.73725166 162.74740845 142.72026062 161.91186523 C142.60917893 156.2013392 142.53403831 150.4911227 142.47924805 144.77978516 C142.45418736 142.65172854 142.42012934 140.52375728 142.37670898 138.39599609 C142.31568536 135.32758462 142.28761151 132.2603163 142.265625 129.19140625 C142.23981857 128.24837646 142.21401215 127.30534668 142.18742371 126.33374023 C142.18391806 117.9762772 145.35688239 113.23067843 150.69140625 107.06640625 C157.51326921 100.54309309 171.1344399 91.56640625 180.75390625 91.56640625 C180.48835937 91.07011719 180.2228125 90.57382812 179.94921875 90.0625 C179.41941406 89.04349609 179.41941406 89.04349609 178.87890625 88.00390625 C178.35683594 87.01197266 178.35683594 87.01197266 177.82421875 86 C174.50913078 78.46240947 174.44698255 71.60020898 174.453125 63.44140625 C174.44883987 62.18054199 174.44455475 60.91967773 174.44013977 59.62060547 C174.43440989 56.9611201 174.43294526 54.3020246 174.43823242 51.64257812 C174.44403121 48.24998151 174.42707097 44.85793011 174.40388775 41.46542358 C174.38554135 38.2074223 174.38933688 34.94944984 174.390625 31.69140625 C174.38141525 30.48081543 174.37220551 29.27022461 174.36271667 28.02294922 C174.40856856 19.6452133 175.35412148 13.81101865 181.00390625 7.31640625 C181.5453125 6.671875 182.08671875 6.02734375 182.64453125 5.36328125 C189.65020312 -0.60451331 197.58254855 0.12395766 206.33203125 0.16796875 C207.74973703 0.16594537 209.1674418 0.16303173 210.58514404 0.15927124 C213.54384352 0.15486603 216.50226993 0.16122411 219.4609375 0.17529297 C223.25301263 0.19244706 227.0444536 0.18249369 230.83650589 0.16457558 C233.75845128 0.15374208 236.68024584 0.1571809 239.60219574 0.16495895 C241.00084254 0.16695894 242.39950307 0.16450873 243.79813385 0.15752029 C245.74855794 0.14990701 247.69903018 0.16356739 249.64941406 0.17822266 C251.31318085 0.18180283 251.31318085 0.18180283 253.01055908 0.18545532 C255.75390625 0.56640625 255.75390625 0.56640625 257.61018372 1.66246033 C259.35547438 4.56783199 259.14344246 7.04857902 259.15795898 10.41772461 C259.16825386 11.45748444 259.16825386 11.45748444 259.17875671 12.51824951 C259.19708186 14.81445733 259.19317491 17.10998455 259.1875 19.40625 C259.19206344 21.00989503 259.19736949 22.6135381 259.2033844 24.21717834 C259.21232992 27.58570265 259.20988123 30.95399016 259.19995117 34.32250977 C259.18853753 38.60939132 259.20854709 42.89543978 259.23786831 47.18221188 C259.25636241 50.49999582 259.2559105 53.81758575 259.25023079 57.1354084 C259.25007876 58.71363037 259.25602377 60.2918665 259.26852226 61.87003899 C259.34038697 72.44480189 258.8118834 82.47944052 252.75390625 91.56640625 C253.74970703 91.69982422 253.74970703 91.69982422 254.765625 91.8359375 C258.66701973 92.78961177 261.99652543 94.44206348 265.56640625 96.25390625 C266.27982178 96.61548828 266.9932373 96.97707031 267.72827148 97.34960938 C276.55775792 101.91327761 284.97562695 107.57624732 289.83203125 116.56103516 C291.17527211 120.94008574 290.99940546 125.12589233 290.94921875 129.6796875 C290.94497391 131.13401436 290.94497391 131.13401436 290.94064331 132.61772156 C290.92947616 135.7049103 290.90437777 138.79180564 290.87890625 141.87890625 C290.86887198 143.97590726 290.85974691 146.07291283 290.8515625 148.16992188 C290.82954813 153.30219585 290.79504196 158.43425135 290.75390625 163.56640625 C296.37742039 163.44807655 302.00076073 163.3238223 307.62402344 163.1940918 C309.53674771 163.15079768 311.44950925 163.10911869 313.36230469 163.0690918 C316.11274443 163.01125545 318.86299753 162.94759949 321.61328125 162.8828125 C322.46758728 162.86610001 323.32189331 162.84938751 324.2020874 162.83216858 C325.00261536 162.81222336 325.80314331 162.79227814 326.62792969 162.77172852 C327.32964294 162.75618423 328.0313562 162.74063995 328.7543335 162.72462463 C330.87433514 162.55687718 332.73438358 162.23666168 334.75390625 161.56640625 C335.88596453 159.73638975 335.88596453 159.73638975 336.75390625 157.56640625 C337.69492603 156.20252315 338.66925117 154.86127977 339.66796875 153.5390625 C340.25642578 152.75700439 340.84488281 151.97494629 341.45117188 151.16918945 C342.08732422 150.330896 342.72347656 149.49260254 343.37890625 148.62890625 C344.03826172 147.75516357 344.69761719 146.8814209 345.37695312 145.98120117 C347.49845988 143.17310405 349.62542042 140.36921634 351.75390625 137.56640625 C352.8227002 136.1577832 352.8227002 136.1577832 353.91308594 134.72070312 C358.51428848 128.65976541 363.12249706 122.60429965 367.75390625 116.56640625 C368.38176025 115.74366211 369.00961426 114.92091797 369.65649414 114.07324219 C370.2674292 113.27821289 370.87836426 112.48318359 371.5078125 111.6640625 C372.04994385 110.95644775 372.5920752 110.24883301 373.15063477 109.51977539 C377.89574415 103.73850233 382.66264595 100.80575161 389.75390625 98.56640625 C389.19123047 97.90898437 389.19123047 97.90898437 388.6171875 97.23828125 C379.3322479 85.73150472 377.60212445 73.87303603 377.5859375 59.56640625 C377.5826091 58.53128906 377.5792807 57.49617188 377.57585144 56.4296875 C377.57081155 54.25130657 377.5684422 52.072918 377.56860352 49.89453125 C377.56641304 46.57669317 377.5482149 43.25918582 377.52929688 39.94140625 C377.52636307 37.81640738 377.52437819 35.69140694 377.5234375 33.56640625 C377.51625198 32.58285156 377.50906647 31.59929687 377.50166321 30.5859375 C377.53354233 20.90219741 379.1726299 12.98629471 385.75390625 5.56640625 C392.62882618 0.72623662 399.16519157 -0.1696828 407.38671875 -0.0625 C409.00173782 -0.06611794 409.00173782 -0.06611794 410.64938354 -0.06980896 C412.91001087 -0.06883548 415.17066354 -0.05556231 417.43115234 -0.03051758 C420.87680448 0.00388526 424.31990042 -0.0099113 427.765625 -0.02929688 C429.97266708 -0.02239981 432.1797026 -0.01272869 434.38671875 0 C435.40774689 -0.00495987 436.42877502 -0.00991974 437.48074341 -0.01502991 C444.77988606 0.10436367 449.97851731 1.45115408 455.7421875 6.20703125 C456.17917969 6.738125 456.61617188 7.26921875 457.06640625 7.81640625 C457.74123047 8.59757813 457.74123047 8.59757813 458.4296875 9.39453125 C462.91496164 16.75091008 463.20954404 23.50426383 463.1875 31.921875 C463.19274185 33.10050613 463.1979837 34.27913727 463.2033844 35.4934845 C463.20978772 37.98043025 463.2084896 40.46740636 463.19995117 42.9543457 C463.19147197 46.72468197 463.22017982 50.49348613 463.25195312 54.26367188 C463.25356632 56.6914058 463.25298535 59.11914237 463.25 61.546875 C463.26123398 62.65773972 463.27246796 63.76860443 463.28404236 64.91313171 C463.17528228 77.36869965 459.88885762 89.1831387 451.0703125 98.30859375 C450.63589844 98.72367187 450.20148438 99.13875 449.75390625 99.56640625 C450.39457031 99.78554688 451.03523438 100.0046875 451.6953125 100.23046875 C460.31618948 103.39102872 466.17639584 107.42860996 470.75390625 115.56640625 C472.34391024 119.68136182 473.008869 123.11547484 473.03479004 127.51780701 C473.04621033 128.68550629 473.05763062 129.85320557 473.06939697 131.05628967 C473.07163269 132.32347336 473.07386841 133.59065704 473.07617188 134.89624023 C473.08543873 136.25521375 473.09548945 137.61418212 473.10626221 138.97314453 C473.13240576 142.65289211 473.14537846 146.3325669 473.15428352 150.01239276 C473.16015941 152.31373802 473.1683715 154.61506367 473.17729187 156.916399 C473.2046087 164.12399365 473.22396048 171.33154314 473.23169565 178.53918594 C473.24066195 186.84688604 473.27579356 195.15392881 473.33369684 203.46142906 C473.37696346 209.89304233 473.39710577 216.32447081 473.39977789 222.75622803 C473.40187087 226.59356109 473.41361789 230.43027485 473.44941711 234.26745415 C473.48243995 237.87683528 473.48666271 241.4851335 473.4691391 245.09461212 C473.466871 247.04348646 473.4942578 248.99232535 473.52264404 250.94099426 C473.43145169 260.52435407 473.43145169 260.52435407 469.83435059 264.84510803 C465.75183328 268.84553411 462.30047855 268.71259725 456.78114796 268.70621395 C455.52468217 268.71064109 455.52468217 268.71064109 454.24283323 268.71515766 C451.40535376 268.7238948 448.56791483 268.72543347 445.73042297 268.72703552 C443.68778374 268.73176334 441.64514544 268.73691382 439.60250825 268.74245316 C433.96536278 268.75639846 428.32822379 268.7639539 422.69106543 268.77042615 C417.86194194 268.77678572 413.03282916 268.78685739 408.20371232 268.79698681 C392.2905432 268.83035161 376.37736843 268.85187949 360.46417668 268.87018666 C356.3225912 268.87495326 352.18100602 268.87996213 348.03942084 268.88499188 C322.34002602 268.91603645 296.64062862 268.94265937 270.94122028 268.95941067 C264.98530892 268.96334803 259.0293976 268.96735984 253.07348633 268.97143555 C251.96354499 268.97218805 251.96354499 268.97218805 250.8311806 268.97295575 C226.83652698 268.98937613 202.8419753 269.02783518 178.84737183 269.07872265 C154.18758904 269.13092564 129.52786054 269.16372252 104.86802137 269.1709882 C101.38616261 269.17201683 97.90430395 269.17325315 94.4224453 269.17460823 C93.73716762 269.17486627 93.05188994 269.17512431 92.34584628 269.17539016 C81.31015791 269.18008816 70.27460372 269.20503552 59.2389656 269.23735966 C48.14901191 269.26936958 37.05917607 269.27888065 25.96917305 269.26692771 C19.95916467 269.26108568 13.94957774 269.26507378 7.93963242 269.29509735 C2.44026992 269.32234671 -3.05836944 269.32204638 -8.55774722 269.2995869 C-10.54973406 269.29634942 -12.54176834 269.30331646 -14.53367587 269.32138412 C-17.23804629 269.34443178 -19.93981696 269.33060416 -22.64412975 269.30748653 C-23.4209243 269.32296277 -24.19771885 269.338439 -24.99805263 269.35438421 C-30.33932113 269.25332445 -33.0425513 267.69360206 -36.9196003 264.04816515 C-39.52312654 261.13989737 -39.37720047 258.91178136 -39.39326477 255.10948181 C-39.40042007 253.95017151 -39.40757538 252.79086121 -39.41494751 251.59642029 C-39.41763641 250.31799759 -39.42032532 249.03957489 -39.4230957 247.72241211 C-39.4293599 246.36727728 -39.43600666 245.01214416 -39.44300842 243.65701294 C-39.46406603 239.19843749 -39.47441611 234.73986166 -39.484375 230.28125 C-39.48842268 228.74543299 -39.49253961 227.20961616 -39.49672508 225.67379951 C-39.51578478 218.45444282 -39.5300111 211.23509638 -39.53833705 204.01571935 C-39.54809642 195.69118452 -39.57437839 187.36691651 -39.61483794 179.04247564 C-39.64505216 172.60412912 -39.65981116 166.16585881 -39.66311806 159.7274428 C-39.66546361 155.88453469 -39.67435806 152.04191135 -39.69957924 148.19907951 C-39.72295654 144.5784447 -39.72705491 140.95828015 -39.71681786 137.33758926 C-39.71609075 135.38671577 -39.73511658 133.43586565 -39.75488281 131.48509216 C-39.69808366 121.84068657 -37.674394 114.37374412 -31.09375 107.13671875 C-26.81093716 103.49678056 -21.53580877 101.32964459 -16.24609375 99.56640625 C-17.13296875 98.61765625 -18.01984375 97.66890625 -18.93359375 96.69140625 C-27.95395732 86.11433691 -29.5579338 74.62031007 -29.546875 61.15625 C-29.55116013 59.98937149 -29.55544525 58.82249298 -29.55986023 57.62025452 C-29.56557719 55.16538133 -29.56612334 52.71049121 -29.56176758 50.25561523 C-29.55860052 46.51191279 -29.58212558 42.76899602 -29.60742188 39.02539062 C-29.6096945 36.63151141 -29.61039853 34.23763008 -29.609375 31.84375 C-29.61858475 30.73208969 -29.62779449 29.62042938 -29.63728333 28.4750824 C-29.58619137 19.85037152 -28.26283118 12.66468742 -22.1006012 6.22825623 C-15.73717745 0.5259035 -8.18521834 -0.04084295 0 0 Z M65.75390625 192.56640625 C65.75390625 197.51640625 65.75390625 202.46640625 65.75390625 207.56640625 C71.03390625 207.56640625 76.31390625 207.56640625 81.75390625 207.56640625 C80.43390625 206.57640625 79.11390625 205.58640625 77.75390625 204.56640625 C73.05975453 200.97088578 70.09771984 197.43882034 66.75390625 192.56640625 C66.42390625 192.56640625 66.09390625 192.56640625 65.75390625 192.56640625 Z M366.75390625 192.56640625 C365.52654409 194.13503496 364.3224729 195.7219118 363.12890625 197.31640625 C359.67020641 201.72406345 356.81892726 204.24493829 351.75390625 206.56640625 C351.75390625 206.89640625 351.75390625 207.22640625 351.75390625 207.56640625 C357.03390625 207.56640625 362.31390625 207.56640625 367.75390625 207.56640625 C367.75390625 202.61640625 367.75390625 197.66640625 367.75390625 192.56640625 C367.42390625 192.56640625 367.09390625 192.56640625 366.75390625 192.56640625 Z " fill="#CCF39E" transform="translate(39.24609375,235.43359375)"/>
<path d="M0 0 C0.74309542 -0.00367669 1.48619083 -0.00735338 2.25180429 -0.01114148 C4.73724814 -0.02213819 7.22265013 -0.02601535 9.70811462 -0.02983093 C11.49231599 -0.03609871 13.27651607 -0.04274579 15.06071472 -0.04974365 C20.91704912 -0.07075237 26.77338368 -0.08114434 32.62974548 -0.09111023 C34.64933727 -0.09515924 36.66892892 -0.0992762 38.68852043 -0.10346031 C48.17977142 -0.12250644 57.67101467 -0.13673764 67.1622811 -0.14507228 C78.10045041 -0.15483725 89.03841697 -0.18113991 99.97651488 -0.22157317 C108.44212767 -0.25178739 116.90768253 -0.26654626 125.37334818 -0.26985329 C130.42409072 -0.27219806 135.47461651 -0.28108354 140.52530098 -0.30631447 C145.28190568 -0.32969262 150.03815241 -0.33378943 154.7947998 -0.32355309 C156.53295016 -0.32305995 158.27111872 -0.3293143 160.0092144 -0.34310913 C173.29565407 -0.44259209 185.35349906 0.60611673 195.53208923 10.14717102 C205.2780956 19.79311572 208.56932765 29.82362922 208.72740173 43.47138977 C208.7143483 45.59257284 208.69085826 47.7137166 208.65708923 49.83467102 C208.6480658 50.92972961 208.63904236 52.02478821 208.62974548 53.1530304 C208.60647077 55.81798456 208.57378058 58.48245236 208.53208923 61.14717102 C209.62512061 61.14302295 209.62512061 61.14302295 210.74023342 61.13879108 C228.49360933 61.07245768 246.24696041 61.02285468 264.00043392 60.9917345 C272.58598222 60.97628393 281.17144765 60.95522913 289.75694275 60.92085266 C297.24248915 60.89089477 304.72797551 60.87158286 312.21358019 60.86490554 C316.17496301 60.86100407 320.13617412 60.85187309 324.09750175 60.82998085 C327.83130258 60.80951455 331.56486209 60.80335754 335.29871368 60.80784798 C337.31162098 60.806638 339.32450241 60.79054921 341.33734131 60.77391052 C353.7503729 60.81602258 361.97123658 63.58631837 370.78208923 72.39717102 C377.39316763 82.7860085 377.10810368 92.69534827 377.02818298 104.61982727 C377.02833822 106.51211604 377.02983121 108.40440513 377.03259277 110.29669189 C377.03397174 114.24805385 377.02150206 118.1990506 376.99864197 122.15034485 C376.97023948 127.19611244 376.9730068 132.24127493 376.98573208 137.28708744 C376.99271102 141.18977968 376.98487505 145.09233387 376.97247505 148.99500847 C376.96798344 150.8548015 376.96760356 152.71460947 376.97154045 154.57440376 C376.97447504 157.17977549 376.9578402 159.78433415 376.93614197 162.38960266 C376.94289444 163.52374603 376.94289444 163.52374603 376.94978333 164.68080139 C376.83602664 172.96780552 374.40394778 181.10176 368.53208923 187.14717102 C361.72380013 192.51953006 356.29152873 195.28379672 347.53208923 195.14717102 C347.53994446 196.48678894 347.53994446 196.48678894 347.54795837 197.85346985 C347.56500709 201.1689061 347.57754271 204.48429572 347.58702087 207.79975891 C347.59204765 209.2343367 347.59887003 210.66890938 347.60752869 212.10346985 C347.61966675 214.16622684 347.6253341 216.22891606 347.62974548 218.29170227 C347.63760071 220.1533905 347.63760071 220.1533905 347.64561462 222.0526886 C347.53208923 225.14717102 347.53208923 225.14717102 346.53208923 228.14717102 C343.34963989 228.07243347 343.34963989 228.07243347 339.53208923 227.14717102 C337.54887117 224.88455749 336.05325292 222.84683217 334.45127869 220.3429718 C325.96502885 208.55524565 316.35862534 197.33171641 301.48954773 194.45661926 C293.25924863 193.34193202 285.05674696 193.07691288 276.76255798 193.07685852 C276.04205466 193.07653153 275.32155133 193.07620455 274.57921457 193.07586765 C265.58779383 193.09562405 256.61165257 193.37626297 247.62885392 193.75167203 C237.63946921 194.16399251 227.6449619 194.33320967 217.64907551 194.50807381 C216.16357067 194.53441942 214.67806746 194.56085641 213.19256592 194.58738708 C212.10406632 194.60643418 212.10406632 194.60643418 210.99357682 194.62586606 C206.72488451 194.70573061 202.46034501 194.82902735 198.19409883 194.9937675 C196.18600205 195.06952951 194.17744111 195.13265064 192.16889954 195.19552612 C189.73594124 195.27210846 187.3034749 195.36811721 184.87228394 195.4883728 C175.91734617 195.73127294 169.58490015 193.56954468 162.71958923 187.77217102 C157.01982985 180.93245976 153.35745665 175.45032495 153.53208923 166.14717102 C138.70227963 165.52327758 123.87559928 165.09390488 109.03421021 164.88033295 C102.1373908 164.77680846 95.25210446 164.61489465 88.3611908 164.30586243 C52.94220661 161.7359984 52.94220661 161.7359984 22.35961914 176.61884308 C16.80393098 182.07587162 11.75722512 188.05264729 7.30735779 194.44589233 C5.95567322 196.36286926 5.95567322 196.36286926 3.53208923 199.14717102 C1.42100911 198.88090165 0.05852349 198.67360528 -1.46791077 197.14717102 C-1.55582052 194.85565685 -1.57485115 192.56144578 -1.56556702 190.26826477 C-1.56415207 189.58160233 -1.56273712 188.89493988 -1.5612793 188.18746948 C-1.55566556 185.98649301 -1.54311084 183.78561693 -1.53041077 181.58467102 C-1.52539753 180.09574019 -1.52083432 178.60680778 -1.51673889 177.11787415 C-1.5056917 173.46094027 -1.4884179 169.80406544 -1.46791077 166.14717102 C-2.33891418 166.03325012 -3.2099176 165.91932922 -4.10731506 165.80195618 C-5.26142883 165.6400177 -6.4155426 165.47807922 -7.60462952 165.31123352 C-8.74375793 165.15606262 -9.88288635 165.00089172 -11.05653381 164.84101868 C-20.09171057 163.00333369 -27.92633023 157.43108255 -33.46791077 150.14717102 C-37.27958957 143.67231052 -40.57069096 137.48769903 -40.61508179 129.87458801 C-40.62223709 129.02818756 -40.6293924 128.18178711 -40.63676453 127.30973816 C-40.63945343 126.38919647 -40.64214233 125.46865479 -40.64491272 124.5202179 C-40.65148392 123.5440451 -40.65805511 122.56787231 -40.66482544 121.56211853 C-40.6845407 118.33005187 -40.69621972 115.09803174 -40.70619202 111.86592102 C-40.71026754 110.75924576 -40.71434307 109.6525705 -40.7185421 108.51235962 C-40.73939943 102.6500721 -40.75370029 96.78780793 -40.76307678 90.92549133 C-40.77411535 84.8911417 -40.80848705 78.85716343 -40.84824848 72.82294464 C-40.87449002 68.16612599 -40.88277552 63.50939462 -40.88635826 58.85250854 C-40.89120798 56.6295319 -40.90277548 54.40655873 -40.92139626 52.18365479 C-41.04061834 37.0025235 -41.08310092 24.38662449 -30.67884827 12.33857727 C-22.04057409 3.77661294 -12.03171288 -0.00321807 0 0 Z " fill="#EBF3FE" transform="translate(44.46791076660156,7.8528289794921875)"/>
<path d="M0 0 C1.57673241 -0.00929787 1.57673241 -0.00929787 3.18531799 -0.01878357 C5.39640381 -0.02585069 7.60754318 -0.02276247 9.81860352 -0.01000977 C13.178905 0.00385467 16.53641735 -0.03026338 19.89648438 -0.06835938 C22.05599026 -0.06931077 24.21549958 -0.06745064 26.375 -0.0625 C27.36696884 -0.07575821 28.35893768 -0.08901642 29.38096619 -0.10267639 C36.38399588 -0.01040493 41.96382616 1.50708887 47.75390625 5.56640625 C55.04684294 13.7844507 56.06471424 22.61420559 56.01953125 33.20703125 C56.0214447 34.2104657 56.02335815 35.21390015 56.02532959 36.2477417 C56.02668471 38.36226656 56.0230355 40.47679993 56.01464844 42.59130859 C56.00398475 45.79283811 56.01454361 48.99380076 56.02734375 52.1953125 C56.04852319 78.34770467 56.04852319 78.34770467 50.87890625 88.00390625 C50.38648437 88.95136719 49.8940625 89.89882813 49.38671875 90.875 C47.70707341 93.64360201 45.83265533 96.08720551 43.75390625 98.56640625 C44.38296875 98.76234375 45.01203125 98.95828125 45.66015625 99.16015625 C46.51609375 99.45921875 47.37203125 99.75828125 48.25390625 100.06640625 C49.08921875 100.34484375 49.92453125 100.62328125 50.78515625 100.91015625 C58.28054986 105.0917969 63.36610489 112.37835511 68.25390625 119.25390625 C69.46193871 120.92303631 70.67164165 122.59095835 71.8828125 124.2578125 C72.82278076 125.55356201 72.82278076 125.55356201 73.78173828 126.87548828 C77.19080689 131.5269805 80.69016331 136.10911365 84.19140625 140.69140625 C84.84109375 141.54307373 85.49078125 142.39474121 86.16015625 143.2722168 C87.10181641 144.50452026 87.10181641 144.50452026 88.0625 145.76171875 C88.6694873 146.55610352 89.27647461 147.35048828 89.90185547 148.16894531 C91.18243009 149.82663616 92.47667361 151.47382475 93.78173828 153.11230469 C94.42353027 153.91958008 95.06532227 154.72685547 95.7265625 155.55859375 C96.30801025 156.28159668 96.88945801 157.00459961 97.48852539 157.74951172 C98.75390625 159.56640625 98.75390625 159.56640625 98.75390625 161.56640625 C101.90146296 162.49112565 104.73114101 162.69586854 108.00634766 162.70825195 C109.05488922 162.71528641 110.10343079 162.72232086 111.18374634 162.72956848 C112.87749893 162.7358149 112.87749893 162.7358149 114.60546875 162.7421875 C117.00782118 162.76539389 119.41016495 162.78951155 121.8125 162.81445312 C125.59104138 162.84948953 129.36926554 162.8788719 133.14794922 162.89233398 C136.80084537 162.90788739 140.45281892 162.94815308 144.10546875 162.9921875 C145.22249176 162.99027908 146.33951477 162.98837067 147.49038696 162.98640442 C155.53776862 163.11072715 162.78156115 164.36433961 169.19140625 169.53125 C174.0163747 175.62277266 176.30990368 179.96102114 176.1328125 187.87109375 C175.26846506 194.01954458 172.31749861 199.54983089 167.62890625 203.62890625 C164.75390625 205.56640625 164.75390625 205.56640625 161.75390625 206.56640625 C229.73390625 206.89640625 297.71390625 207.22640625 367.75390625 207.56640625 C367.75390625 227.69640625 367.75390625 247.82640625 367.75390625 268.56640625 C317.04285068 268.70199443 266.33183854 268.80943681 215.62063771 268.87279823 C209.63617028 268.88030263 203.65170321 268.88806855 197.66723633 268.89599609 C196.47581721 268.89756996 195.28439809 268.89914382 194.05687536 268.90076537 C174.75573273 268.92688606 155.45469713 268.97420061 136.15361803 269.02932303 C116.35464364 269.08539656 96.55572537 269.11875142 76.75667483 269.13093722 C64.53573156 269.13917733 52.31509079 269.16521959 40.09424061 269.21390505 C31.71834973 269.24557685 23.34261564 269.25521678 14.96666919 269.24741451 C10.13128314 269.24356461 5.29642633 269.24954031 0.46113396 269.2816391 C-3.96510887 269.31080829 -8.39046591 269.31233171 -12.81674927 269.29179962 C-14.4184961 269.28926157 -16.02029789 269.29689909 -17.62193633 269.31570534 C-31.08283445 269.46457956 -31.08283445 269.46457956 -35.68292904 265.64631081 C-38.93209821 262.17767566 -39.37331123 259.83233448 -39.39326477 255.10948181 C-39.40042007 253.95017151 -39.40757538 252.79086121 -39.41494751 251.59642029 C-39.41763641 250.31799759 -39.42032532 249.03957489 -39.4230957 247.72241211 C-39.4293599 246.36727728 -39.43600666 245.01214416 -39.44300842 243.65701294 C-39.46406603 239.19843749 -39.47441611 234.73986166 -39.484375 230.28125 C-39.48842268 228.74543299 -39.49253961 227.20961616 -39.49672508 225.67379951 C-39.51578478 218.45444282 -39.5300111 211.23509638 -39.53833705 204.01571935 C-39.54809642 195.69118452 -39.57437839 187.36691651 -39.61483794 179.04247564 C-39.64505216 172.60412912 -39.65981116 166.16585881 -39.66311806 159.7274428 C-39.66546361 155.88453469 -39.67435806 152.04191135 -39.69957924 148.19907951 C-39.72295654 144.5784447 -39.72705491 140.95828015 -39.71681786 137.33758926 C-39.71609075 135.38671577 -39.73511658 133.43586565 -39.75488281 131.48509216 C-39.69808366 121.84068657 -37.674394 114.37374412 -31.09375 107.13671875 C-26.81093716 103.49678056 -21.53580877 101.32964459 -16.24609375 99.56640625 C-17.13296875 98.61765625 -18.01984375 97.66890625 -18.93359375 96.69140625 C-27.95395732 86.11433691 -29.5579338 74.62031007 -29.546875 61.15625 C-29.55116013 59.98937149 -29.55544525 58.82249298 -29.55986023 57.62025452 C-29.56557719 55.16538133 -29.56612334 52.71049121 -29.56176758 50.25561523 C-29.55860052 46.51191279 -29.58212558 42.76899602 -29.60742188 39.02539062 C-29.6096945 36.63151141 -29.61039853 34.23763008 -29.609375 31.84375 C-29.61858475 30.73208969 -29.62779449 29.62042938 -29.63728333 28.4750824 C-29.58619137 19.85037152 -28.26283118 12.66468742 -22.1006012 6.22825623 C-15.73717745 0.5259035 -8.18521834 -0.04084295 0 0 Z M65.75390625 192.56640625 C65.75390625 197.51640625 65.75390625 202.46640625 65.75390625 207.56640625 C71.03390625 207.56640625 76.31390625 207.56640625 81.75390625 207.56640625 C80.43390625 206.57640625 79.11390625 205.58640625 77.75390625 204.56640625 C73.05975453 200.97088578 70.09771984 197.43882034 66.75390625 192.56640625 C66.42390625 192.56640625 66.09390625 192.56640625 65.75390625 192.56640625 Z " fill="#FE6978" transform="translate(39.24609375,235.43359375)"/>
<path d="M0 0 C0.74662325 -0.00226556 1.49324649 -0.00453111 2.26249468 -0.00686532 C4.75961717 -0.01318595 7.25668511 -0.01237721 9.7538147 -0.0115509 C11.54612803 -0.01454359 13.33844072 -0.01794637 15.13075256 -0.02172852 C19.99647724 -0.03056127 24.86218432 -0.03290632 29.72791624 -0.0335443 C32.76846849 -0.03425518 35.80901627 -0.03639022 38.84956741 -0.03904152 C49.45876601 -0.04829233 60.06795204 -0.05237671 70.67715454 -0.05158997 C80.56383039 -0.05098914 90.45045169 -0.06154255 100.33711374 -0.07733363 C108.82812678 -0.09041191 117.31912199 -0.09577374 125.81014502 -0.09513456 C130.88021807 -0.09487967 135.95024262 -0.09772597 141.02030563 -0.10831261 C145.78913177 -0.11799847 150.55786309 -0.11806939 155.32669258 -0.11079597 C157.07499518 -0.10975076 158.82330369 -0.11210925 160.57159615 -0.11815643 C162.96214852 -0.12588834 165.35237444 -0.12122372 167.74291992 -0.11352539 C168.43116297 -0.11866895 169.11940602 -0.12381252 169.82850492 -0.12911195 C174.43145632 -0.09646111 178.16664473 0.719296 182.4984436 2.13371277 C182.59136408 15.74708886 182.66232049 29.36038876 182.70569229 42.9740181 C182.72651474 49.2962443 182.75473488 55.61825258 182.80020142 61.94035339 C182.84384944 68.04822159 182.86762084 74.15588093 182.87795258 80.26389313 C182.88530996 82.58735692 182.89967677 84.91081004 182.92136383 87.23418427 C183.17782433 115.86304986 183.17782433 115.86304986 172.76797485 127.87590027 C162.66632851 137.92538665 152.52073195 140.51328374 138.68275452 140.51808167 C136.97442473 140.50906145 135.26609649 140.49974372 133.55776978 140.49015808 C131.74029441 140.49094981 129.92281922 140.49304968 128.10534668 140.49635315 C123.19039699 140.5014683 118.27565819 140.48799132 113.36074233 140.47082615 C108.21233762 140.4557493 103.06393518 140.45696328 97.91551208 140.4561615 C89.27653418 140.45247457 80.637636 140.437533 71.99868774 140.41496277 C60.90700631 140.38604368 49.81538887 140.37573417 38.72367382 140.37128067 C29.18437805 140.3673026 19.6450962 140.35480453 10.1058104 140.3409338 C7.03971466 140.3368355 3.9736194 140.33390963 0.9075222 140.33113861 C-3.90483755 140.32624698 -8.71715848 140.31604584 -13.52949905 140.30170059 C-15.29679832 140.29717735 -17.0641028 140.29433887 -18.83140755 140.293293 C-21.24023907 140.29154746 -23.64897346 140.28366515 -26.05778503 140.27415466 C-27.11083752 140.27545439 -27.11083752 140.27545439 -28.1851638 140.27678037 C-31.43601625 140.25747582 -34.39173933 140.12905242 -37.5015564 139.13371277 C-37.9965564 140.12371277 -37.9965564 140.12371277 -38.5015564 141.13371277 C-40.46828002 135.37074737 -40.79812482 130.22981424 -40.79208374 124.16618347 C-40.79880096 123.1895726 -40.80551819 122.21296173 -40.81243896 121.20675659 C-40.83137348 117.99095004 -40.83534118 114.77535279 -40.8374939 111.55949402 C-40.84392601 109.31138017 -40.85065468 107.06326715 -40.85766602 104.81515503 C-40.86962818 100.10532187 -40.87334803 95.39556199 -40.87216187 90.68571472 C-40.87195898 84.67496423 -40.89923483 78.66468814 -40.93370628 72.65404987 C-40.95603735 68.0100899 -40.95999747 63.36624287 -40.95894241 58.72223473 C-40.96129003 56.50764014 -40.97006582 54.29304204 -40.98560715 52.07850075 C-41.08189464 36.93818701 -41.08647221 24.33810878 -30.7124939 12.32511902 C-22.06318687 3.75221929 -12.04744301 -0.02693312 0 0 Z " fill="#EBF3FE" transform="translate(44.501556396484375,7.8662872314453125)"/>
<path d="M0 0 C1.41770578 -0.00202338 2.83541055 -0.00493702 4.25311279 -0.00869751 C7.21181227 -0.01310272 10.17023868 -0.00674464 13.12890625 0.00732422 C16.92098138 0.02447831 20.71242235 0.01452494 24.50447464 -0.00339317 C27.42642003 -0.01422667 30.34821459 -0.01078785 33.27016449 -0.0030098 C34.66881129 -0.00100981 36.06747182 -0.00346002 37.4661026 -0.01044846 C39.41652669 -0.01806174 41.36699893 -0.00440136 43.31738281 0.01025391 C44.9811496 0.01383408 44.9811496 0.01383408 46.67852783 0.01748657 C49.421875 0.3984375 49.421875 0.3984375 51.27815247 1.49449158 C53.02344313 4.39986324 52.81141121 6.88061027 52.82592773 10.24975586 C52.83279099 10.94292908 52.83965424 11.63610229 52.84672546 12.35028076 C52.86505061 14.64648858 52.86114366 16.9420158 52.85546875 19.23828125 C52.86003219 20.84192628 52.86533824 22.44556935 52.87135315 24.04920959 C52.88029867 27.4177339 52.87784998 30.78602141 52.86791992 34.15454102 C52.85650628 38.44142257 52.87651584 42.72747103 52.90583706 47.01424313 C52.92433116 50.33202707 52.92387925 53.649617 52.91819954 56.96743965 C52.91804751 58.54566162 52.92399252 60.12389775 52.93649101 61.70207024 C53.00835572 72.27683314 52.47985215 82.31147177 46.421875 91.3984375 C47.41767578 91.53185547 47.41767578 91.53185547 48.43359375 91.66796875 C52.33498848 92.62164302 55.66449418 94.27409473 59.234375 96.0859375 C59.94779053 96.44751953 60.66120605 96.80910156 61.39624023 97.18164062 C70.22572667 101.74530886 78.6435957 107.40827857 83.5 116.39306641 C84.84324086 120.77211699 84.66737421 124.95792358 84.6171875 129.51171875 C84.6143576 130.48126999 84.61152771 131.45082123 84.60861206 132.44975281 C84.59744491 135.53694155 84.57234652 138.62383689 84.546875 141.7109375 C84.53684073 143.80793851 84.52771566 145.90494408 84.51953125 148.00195312 C84.49751688 153.1342271 84.46301071 158.2662826 84.421875 163.3984375 C82.89554443 163.46865112 82.89554443 163.46865112 81.33837891 163.5402832 C79.98337189 163.61360609 78.62839275 163.68744537 77.2734375 163.76171875 C76.60513916 163.79108521 75.93684082 163.82045166 75.24829102 163.85070801 C67.74760199 164.28423407 61.47929356 166.74172946 56.421875 172.3984375 C52.47376425 178.32060362 51.4377534 183.32506348 52.421875 190.3984375 C54.74556333 197.55622744 58.0087588 201.59807234 64.421875 205.3984375 C65.411875 206.0584375 66.401875 206.7184375 67.421875 207.3984375 C29.801875 207.3984375 -7.818125 207.3984375 -46.578125 207.3984375 C-44.578125 205.3984375 -44.578125 205.3984375 -41.203125 203.6484375 C-37.46778707 201.55944394 -35.660348 199.17728666 -33.578125 195.3984375 C-32.959375 194.2846875 -32.959375 194.2846875 -32.328125 193.1484375 C-30.74893437 187.35807184 -30.6942614 181.60543743 -33.203125 176.0859375 C-36.41885396 170.50900896 -41.00447631 167.06097815 -47.09179688 164.95019531 C-50.34426608 164.22841797 -53.53575657 164.02900482 -56.859375 163.8203125 C-58.11814453 163.7387793 -59.37691406 163.65724609 -60.67382812 163.57324219 C-62.11145508 163.48671387 -62.11145508 163.48671387 -63.578125 163.3984375 C-63.7054645 157.1364527 -63.79270081 150.87480482 -63.8527832 144.61181641 C-63.87784389 142.48375979 -63.91190191 140.35578853 -63.95532227 138.22802734 C-64.01634589 135.15961587 -64.04441974 132.09234755 -64.06640625 129.0234375 C-64.09221268 128.08040771 -64.1180191 127.13737793 -64.14460754 126.16577148 C-64.14811319 117.80830845 -60.97514886 113.06270968 -55.640625 106.8984375 C-48.81876204 100.37512434 -35.19759135 91.3984375 -25.578125 91.3984375 C-25.84367187 90.90214844 -26.10921875 90.40585937 -26.3828125 89.89453125 C-26.73601562 89.21519531 -27.08921875 88.53585937 -27.453125 87.8359375 C-27.80117187 87.17464844 -28.14921875 86.51335937 -28.5078125 85.83203125 C-31.82290047 78.29444072 -31.8850487 71.43224023 -31.87890625 63.2734375 C-31.88319138 62.01257324 -31.8874765 60.75170898 -31.89189148 59.45263672 C-31.89762136 56.79315135 -31.89908599 54.13405585 -31.89379883 51.47460938 C-31.88800004 48.08201276 -31.90496028 44.68996136 -31.9281435 41.29745483 C-31.9464899 38.03945355 -31.94269437 34.78148109 -31.94140625 31.5234375 C-31.950616 30.31284668 -31.95982574 29.10225586 -31.96931458 27.85498047 C-31.92346269 19.47724455 -30.97790977 13.6430499 -25.328125 7.1484375 C-24.51601562 6.18164062 -24.51601562 6.18164062 -23.6875 5.1953125 C-16.68182813 -0.77248206 -8.7494827 -0.04401109 0 0 Z " fill="#EBD1FE" transform="translate(245.578125,235.6015625)"/>
<path d="M0 0 C0.99 0 1.98 0 3 0 C4.4987793 1.56958008 4.4987793 1.56958008 6.07421875 3.76953125 C6.65606934 4.5702002 7.23791992 5.37086914 7.83740234 6.19580078 C8.75320068 7.49106689 8.75320068 7.49106689 9.6875 8.8125 C10.94303459 10.57751747 12.1995393 12.34184527 13.45703125 14.10546875 C14.06369629 14.95802246 14.67036133 15.81057617 15.29541016 16.68896484 C16.69583295 18.58761883 18.12500813 20.36030743 19.69921875 22.11328125 C24.5591622 27.72359298 25.44156983 31.63385781 25.1953125 38.8359375 C25.18121338 39.62250732 25.16711426 40.40907715 25.15258789 41.21948242 C25.11600545 43.14664562 25.05996402 45.07342257 25 47 C25.93364946 46.98650041 26.86729893 46.97300081 27.8292408 46.95909214 C91.36369184 46.04931004 154.87110031 45.97665943 218.40998197 46.37335551 C230.30528904 46.4473006 242.20064207 46.51207375 254.09600425 46.57643402 C278.39739829 46.70810485 302.69870344 46.85135688 327 47 C327 67.13 327 87.26 327 108 C219.09 108 111.18 108 0 108 C0 72.36 0 36.72 0 0 Z " fill="#D09080" transform="translate(80,396)"/>
<path d="M0 0 C8.73083792 1.30669139 13.87895605 6.26156405 19.4609375 12.9140625 C23.58988695 18.51015135 26.11215272 24.29133052 26.14044189 31.28604126 C26.14615204 32.13533203 26.15186218 32.9846228 26.15774536 33.85964966 C26.15942215 35.24517532 26.15942215 35.24517532 26.16113281 36.65869141 C26.16609772 37.63807678 26.17106262 38.61746216 26.17617798 39.62652588 C26.19078745 42.86821191 26.19760068 46.10984895 26.203125 49.3515625 C26.20887878 51.60875449 26.21463649 53.86594646 26.22039795 56.12313843 C26.2309054 60.85927559 26.23674931 65.59539579 26.24023438 70.33154297 C26.24570929 76.3839573 26.26971711 82.43614556 26.29820633 88.48848915 C26.31688491 93.15380494 26.32204116 97.81906694 26.32357025 102.48441696 C26.32658705 104.71461595 26.33458252 106.94481422 26.34775543 109.17497635 C26.36491999 112.30513633 26.36290988 115.43475272 26.35644531 118.56494141 C26.3656601 119.4764798 26.37487488 120.38801819 26.3843689 121.32717896 C26.31250299 132.50499128 22.68183361 142.59547702 15.21875 151.0078125 C1.57452505 163.92509104 -16.71495146 163.28955588 -34.31170654 162.90457153 C-39.94270207 162.7407937 -45.57167418 162.52304005 -51.20109177 162.3128376 C-58.90003472 162.05563465 -66.60274929 161.94190945 -74.30476952 161.81529331 C-81.00247911 161.7001607 -87.68747476 161.52159369 -94.37939453 161.21362305 C-129.13100086 158.69995583 -129.13100086 158.69995583 -159.07182503 173.46709728 C-164.63943396 178.93363881 -169.70513226 184.90972483 -174.18960953 191.29712486 C-175.55459595 193.21470642 -175.55459595 193.21470642 -178 196 C-180.11173669 195.73388421 -181.47321043 195.52678957 -183 194 C-183.08790975 191.70848583 -183.10694038 189.41427476 -183.09765625 187.12109375 C-183.0962413 186.4344313 -183.09482635 185.74776886 -183.09336853 185.04029846 C-183.08775479 182.83932199 -183.07520007 180.63844591 -183.0625 178.4375 C-183.05748676 176.94856917 -183.05292355 175.45963676 -183.04882812 173.97070312 C-183.03778093 170.31376925 -183.02050713 166.65689442 -183 163 C-183.87100342 162.8860791 -184.74200684 162.7721582 -185.6394043 162.65478516 C-186.79351807 162.49284668 -187.94763184 162.3309082 -189.13671875 162.1640625 C-190.27584717 162.0088916 -191.41497559 161.8537207 -192.58862305 161.69384766 C-202.52864152 159.67212487 -210.55976342 153.20123692 -216.37890625 145.07421875 C-218.41769303 141.75675037 -219 139.96659885 -219 136 C-217.55412648 136.00553076 -217.55412648 136.00553076 -216.07904339 136.01117325 C-192.60017057 136.10006141 -169.12131963 136.16574568 -145.64231396 136.20724869 C-134.28793029 136.22785388 -122.93365792 136.25593547 -111.5793457 136.30175781 C-101.68029701 136.34168806 -91.78132896 136.36744766 -81.88220197 136.37635398 C-76.64305309 136.38155822 -71.40413484 136.3937476 -66.16506004 136.42292023 C-61.22797372 136.45018707 -56.29121179 136.45842227 -51.35405731 136.45243073 C-49.54775794 136.45352593 -47.74144706 136.46141238 -45.93521309 136.4768219 C-33.05980036 136.58122428 -22.3622946 135.69339815 -12.0703125 127.04296875 C-4.40945929 119.48329662 -0.01391067 110.64473675 0.36076355 99.81124878 C0.36932065 97.94953143 0.36180421 96.08769021 0.34057617 94.22607422 C0.34101425 93.20048904 0.34145233 92.17490387 0.34190369 91.11824036 C0.33983108 87.76352197 0.31657233 84.40931746 0.29296875 81.0546875 C0.28736737 78.7148567 0.28309983 76.37502236 0.28010559 74.03518677 C0.2686996 67.90313859 0.23926903 61.77130656 0.20599365 55.63934326 C0.17520103 49.37157108 0.16158065 43.10376367 0.14648438 36.8359375 C0.11439521 24.55719716 0.06325044 12.27861662 0 0 Z " fill="#DDEAFB" transform="translate(226,11)"/>
<path d="M0 0 C9.31872649 2.2305683 16.46193065 5.77201125 22 14 C27.39499383 23.16790058 26.56488372 33.20892498 26.49609375 43.47265625 C26.49624898 45.36494502 26.49774197 47.25723411 26.50050354 49.14952087 C26.5018825 53.10088283 26.48941282 57.05187958 26.46655273 61.00317383 C26.43815025 66.04894142 26.44091756 71.09410391 26.45364285 76.13991642 C26.46062178 80.04260866 26.45278582 83.94516285 26.44038582 87.84783745 C26.43589421 89.70763048 26.43551432 91.56743845 26.43945122 93.42723274 C26.44238581 96.03260447 26.42575097 98.63716313 26.40405273 101.24243164 C26.41080521 102.37657501 26.41080521 102.37657501 26.41769409 103.53363037 C26.3039374 111.8206345 23.87185855 119.95458898 18 126 C11.1917109 131.37235904 5.7594395 134.1366257 -3 134 C-2.99476318 134.89307861 -2.98952637 135.78615723 -2.98413086 136.70629883 C-2.96708214 140.02173508 -2.95454653 143.3371247 -2.94506836 146.65258789 C-2.94004158 148.08716568 -2.93321921 149.52173836 -2.92456055 150.95629883 C-2.91242248 153.01905582 -2.90675514 155.08174504 -2.90234375 157.14453125 C-2.89710693 158.38565674 -2.89187012 159.62678223 -2.88647461 160.90551758 C-3 164 -3 164 -4 167 C-7.18244934 166.92526245 -7.18244934 166.92526245 -11 166 C-12.98321806 163.73738647 -14.47883631 161.69966115 -16.08081055 159.19580078 C-24.56706039 147.40807463 -34.17346389 136.18454539 -49.0425415 133.30944824 C-57.2728406 132.194761 -65.47534227 131.92974186 -73.76953125 131.9296875 C-74.49003458 131.92936051 -75.2105379 131.92903353 -75.95287466 131.92869663 C-84.94429541 131.94845303 -93.92043666 132.22909195 -102.90323532 132.60450101 C-112.89262002 133.01682149 -122.88712734 133.18603865 -132.88301373 133.36090279 C-134.36851856 133.3872484 -135.85402178 133.41368539 -137.33952332 133.44021606 C-138.42802292 133.45926315 -138.42802292 133.45926315 -139.53851241 133.47869503 C-143.80720472 133.55855959 -148.07174423 133.68185633 -152.3379904 133.84659648 C-154.34608718 133.92235849 -156.35464813 133.98547962 -158.3631897 134.0483551 C-160.79614799 134.12493744 -163.22861433 134.22094619 -165.6598053 134.34120178 C-174.61474306 134.58410192 -180.94718909 132.42237366 -187.8125 126.625 C-188.534375 125.75875 -189.25625 124.8925 -190 124 C-190.45246094 123.47535156 -190.90492188 122.95070313 -191.37109375 122.41015625 C-194.96171653 117.92442071 -195.35961625 114.67212384 -196 109 C-195.12369777 108.99853344 -194.24739553 108.99706688 -193.34453869 108.99555588 C-171.99355962 108.95845735 -150.64273891 108.89940218 -129.29188824 108.81609726 C-118.96664364 108.77633712 -108.64147493 108.74392925 -98.31616211 108.72900391 C-89.3135682 108.71597172 -80.31114147 108.68896704 -71.30864173 108.64538693 C-66.54462171 108.62280739 -61.78080763 108.60708721 -57.01672935 108.60811615 C-52.52603972 108.60886484 -48.03580471 108.59083067 -43.54523277 108.55883217 C-41.90345333 108.55036347 -40.26162271 108.54856251 -38.61983109 108.55419731 C-28.11651261 108.58542426 -16.53508694 108.38975409 -8.34375 100.74609375 C-1.7586661 92.18931322 0.16509546 83.43804698 0.11352539 72.88330078 C0.11374443 71.69692772 0.11374443 71.69692772 0.1139679 70.48658752 C0.11327489 67.88946731 0.10551129 65.29242009 0.09765625 62.6953125 C0.0957899 60.8878483 0.09436702 59.08038359 0.09336853 57.2729187 C0.08956049 52.52842804 0.07974488 47.78396826 0.06866455 43.03948975 C0.05841355 38.19299741 0.05386302 33.34650006 0.04882812 28.5 C0.03812102 18.99998647 0.02106525 9.49999581 0 0 Z " fill="#DDEAFB" transform="translate(395,69)"/>
<path d="M0 0 C1.41770578 -0.00202338 2.83541055 -0.00493702 4.25311279 -0.00869751 C7.21181227 -0.01310272 10.17023868 -0.00674464 13.12890625 0.00732422 C16.92098138 0.02447831 20.71242235 0.01452494 24.50447464 -0.00339317 C27.42642003 -0.01422667 30.34821459 -0.01078785 33.27016449 -0.0030098 C34.66881129 -0.00100981 36.06747182 -0.00346002 37.4661026 -0.01044846 C39.41652669 -0.01806174 41.36699893 -0.00440136 43.31738281 0.01025391 C44.9811496 0.01383408 44.9811496 0.01383408 46.67852783 0.01748657 C49.421875 0.3984375 49.421875 0.3984375 51.27815247 1.49449158 C53.02344313 4.39986324 52.81141121 6.88061027 52.82592773 10.24975586 C52.83279099 10.94292908 52.83965424 11.63610229 52.84672546 12.35028076 C52.86505061 14.64648858 52.86114366 16.9420158 52.85546875 19.23828125 C52.86003219 20.84192628 52.86533824 22.44556935 52.87135315 24.04920959 C52.88029867 27.4177339 52.87784998 30.78602141 52.86791992 34.15454102 C52.85650628 38.44142257 52.87651584 42.72747103 52.90583706 47.01424313 C52.92433116 50.33202707 52.92387925 53.649617 52.91819954 56.96743965 C52.91804751 58.54566162 52.92399252 60.12389775 52.93649101 61.70207024 C53.02945198 75.38110994 51.2052324 86.33677355 41.921875 96.91796875 C33.00724002 105.76295815 23.30552186 110.47950831 10.734375 110.6484375 C-1.19437004 110.52392033 -9.74782843 106.84849734 -18.453125 98.7109375 C-19.505 97.56625 -19.505 97.56625 -20.578125 96.3984375 C-21.17625 95.8415625 -21.774375 95.2846875 -22.390625 94.7109375 C-23.578125 93.3984375 -23.578125 93.3984375 -23.578125 91.3984375 C-24.238125 91.3984375 -24.898125 91.3984375 -25.578125 91.3984375 C-26.21121691 90.21523174 -26.83409218 89.02655902 -27.453125 87.8359375 C-27.97519531 86.84400391 -27.97519531 86.84400391 -28.5078125 85.83203125 C-31.82290047 78.29444072 -31.8850487 71.43224023 -31.87890625 63.2734375 C-31.88319138 62.01257324 -31.8874765 60.75170898 -31.89189148 59.45263672 C-31.89762136 56.79315135 -31.89908599 54.13405585 -31.89379883 51.47460938 C-31.88800004 48.08201276 -31.90496028 44.68996136 -31.9281435 41.29745483 C-31.9464899 38.03945355 -31.94269437 34.78148109 -31.94140625 31.5234375 C-31.950616 30.31284668 -31.95982574 29.10225586 -31.96931458 27.85498047 C-31.92346269 19.47724455 -30.97790977 13.6430499 -25.328125 7.1484375 C-24.78671875 6.50390625 -24.2453125 5.859375 -23.6875 5.1953125 C-16.68182813 -0.77248206 -8.7494827 -0.04401109 0 0 Z " fill="#FECABD" transform="translate(245.578125,235.6015625)"/>
<path d="M0 0 C1.57673241 -0.00929787 1.57673241 -0.00929787 3.18531799 -0.01878357 C5.39640381 -0.02585069 7.60754318 -0.02276247 9.81860352 -0.01000977 C13.178905 0.00385467 16.53641735 -0.03026338 19.89648438 -0.06835938 C22.05599026 -0.06931077 24.21549958 -0.06745064 26.375 -0.0625 C27.36696884 -0.07575821 28.35893768 -0.08901642 29.38096619 -0.10267639 C36.38399588 -0.01040493 41.96382616 1.50708887 47.75390625 5.56640625 C54.75433184 13.45483462 56.0950265 21.85888077 55.87890625 32.06640625 C55.86988281 32.88882813 55.86085938 33.71125 55.8515625 34.55859375 C55.8282749 36.56132708 55.79241584 38.56390779 55.75390625 40.56640625 C43.25330645 43.82799726 34.38797239 41.87761036 22.75390625 36.56640625 C22.60695313 37.69175781 22.60695313 37.69175781 22.45703125 38.83984375 C20.84534258 49.87157479 17.91460386 60.83493138 8.8359375 68.1015625 C0.71574046 73.4888499 -7.66039678 74.49020917 -17.24609375 73.56640625 C-19.33075473 73.08462922 -21.40906341 72.5748714 -23.48168945 72.04370117 C-24.56142532 71.76854172 -25.64116119 71.49338226 -26.75361633 71.20988464 C-27.57613388 70.99753677 -28.39865143 70.7851889 -29.24609375 70.56640625 C-29.32241752 63.44977724 -29.37480844 56.33325456 -29.41088867 49.21630859 C-29.42593654 46.79732315 -29.44637963 44.37836482 -29.47241211 41.95947266 C-29.50897075 38.47421562 -29.52586065 34.98932065 -29.5390625 31.50390625 C-29.56228828 29.89249756 -29.56228828 29.89249756 -29.58598328 28.24853516 C-29.58788068 19.70365908 -28.19948322 12.59852066 -22.1006012 6.22825623 C-15.73717745 0.5259035 -8.18521834 -0.04084295 0 0 Z " fill="#D09080" transform="translate(39.24609375,235.43359375)"/>
<path d="M0 0 C0.97498947 -0.01283524 1.94997894 -0.02567047 2.95451355 -0.03889465 C4.53417656 -0.04997505 4.53417656 -0.04997505 6.14575195 -0.0612793 C7.23233597 -0.06935104 8.31891998 -0.07742279 9.43843079 -0.08573914 C11.74083868 -0.09957692 14.04326707 -0.11030044 16.34570312 -0.11816406 C19.85302071 -0.13534612 23.35938815 -0.17923273 26.86645508 -0.22338867 C29.10538045 -0.23351856 31.34431383 -0.24203373 33.58325195 -0.2487793 C34.62623947 -0.26628738 35.66922699 -0.28379547 36.74382019 -0.30183411 C44.16329092 -0.27992529 49.32428281 0.98182481 55.18481445 5.81762695 C55.62180664 6.3487207 56.05879883 6.87981445 56.5090332 7.42700195 C56.95891602 7.9477832 57.40879883 8.46856445 57.87231445 9.00512695 C62.30614566 16.2771333 62.6093423 22.79995913 62.48950195 31.11450195 C62.48525711 32.23518066 62.48101227 33.35585938 62.47663879 34.51049805 C62.45993631 38.06625069 62.42229888 41.62142255 62.3840332 45.17700195 C62.36897551 47.59756665 62.35528901 50.01814028 62.34301758 52.4387207 C62.3100604 58.35167703 62.25994523 64.26429798 62.1965332 70.17700195 C49.7213991 73.24178689 37.92171257 75.97159307 26.1965332 69.17700195 C17.01215988 62.889606 13.78658519 54.69056825 11.1965332 44.17700195 C10.76292808 41.83803584 10.45381613 39.54400485 10.1965332 37.17700195 C6.54561501 37.80080992 3.37067832 38.84281118 -0.0534668 40.23950195 C-8.07748236 43.20536792 -13.68961252 42.62683718 -21.8034668 40.17700195 C-21.98002692 36.38593912 -22.08506356 32.5959524 -22.1784668 28.80200195 C-22.22874023 27.74110352 -22.27901367 26.68020508 -22.33081055 25.5871582 C-22.4754271 17.729659 -20.89829832 12.26939232 -15.8034668 6.17700195 C-10.88763396 2.24455667 -6.35427595 0.07295187 0 0 Z " fill="#487B9D" transform="translate(439.803466796875,235.822998046875)"/>
<path d="M0 0 C7.56096296 2.67702488 13.35407357 7.83107969 17.26171875 14.80078125 C18.83765103 18.91742525 19.51669752 22.35257047 19.54260254 26.75218201 C19.55973297 28.50373093 19.55973297 28.50373093 19.57720947 30.29066467 C19.57944519 31.55784836 19.58168091 32.82503204 19.58398438 34.13061523 C19.59325123 35.48958875 19.60330195 36.84855712 19.61407471 38.20751953 C19.64021826 41.88726711 19.65319096 45.5669419 19.66209602 49.24676776 C19.66797191 51.54811302 19.676184 53.84943867 19.68510437 56.150774 C19.7124212 63.35836865 19.73177298 70.56591814 19.73950815 77.77356094 C19.74847445 86.08126104 19.78360606 94.38830381 19.84150934 102.69580406 C19.88477596 109.12741733 19.90491827 115.55884581 19.90759039 121.99060303 C19.90968337 125.82793609 19.92143039 129.66464985 19.95722961 133.50182915 C19.99025245 137.11121028 19.99447521 140.7195085 19.9769516 144.32898712 C19.9746835 146.27786146 20.0020703 148.22670035 20.03045654 150.17536926 C19.93926419 159.75872907 19.93926419 159.75872907 16.34216309 164.07948303 C12.67465271 167.67324713 10.27143131 167.92232196 5.16015625 167.8984375 C3.9484375 167.89521484 2.73671875 167.89199219 1.48828125 167.88867188 C0.21726562 167.88029297 -1.05375 167.87191406 -2.36328125 167.86328125 C-3.64203125 167.85876953 -4.92078125 167.85425781 -6.23828125 167.84960938 C-9.40499417 167.83779328 -12.57161481 167.8213194 -15.73828125 167.80078125 C-15.12339844 167.34832031 -14.50851562 166.89585937 -13.875 166.4296875 C-10.99627622 164.2351211 -8.37184258 162.06790392 -6.73828125 158.80078125 C-6.6386276 157.03461456 -6.60319787 155.26468004 -6.59783936 153.49571228 C-6.59212921 152.37005859 -6.58641907 151.24440491 -6.58053589 150.0846405 C-6.57941803 148.84362076 -6.57830017 147.60260101 -6.57714844 146.32397461 C-6.57218353 145.02140717 -6.56721863 143.71883972 -6.56210327 142.37680054 C-6.54896704 138.79585088 -6.54253113 135.21491999 -6.53809261 131.63395 C-6.53516189 129.39493161 -6.53105692 127.15591835 -6.52658844 124.91690254 C-6.51290595 117.90684563 -6.50324482 110.89680043 -6.49938655 103.88673109 C-6.49491358 95.8044849 -6.47740439 87.72240849 -6.44838595 79.64021391 C-6.42672324 73.38870111 -6.41667971 67.13723589 -6.41534543 60.88568598 C-6.41430003 57.15461457 -6.40844992 53.42370258 -6.39052582 49.69267082 C-6.37088501 45.52279364 -6.37535233 41.35326805 -6.38183594 37.18334961 C-6.36801376 35.34307442 -6.36801376 35.34307442 -6.35391235 33.46562195 C-6.39751689 24.49759671 -7.63234886 17.1490866 -12.92578125 9.73828125 C-13.45558594 8.98417969 -13.98539062 8.23007812 -14.53125 7.453125 C-14.92957031 6.90785156 -15.32789063 6.36257813 -15.73828125 5.80078125 C-10.68997104 1.68336512 -6.6711945 -1.33889593 0 0 Z " fill="#B3E59E" transform="translate(492.73828125,336.19921875)"/>
<path d="M0 0 C0.33 0 0.66 0 1 0 C1 5.94 1 11.88 1 18 C10.5011558 19.35730797 16.4772228 19.6211328 25.421875 15.97265625 C27.95961829 15.01523492 30.31431756 14.37092467 33 14 C34.86844183 15.86844183 34.83289602 18.99212666 35.3125 21.5 C37.23337261 30.59644002 39.82837425 38.69617371 47 45 C55.55385135 50.43285153 64.76655867 51.198625 74.7109375 49.55078125 C76.17977981 49.20675008 77.64358054 48.83939425 79.09765625 48.4375 C81 48 81 48 85 48 C84.46881595 58.62368104 80.9416975 68.13559044 73.5078125 75.89453125 C63.32637404 84.44249905 52.2180917 88.5941396 38.9140625 88.37109375 C27.59263678 87.29770508 16.58264515 81.44330294 9.125 72.8359375 C1.1388041 61.53547031 -0.16653343 50.17916461 -0.09765625 36.71875 C-0.0962413 35.66465942 -0.09482635 34.61056885 -0.09336853 33.52453613 C-0.08780508 30.18299429 -0.07525941 26.84152133 -0.0625 23.5 C-0.05748027 21.22395931 -0.0529182 18.94791755 -0.04882812 16.671875 C-0.03784764 11.11456013 -0.02114622 5.55728499 0 0 Z " fill="#D7A495" transform="translate(417,258)"/>
<path d="M0 0 C4.3479182 0.65877548 7.97417319 2.27464565 12 4 C18.95029727 5.96034025 25.97413717 4.92503523 33 4 C33.050211 7.91027835 33.08609395 11.82042656 33.10986328 15.73095703 C33.12462224 17.69961157 33.15006161 19.6681769 33.17578125 21.63671875 C33.25155568 36.56428091 31.10698287 47.75228308 22.8125 60.3125 C12.39117575 70.27065428 0.82260327 74.42144268 -13.37109375 74.2734375 C-24.0905181 73.46573061 -35.09772718 67.5789672 -42.375 59.6875 C-48.44072909 51.79854598 -50.87127034 43.80478598 -52 34 C-51.28457031 34.144375 -50.56914063 34.28875 -49.83203125 34.4375 C-37.25953838 36.7795944 -26.29701701 37.39253842 -14.8125 31.3125 C-7.03538265 24.91798129 -4.47600927 17.58263202 -2 8 C-1.773125 7.13761719 -1.54625 6.27523438 -1.3125 5.38671875 C-0.8545478 3.59625285 -0.42328851 1.79897615 0 0 Z " fill="#FECABD" transform="translate(62,272)"/>
<path d="M0 0 C1.41770578 -0.00202338 2.83541055 -0.00493702 4.25311279 -0.00869751 C7.21181227 -0.01310272 10.17023868 -0.00674464 13.12890625 0.00732422 C16.92098138 0.02447831 20.71242235 0.01452494 24.50447464 -0.00339317 C27.42642003 -0.01422667 30.34821459 -0.01078785 33.27016449 -0.0030098 C34.66881129 -0.00100981 36.06747182 -0.00346002 37.4661026 -0.01044846 C39.41652669 -0.01806174 41.36699893 -0.00440136 43.31738281 0.01025391 C44.9811496 0.01383408 44.9811496 0.01383408 46.67852783 0.01748657 C49.421875 0.3984375 49.421875 0.3984375 52.421875 3.3984375 C52.421875 14.6184375 52.421875 25.8384375 52.421875 37.3984375 C24.701875 37.3984375 -3.018125 37.3984375 -31.578125 37.3984375 C-31.578125 14.33301694 -31.578125 14.33301694 -25.328125 7.1484375 C-24.78671875 6.50390625 -24.2453125 5.859375 -23.6875 5.1953125 C-16.68182813 -0.77248206 -8.7494827 -0.04401109 0 0 Z " fill="#FEE4A0" transform="translate(245.578125,235.6015625)"/>
<path d="M0 0 C0.99 0 1.98 0 3 0 C4.4987793 1.56958008 4.4987793 1.56958008 6.07421875 3.76953125 C6.66009766 4.57712891 7.24597656 5.38472656 7.84960938 6.21679688 C8.45611328 7.07337891 9.06261719 7.92996094 9.6875 8.8125 C10.27466797 9.62654297 10.86183594 10.44058594 11.46679688 11.27929688 C12.65288545 12.92484958 13.82480224 14.58072079 14.98149109 16.24707031 C16.92035252 18.99587645 16.92035252 18.99587645 19.08760071 21.27941895 C26.46498249 29.77095215 26.05340528 37.48314637 25.78125 48.13671875 C25.7662997 49.86974964 25.75492588 51.60281471 25.74694824 53.33589172 C25.71663226 57.86261964 25.63825406 62.38724204 25.54931641 66.91314697 C25.46697565 71.54532396 25.43083464 76.17784652 25.390625 80.81054688 C25.30523224 89.87476444 25.1647092 98.93687646 25 108 C16.75 108 8.5 108 0 108 C0 72.36 0 36.72 0 0 Z " fill="#CF4351" transform="translate(80,396)"/>
<path d="M0 0 C1.26046646 -0.00990463 2.52093292 -0.01980927 3.81959534 -0.03001404 C5.21913244 -0.02577576 6.6186686 -0.02121788 8.01820374 -0.01637268 C9.48997517 -0.02207401 10.96174219 -0.02903735 12.4335022 -0.03717041 C16.43352909 -0.05514377 20.43333711 -0.05392561 24.43339229 -0.04822803 C27.77097776 -0.04514205 31.10852084 -0.05122205 34.44610029 -0.05726677 C42.31912884 -0.07132422 50.1920489 -0.06974072 58.06507874 -0.05836487 C66.19095885 -0.04688321 74.31650894 -0.06095718 82.44234556 -0.08776134 C89.41568293 -0.10990375 96.38891659 -0.11655901 103.36228663 -0.11068493 C107.52859144 -0.10731052 111.6946847 -0.10976224 115.86096001 -0.12693596 C119.77874496 -0.14237985 123.69604034 -0.1384785 127.61380577 -0.11963081 C129.05214086 -0.11593772 130.49051201 -0.11907442 131.92881393 -0.1295166 C133.89122644 -0.14267669 135.85376494 -0.1288018 137.81616211 -0.11352539 C138.91473006 -0.11331611 140.01329802 -0.11310682 141.14515591 -0.1128912 C144.65086159 0.50798516 145.82863624 1.593173 147.97157288 4.38768005 C148.69372959 8.15894291 148.35060619 9.78073625 146.3160553 13.03865051 C141.75962479 17.30461696 134.72469555 16.08014323 128.89735413 16.03465271 C127.44660851 16.04143102 125.9958715 16.05033535 124.54515076 16.061203 C120.61113728 16.08397827 116.67778014 16.0751678 112.74375534 16.05930758 C108.62477107 16.04663919 104.50584258 16.05839128 100.38685608 16.0662384 C93.47000551 16.07533227 86.55342196 16.0633541 79.63661194 16.03953552 C71.64240145 16.01232455 63.64882856 16.02113891 55.65463352 16.04866755 C48.78821388 16.07136526 41.92198607 16.07455553 35.05554104 16.0614742 C30.95571887 16.05368325 26.8561963 16.05262807 22.75639343 16.06915665 C18.90164504 16.08361203 15.04771779 16.07356142 11.19305801 16.04468536 C9.77934253 16.03808007 8.36555781 16.03996288 6.95186996 16.05099869 C-5.06144101 16.13612552 -5.06144101 16.13612552 -8.4080658 13.07380676 C-10.02842712 10.38768005 -10.02842712 10.38768005 -10.02842712 6.76268005 C-8.25267518 0.76951726 -6.09825522 0.01349321 0 0 Z " fill="#4A7DA0" transform="translate(59.02842712402344,42.61231994628906)"/>
<path d="M0 0 C1.45074562 -0.00677831 2.90148262 -0.01568264 4.35220337 -0.02655029 C8.28621684 -0.04932556 12.21957399 -0.04051509 16.15359879 -0.02465487 C20.27258306 -0.01198648 24.39151154 -0.02373857 28.51049805 -0.03158569 C35.42734862 -0.04067956 42.34393217 -0.02870139 49.26074219 -0.00488281 C57.25495268 0.02232816 65.24852557 0.0135138 73.2427206 -0.01401484 C80.10914024 -0.03671255 86.97536805 -0.03990282 93.84181309 -0.02682149 C97.94163526 -0.01903054 102.04115783 -0.01797536 106.14096069 -0.03450394 C109.99570908 -0.04895932 113.84963634 -0.03890871 117.70429611 -0.01003265 C119.1180116 -0.00342736 120.53179632 -0.00531017 121.94548416 -0.01634598 C133.96186244 -0.10149454 133.96186244 -0.10149454 137.27026367 2.9960022 C139.30481457 6.25391646 139.64793797 7.8757098 138.92578125 11.64697266 C136.78405373 14.4381002 135.60288472 15.52559626 132.10215759 16.15313053 C131.00488846 16.15593745 129.90761932 16.15874437 128.77709961 16.16163635 C127.51525848 16.17436081 126.25341736 16.18708527 124.95333862 16.20019531 C123.55743221 16.19401307 122.16152762 16.18740704 120.765625 16.18041992 C119.29370254 16.18747815 117.82178734 16.19622277 116.34988403 16.20652771 C112.35399319 16.22904134 108.35849804 16.22607773 104.3625679 16.21720624 C101.02740631 16.21209887 97.69231925 16.21938676 94.35716534 16.22667831 C86.4903227 16.2436832 78.62367401 16.24010516 70.75683594 16.22338867 C62.63824525 16.20646046 54.52019196 16.22230986 46.40165997 16.25461155 C39.43253186 16.28129056 32.46357121 16.28858825 25.49439716 16.28009647 C21.33141973 16.27516301 17.1687658 16.27740535 13.00582886 16.29788399 C9.09203213 16.31621529 5.17900985 16.31031474 1.26525497 16.28568459 C-0.17146542 16.28066872 -1.60824457 16.28418671 -3.04491806 16.29683304 C-5.00507331 16.31272315 -6.96541601 16.29481818 -8.92553711 16.27516174 C-10.02280624 16.27457543 -11.12007538 16.27398912 -12.25059509 16.27338505 C-15.07421875 15.64697266 -15.07421875 15.64697266 -17.4233551 13.26396084 C-19.30818068 10.27609065 -19.849503 9.09268046 -19.07421875 5.64697266 C-14.63031033 -1.37466151 -7.54739129 -0.05891791 0 0 Z " fill="#4A7DA0" transform="translate(68.07421875,82.35302734375)"/>
<path d="M0 0 C4.33310328 -0.116965 8.6657958 -0.1875089 13 -0.25 C14.22074219 -0.28351563 15.44148438 -0.31703125 16.69921875 -0.3515625 C25.01681608 -0.44148247 30.42303979 0.22333343 36.98828125 5.640625 C37.42527344 6.17171875 37.86226563 6.7028125 38.3125 7.25 C38.76238281 7.77078125 39.21226562 8.2915625 39.67578125 8.828125 C44.10961246 16.10013135 44.4128091 22.62295718 44.29296875 30.9375 C44.28872391 32.05817871 44.28447906 33.17885742 44.28010559 34.33349609 C44.26340311 37.88924874 44.22576568 41.44442059 44.1875 45 C44.17244231 47.42056469 44.1587558 49.84113833 44.14648438 52.26171875 C44.1135272 58.17467508 44.06341202 64.08729603 44 70 C42.10950217 70.51980955 40.21207966 71.01442698 38.3125 71.5 C37.25675781 71.7784375 36.20101562 72.056875 35.11328125 72.34375 C29.49872507 73.49946674 23.70055922 73.11621716 18 73 C17.99635437 72.31619263 17.99270874 71.63238525 17.98895264 70.92785645 C17.94703522 63.78945329 17.87762404 56.65168754 17.79248047 49.51367188 C17.76212477 46.85208389 17.74307886 44.1910998 17.72900391 41.52929688 C17.70751785 37.69618357 17.66083437 33.86406398 17.609375 30.03125 C17.60814636 28.84760864 17.60691772 27.66396729 17.60565186 26.44445801 C17.45711558 18.00353141 16.3560746 12.3560746 10.1875 6.1875 C6.82561339 3.88032291 3.79572639 2.44237603 0 1 C0 0.67 0 0.34 0 0 Z " fill="#385F7E" transform="translate(458,236)"/>
<path d="M0 0 C8.25 0 16.5 0 25 0 C25.09252083 5.33536804 25.1719428 10.66788271 25.21972656 16.00341797 C25.23967311 17.81308494 25.26684053 19.62268889 25.30175781 21.43212891 C25.58099956 36.2894323 24.72090596 47.86971574 14.5 59.51953125 C5.43365987 68.51504059 -4.28803035 73.15232507 -17.0625 73.125 C-18.27035156 73.12757813 -19.47820312 73.13015625 -20.72265625 73.1328125 C-23.36737407 73.02563681 -25.49533692 72.78700137 -28 72 C-28 71.34 -28 70.68 -28 70 C-27.02160156 69.54560547 -27.02160156 69.54560547 -26.0234375 69.08203125 C-13.93044598 63.28524328 -7.62899444 55.84085928 -2.76171875 43.45703125 C-1.06112018 37.97151073 -0.81337583 32.46251511 -0.68359375 26.7578125 C-0.66281265 25.98944061 -0.64203156 25.22106873 -0.62062073 24.42941284 C-0.55566531 21.99469233 -0.49649362 19.55987153 -0.4375 17.125 C-0.3942633 15.4661358 -0.35064743 13.80728144 -0.30664062 12.1484375 C-0.1993321 8.09905923 -0.09985888 4.04959614 0 0 Z " fill="#F7BEAF" transform="translate(273,273)"/>
<path d="M0 0 C5.25112524 0.56437327 9.24695419 2.30970804 13.875 4.6875 C14.58390381 5.04908203 15.29280762 5.41066406 16.02319336 5.78320312 C24.82307028 10.36088107 33.23254265 16.02986264 38.078125 24.99462891 C39.42136586 29.37367949 39.24549921 33.55948608 39.1953125 38.11328125 C39.1924826 39.08283249 39.18965271 40.05238373 39.18673706 41.05131531 C39.17556991 44.13850405 39.15047152 47.22539939 39.125 50.3125 C39.11496573 52.40950101 39.10584066 54.50650658 39.09765625 56.60351562 C39.07564188 61.7357896 39.04113571 66.8678451 39 72 C37.54980469 72.03867187 37.54980469 72.03867187 36.0703125 72.078125 C34.76835937 72.13484375 33.46640625 72.1915625 32.125 72.25 C30.84882813 72.29640625 29.57265625 72.3428125 28.2578125 72.390625 C23.14474966 72.85880907 18.647818 74.92608275 14 77 C13.99635437 76.43116592 13.99270874 75.86233185 13.98895264 75.27626038 C13.94693578 69.32170685 13.87745758 63.3679104 13.79248047 57.41381836 C13.76436538 55.19579667 13.74310409 52.97767654 13.72900391 50.75952148 C13.7074434 47.55922394 13.66072493 44.36009813 13.609375 41.16015625 C13.60814636 40.17854019 13.60691772 39.19692413 13.60565186 38.18556213 C13.4472925 30.63409361 11.7644407 24.57952321 7.10546875 18.546875 C6.47253906 17.95390625 5.83960938 17.3609375 5.1875 16.75 C4.50042969 16.10546875 3.81335938 15.4609375 3.10546875 14.796875 C0.19187394 12.31031914 -2.81310611 10.12459593 -6 8 C-4.02 5.36 -2.04 2.72 0 0 Z " fill="#D7BEF0" transform="translate(291,327)"/>
<path d="M0 0 C0.67401855 0.14219971 1.34803711 0.28439941 2.04248047 0.4309082 C2.93338379 0.61484131 3.82428711 0.79877441 4.7421875 0.98828125 C5.62245605 1.17173096 6.50272461 1.35518066 7.40966797 1.54418945 C12.4143126 2.4248371 17.21555931 2.1414294 22.2421875 1.48828125 C23.48226562 1.32714844 24.72234375 1.16601562 26 1 C26.050211 4.91027835 26.08609395 8.82042656 26.10986328 12.73095703 C26.12462224 14.69961157 26.15006161 16.6681769 26.17578125 18.63671875 C26.25155568 33.56428091 24.10698287 44.75228308 15.8125 57.3125 C6.53909646 66.17375227 -4.27953812 71.15234323 -17.0625 71.125 C-18.27035156 71.12757813 -19.47820313 71.13015625 -20.72265625 71.1328125 C-23.36737407 71.02563681 -25.49533692 70.78700137 -28 70 C-28 69.34 -28 68.68 -28 68 C-27.3709375 67.72027344 -26.741875 67.44054687 -26.09375 67.15234375 C-15.0654811 61.98699491 -8.01097848 55.40371786 -3.19067383 44.10253906 C-0.07931306 35.47156283 -0.43592708 26.43046277 -0.3125 17.375 C-0.27926813 15.68617238 -0.24477321 13.99736912 -0.20898438 12.30859375 C-0.12475637 8.205865 -0.05763437 4.10318497 0 0 Z " fill="#F7BDAE" transform="translate(69,275)"/>
<path d="M0 0 C8.25 0 16.5 0 25 0 C25 20.13 25 40.26 25 61 C16.75 61 8.5 61 0 61 C0 40.87 0 20.74 0 0 Z " fill="#BE694F" transform="translate(382,443)"/>
<path d="M0 0 C1.11536636 -0.01270432 1.11536636 -0.01270432 2.25326538 -0.02566528 C4.70751114 -0.04903499 7.16112998 -0.05005751 9.61547852 -0.04882812 C11.32414501 -0.05592967 13.03280911 -0.06362866 14.74147034 -0.07189941 C18.3216922 -0.08534407 21.90169355 -0.08691307 25.48193359 -0.08105469 C30.06664911 -0.07515808 34.65030584 -0.10574777 39.23481655 -0.14617157 C42.76334824 -0.17203957 46.29162467 -0.17492685 49.82023811 -0.17127991 C51.51032231 -0.17297197 53.20041818 -0.18262287 54.89040947 -0.20042419 C57.25578246 -0.22259813 59.61900843 -0.21292275 61.984375 -0.1953125 C62.68012131 -0.20857574 63.37586761 -0.22183899 64.09269714 -0.23550415 C67.92798406 -0.16926359 69.47561897 0.35422779 72.49891663 2.79821777 C74.55688477 5.41992188 74.55688477 5.41992188 75.05688477 7.98242188 C74.46420092 10.87175562 73.59776512 12.30345336 71.55688477 14.41992188 C68.07823271 15.57947256 64.93914297 15.59050844 61.3190918 15.61279297 C60.21857483 15.6250592 60.21857483 15.6250592 59.0958252 15.63757324 C56.6687908 15.66237866 54.24181461 15.678929 51.81469727 15.69335938 C50.57047312 15.70134489 50.57047312 15.70134489 49.30111313 15.70949173 C44.91225865 15.73619974 40.52343242 15.7555838 36.13452148 15.77001953 C32.50275552 15.78337041 28.87154987 15.81124674 25.23999023 15.85205078 C20.85334148 15.90133716 16.46720176 15.92613514 12.08028793 15.93324661 C10.40971189 15.93996239 8.73914734 15.95519309 7.0687294 15.97913742 C4.72970561 16.01075818 2.39264819 16.01083177 0.0534668 16.00341797 C-0.63449982 16.0198233 -1.32246643 16.03622864 -2.03128052 16.0531311 C-5.81185508 16.00414672 -7.38844358 15.46251956 -10.40774536 13.11001587 C-12.44311523 10.41992188 -12.44311523 10.41992188 -12.50561523 6.79492188 C-10.43546692 0.21915663 -6.28779402 -0.02640844 0 0 Z " fill="#487C9F" transform="translate(61.443115234375,123.580078125)"/>
<path d="M0 0 C4.29129925 -0.14677671 8.58194224 -0.23456586 12.875 -0.3125 C14.07898438 -0.35439453 15.28296875 -0.39628906 16.5234375 -0.43945312 C24.35935843 -0.54591944 30.57089074 0.24341664 37 5 C43.98312067 12.91696124 45.34152532 21.27334279 45.125 31.5 C45.11597656 32.32242188 45.10695312 33.14484375 45.09765625 33.9921875 C45.07436865 35.99492083 45.03850959 37.99750154 45 40 C37.32179661 42.0033566 31.42259125 42.87822248 23.7421875 40.48046875 C22.85128418 40.20485107 21.96038086 39.9292334 21.04248047 39.64526367 C20.03145264 39.32585815 20.03145264 39.32585815 19 39 C18.99589111 38.41621582 18.99178223 37.83243164 18.98754883 37.23095703 C19.33929705 21.66635334 19.33929705 21.66635334 13 8 C9.18435335 4.299979 5.14239744 2.37966761 0 1 C0 0.67 0 0.34 0 0 Z " fill="#BF6B51" transform="translate(50,236)"/>
<path d="M0 0 C-0.53118405 10.62368104 -4.0583025 20.13559044 -11.4921875 27.89453125 C-20.51712204 35.47154015 -30.77904768 40.31994992 -42.6875 40.1875 C-44.61142578 40.17783203 -44.61142578 40.17783203 -46.57421875 40.16796875 C-49.26521048 40.03602731 -51.45316733 39.8059597 -54 39 C-54 38.34 -54 37.68 -54 37 C-53.21496094 36.64808594 -52.42992187 36.29617188 -51.62109375 35.93359375 C-41.8667659 31.34965809 -34.67969862 25.90805156 -30 16 C-28.49161688 11.71145977 -27.19651615 7.38499773 -26 3 C-25.44014404 2.94465088 -24.88028809 2.88930176 -24.3034668 2.83227539 C-21.76444195 2.5792418 -19.225981 2.3209302 -16.6875 2.0625 C-15.80642578 1.97548828 -14.92535156 1.88847656 -14.01757812 1.79882812 C-12.74624023 1.66831055 -12.74624023 1.66831055 -11.44921875 1.53515625 C-10.66893311 1.456604 -9.88864746 1.37805176 -9.0847168 1.29711914 C-5.78093514 0.82625578 -3.45436315 0 0 0 Z " fill="#CF9180" transform="translate(502,306)"/>
<path d="M0 0 C4.27070558 -0.08692074 8.54118458 -0.14036515 12.8125 -0.1875 C14.63491211 -0.22520508 14.63491211 -0.22520508 16.49414062 -0.26367188 C18.23920898 -0.27817383 18.23920898 -0.27817383 20.01953125 -0.29296875 C21.09307861 -0.3086792 22.16662598 -0.32438965 23.27270508 -0.34057617 C26 0 26 0 27.85546875 1.03515625 C29.65200117 4.11930576 29.36664431 7.2654174 29.29296875 10.73046875 C29.28872391 11.48088943 29.28447906 12.23131012 29.28010559 13.00447083 C29.2633245 15.39918026 29.2256749 17.79304534 29.1875 20.1875 C29.17245235 21.8118368 29.15876409 23.4361868 29.14648438 25.06054688 C29.1159754 29.04095086 29.05725767 33.01953139 29 37 C20.75 37 12.5 37 4 37 C3.96261719 34.66421875 3.92523438 32.3284375 3.88671875 29.921875 C3.84048059 27.65469098 3.78925548 25.38767058 3.73754883 23.12060547 C3.70433628 21.54746478 3.67629283 19.97420599 3.65356445 18.40087891 C3.61994972 16.13653328 3.56763376 13.87326635 3.51171875 11.609375 C3.50213387 10.55759064 3.50213387 10.55759064 3.49235535 9.48455811 C3.36969605 5.39233693 2.87379966 2.98420175 0 0 Z " fill="#F2CE7E" transform="translate(269,236)"/>
<path d="M0 0 C0.66 0.33 1.32 0.66 2 1 C-0.97 3.97 -3.94 6.94 -7 10 C-7 5.69032084 -4.83274712 4.10253255 -2 1 C-1.34 0.67 -0.68 0.34 0 0 Z " fill="#DB9D8D" transform="translate(21,239)"/>
<path d="M0 0 C2.9719385 1.12451727 5.33440687 2.22293791 8 4 C5.36 4 2.72 4 0 4 C0 2.68 0 1.36 0 0 Z " fill="#D6C0EC" transform="translate(305,439)"/>
</svg>
