<?xml version="1.0" encoding="UTF-8"?>
<svg version="1.1" xmlns="http://www.w3.org/2000/svg" width="512" height="512">
<path d="M0 0 C0.66 0 1.32 0 2 0 C4.14132334 4.23328993 6.2774277 8.4691561 8.40869141 12.70751953 C9.13479257 14.14965065 9.86232665 15.59106122 10.59130859 17.03173828 C11.63754818 19.10001872 12.67864446 21.170817 13.71875 23.2421875 C14.04685669 23.88807831 14.37496338 24.53396912 14.7130127 25.19943237 C17 29.77225659 17 29.77225659 17 32 C17.82177734 32.06586304 17.82177734 32.06586304 18.66015625 32.13305664 C25.83911807 32.77434805 32.9310237 33.80240697 40.02246094 35.08959961 C41.99160793 35.43602362 43.96862366 35.73669181 45.9453125 36.03710938 C55.73978834 37.83276328 60.76310904 41.33449413 67 49 C68.11652954 50.30795532 68.11652954 50.30795532 69.25561523 51.64233398 C71.11634428 53.84199862 72.91451219 56.0818682 74.69384766 58.34765625 C76.12773092 60.16158558 77.58531205 61.95512758 79.04296875 63.75 C99.37597566 89.05123942 115.87617691 116.82814391 130 146 C130.1285822 139.47539334 130.02608767 133.2316779 128.8125 126.8125 C128.6786792 126.09328369 128.5448584 125.37406738 128.40698242 124.63305664 C126.0659993 112.69599898 122.3342914 101.87165058 116.59106445 91.13842773 C114 86.27668255 114 86.27668255 114 83 C116.14775034 81.45704199 118.21834754 80.1240944 120.5 78.8125 C121.12003906 78.44447266 121.74007812 78.07644531 122.37890625 77.69726562 C123.9134788 76.7883265 125.4560256 75.8928753 127 75 C141.08471584 87.73159904 146.3670865 114.95944602 148 133 C148.27855518 138.64770632 148.37069598 144.28353842 148.375 149.9375 C148.37799103 150.96932907 148.37799103 150.96932907 148.38104248 152.02200317 C148.3782001 160.66994672 147.75843019 169.06376654 146.42431641 177.59985352 C145.70830172 183.33744649 145.86075887 188.33834149 147.3125 193.93359375 C147.58320313 194.99384766 147.85390625 196.05410156 148.1328125 197.14648438 C148.41898438 198.23251953 148.70515625 199.31855469 149 200.4375 C149.28617188 201.55060547 149.57234375 202.66371094 149.8671875 203.81054688 C150.57066661 206.54239074 151.28178686 209.27199981 152 212 C155.41844782 208.71581818 157.73927177 205.36440336 159.9375 201.1875 C160.28449951 200.52951416 160.63149902 199.87152832 160.98901367 199.19360352 C170.04470767 181.48857426 173.23273497 162.01131072 173.25 142.3125 C173.25067474 141.62159271 173.25134949 140.93068542 173.25204468 140.21884155 C173.23405444 128.59025326 172.46828847 117.38536512 170 106 C169.81775879 105.15904785 169.63551758 104.3180957 169.44775391 103.45166016 C167.24410997 93.57484334 164.53236725 84.00772974 160.91796875 74.5546875 C160 72 160 72 160 70 C159.04480469 70.27714844 158.08960938 70.55429688 157.10546875 70.83984375 C144.95206385 74.28451824 134.86130818 76.91077242 123.0625 71.03515625 C117.63042244 67.74547135 114.79959714 63.01192849 113 57 C111.97258495 48.96994028 112.03868068 41.61825506 117 35 C122.97041369 28.21194257 129.44327741 26.19751633 138.0625 24.1875 C139.78049805 23.75920898 139.78049805 23.75920898 141.53320312 23.32226562 C149.37216505 21.36819241 149.37216505 21.36819241 153.265625 20.48754883 C155.95649202 19.82858257 157.70798551 19.29541001 159.6796875 17.30078125 C160.07414063 16.64464844 160.46859375 15.98851562 160.875 15.3125 C166.43746216 7.22564868 174.36065525 1.93703836 184 0 C193.27605637 -0.99956561 202.1182488 -0.84542445 210.73828125 3.02734375 C214.95410989 4.8403685 218.16783202 5.24583493 222.58984375 4.00390625 C223.45005127 3.77437256 224.31025879 3.54483887 225.1965332 3.30834961 C226.10105225 3.06221924 227.00557129 2.81608887 227.9375 2.5625 C247.97300252 -2.51251509 247.97300252 -2.51251509 257.4375 1.5 C263.26235779 5.01996782 267.98216582 10.48962934 270 17 C270.81041636 24.88742434 271.08311911 32.55558973 266 39 C260.24421645 45.85885755 253.48431953 47.90078692 245 50 C243.84371094 50.2990625 242.68742187 50.598125 241.49609375 50.90625 C238.66897762 51.62721468 235.83836321 52.32492983 233 53 C233.26554687 54.18851563 233.53109375 55.37703125 233.8046875 56.6015625 C244.75389306 107.30631926 237.27137608 159.52880769 209.49853516 203.72021484 C200.3275 217.6725 200.3275 217.6725 195 223 C217.77 223.495 217.77 223.495 241 224 C241 218.72 241 213.44 241 208 C241.40439238 204.75230221 241.82352432 201.83195393 242.5625 198.6875 C242.73958496 197.90246094 242.91666992 197.11742187 243.09912109 196.30859375 C248.26837052 174.61242907 258.28381704 154.53246954 272 137 C272.73605469 136.04480469 273.47210938 135.08960938 274.23046875 134.10546875 C278.08095048 129.40253516 278.08095048 129.40253516 280 128 C284.45356592 128.37333232 287.5757383 130.32659612 291.33203125 132.640625 C291.92747238 133.00468445 292.52291351 133.3687439 293.13639832 133.74383545 C295.03279975 134.90561613 296.92263973 136.07761573 298.8125 137.25 C300.07054791 138.02281243 301.32900798 138.79495433 302.58789062 139.56640625 C308.7453684 143.34525191 314.88007374 147.16064852 321 151 C320.55566322 157.95728144 319.35988753 164.21344269 317.125 170.8125 C316.82327881 171.70686768 316.52155762 172.60123535 316.21069336 173.52270508 C309.17322179 193.44916584 298.94573774 208.05426226 284 223 C296.21 223 308.42 223 321 223 C319.35 221.02 317.7 219.04 316 217 C317.01707031 215.87078125 317.01707031 215.87078125 318.0546875 214.71875 C328.91819308 202.41988531 337.10815107 189.32838747 343 174 C344.70930812 174.28589851 346.41740912 174.57901758 348.125 174.875 C349.07632812 175.03742188 350.02765625 175.19984375 351.0078125 175.3671875 C354.10700044 176.02262934 357.01520457 176.94602179 360 178 C355.60219197 193.96127529 347.36706682 207.26163813 337 220 C336.34 220.99 335.68 221.98 335 223 C335.66 223.33 336.32 223.66 337 224 C337.10329587 231.39326724 337.17223887 238.78634202 337.21972656 246.18017578 C337.23956887 248.6838272 337.26665141 251.18743406 337.30175781 253.69091797 C337.75449441 286.8605318 331.24432577 315.95993235 317.31787109 345.96630859 C299.31816981 384.84006138 298.23058453 420.92954153 297 464 C238.92 464 180.84 464 121 464 C121 453.44 121 442.88 121 432 C117.52984375 432.04640625 114.0596875 432.0928125 110.484375 432.140625 C107.08855651 432.1719035 103.69275465 432.19614406 100.296875 432.21972656 C97.95370185 432.23972611 95.61057786 432.26693477 93.26757812 432.30175781 C89.88138629 432.35079125 86.49585959 432.37308621 83.109375 432.390625 C82.07762146 432.41127014 81.04586792 432.43191528 79.98284912 432.45318604 C66.05204762 432.45739431 55.32763418 427.03742756 45.25 417.6875 C36.18131579 408.10549404 32.47485246 396.83779875 32.70703125 383.8359375 C32.71127609 382.91785309 32.71552094 381.99976868 32.71989441 381.05386353 C32.73650503 378.16059322 32.77412225 375.2680549 32.8125 372.375 C32.82756968 370.39714557 32.84125405 368.41928008 32.85351562 366.44140625 C32.88635047 361.62732798 32.93800762 356.81378749 33 352 C32.1028125 352.02094727 31.205625 352.04189453 30.28125 352.06347656 C26.91900141 352.13207616 23.55750765 352.18200294 20.19482422 352.21972656 C18.74581083 352.23971295 17.29687675 352.26691197 15.84814453 352.30175781 C6.44023473 352.52220504 -0.7751879 352.57853743 -8.2421875 346.03515625 C-8.78101563 345.38417969 -9.31984375 344.73320312 -9.875 344.0625 C-10.42929688 343.41410156 -10.98359375 342.76570313 -11.5546875 342.09765625 C-16.03412097 335.59642443 -15.67463728 328.62859083 -15 321 C-13.31914417 314.34040667 -8.53621678 309.81452553 -3 306 C1.18128779 303.92905262 4.63208461 303.76651921 9.26953125 303.8046875 C10.51581299 303.80968262 11.76209473 303.81467773 13.04614258 303.81982422 C14.61904053 303.83803223 16.19193848 303.85624023 17.8125 303.875 C22.824375 303.91625 27.83625 303.9575 33 304 C33 285.52 33 267.04 33 248 C22.44 248 11.88 248 1 248 C0.34 249.98 -0.32 251.96 -1 254 C-1.97625408 256.10856114 -2.99171202 258.19927283 -4.0390625 260.2734375 C-4.61914062 261.42714844 -5.19921875 262.58085937 -5.796875 263.76953125 C-6.40616191 264.97139883 -7.01553802 266.17322119 -7.625 267.375 C-8.24255878 268.60007332 -8.85974982 269.8253321 -9.4765625 271.05078125 C-10.98077167 274.03569632 -12.48869122 277.01867503 -14 280 C-14.66 280 -15.32 280 -16 280 C-17.71577309 275.9277008 -19.42456771 271.85256612 -21.12695312 267.7746582 C-21.70707279 266.38778934 -22.28909253 265.00171368 -22.87304688 263.61645508 C-23.71204306 261.625266 -24.54416662 259.63132516 -25.375 257.63671875 C-25.87773438 256.43748779 -26.38046875 255.23825684 -26.8984375 254.00268555 C-28 251 -28 251 -28 248 C-29.9490625 247.6596875 -29.9490625 247.6596875 -31.9375 247.3125 C-39.76909046 245.7642635 -47.36980154 243.31915545 -55 241 C-53.50447916 237.25782143 -51.42388765 235.55326808 -48.24609375 233.140625 C-36.20803683 223.50060145 -36.20803683 223.50060145 -30.59934998 209.70742798 C-29.79194445 201.1533799 -30.20813115 192.54081398 -31 184 C-27.54285154 185.26772184 -24.72706156 186.7308771 -21.75 188.890625 C-20.9765625 189.43460938 -20.203125 189.97859375 -19.40625 190.5390625 C-17.79467069 191.68495818 -16.1905066 192.8413507 -14.59375 194.0078125 C-13.8203125 194.54664063 -13.046875 195.08546875 -12.25 195.640625 C-11.55390625 196.14110352 -10.8578125 196.64158203 -10.140625 197.15722656 C-7.96940691 198.25810494 -7.96940691 198.25810494 -5.5065918 197.32373047 C-3.10552178 196.05572602 -0.88063552 194.71878822 1.35546875 193.1796875 C2.14244141 192.64472656 2.92941406 192.10976562 3.74023438 191.55859375 C4.54783203 191.00300781 5.35542969 190.44742188 6.1875 189.875 C7.80310994 188.76402983 9.42146756 187.65704139 11.04296875 186.5546875 C11.75477295 186.06468262 12.46657715 185.57467773 13.19995117 185.06982422 C15 184 15 184 17 184 C16.95697754 185.13840332 16.91395508 186.27680664 16.86962891 187.44970703 C16.72672775 191.74034435 16.67927218 196.02798162 16.65820312 200.32080078 C16.63635887 202.16567637 16.58982904 204.01045276 16.51660156 205.85400391 C15.9683571 217.93520386 15.9683571 217.93520386 21.20996094 228.42871094 C24.54927338 231.9609894 28.15664992 235.03078948 32 238 C32.33 233.38 32.66 228.76 33 224 C37.29 224 41.58 224 46 224 C45.40832031 223.21496094 44.81664063 222.42992187 44.20703125 221.62109375 C40.073305 216.12519343 35.9611732 210.62231035 32 205 C33.22257232 203.72282148 34.45339645 202.45353969 35.6875 201.1875 C36.71423828 200.12595703 36.71423828 200.12595703 37.76171875 199.04296875 C40.03442604 196.96857798 42.31612686 195.48999612 45 194 C64 213.79331942 64 213.79331942 64 221 C63.01 221.66 62.02 222.32 61 223 C74.365 223.495 74.365 223.495 88 224 C81.24576783 206.31619215 73.95951822 190.78993753 62 176 C61.2265625 175.02289063 60.453125 174.04578125 59.65625 173.0390625 C48.0264338 158.63882272 34.67361137 145.22964262 19.73339844 134.28466797 C17.90437835 132.92913224 16.11156552 131.53391156 14.3203125 130.12890625 C-2.27523415 117.21492226 -20.49138893 106.89631829 -39 97 C-38.41453706 90.35129444 -37.16817648 84.18792258 -35.4375 77.75 C-34.97223864 76.01712573 -34.51241648 74.28278003 -34.05859375 72.546875 C-33.85548584 71.79245117 -33.65237793 71.03802734 -33.44311523 70.26074219 C-32.92553719 67.62009609 -32.61285318 65.68272397 -33 63 C-35.02714635 60.31436348 -35.02714635 60.31436348 -37.8125 57.76953125 C-38.30081299 57.29303635 -38.78912598 56.81654144 -39.29223633 56.3256073 C-40.85008771 54.80890183 -42.42378677 53.31009491 -44 51.8125 C-45.57346398 50.30167697 -47.14325426 48.78735206 -48.70776367 47.26725769 C-50.12466203 45.89297908 -51.55233259 44.52983302 -52.98046875 43.16723633 C-55 41 -55 41 -55 39 C-50.10826122 37.99687912 -45.21527725 37.00016078 -40.32104492 36.00927734 C-38.6572782 35.67150436 -36.99386119 35.33200388 -35.33081055 34.99072266 C-32.93629004 34.49964909 -30.5405685 34.01486161 -28.14453125 33.53125 C-27.4047554 33.37813354 -26.66497955 33.22501709 -25.90278625 33.06726074 C-22.21658209 32.32962236 -18.76223853 31.8191542 -15 32 C-14.599021 30.70908447 -14.599021 30.70908447 -14.18994141 29.39208984 C-13.00196065 26.00558909 -11.577788 22.92856054 -9.9609375 19.7265625 C-9.38085938 18.57285156 -8.80078125 17.41914062 -8.203125 16.23046875 C-7.59383809 15.02860117 -6.98446198 13.82677881 -6.375 12.625 C-5.75744122 11.39992668 -5.14025018 10.1746679 -4.5234375 8.94921875 C-3.01922833 5.96430368 -1.51130878 2.98132497 0 0 Z M229 20 C229.45294865 21.75140143 229.91258748 23.50107344 230.375 25.25 C230.63023437 26.22453125 230.88546875 27.1990625 231.1484375 28.203125 C231.89598509 30.65837303 232.77123817 32.75617405 234 35 C236.42182428 34.43370278 238.83597168 33.84792938 241.25 33.25 C241.93191406 33.09273437 242.61382812 32.93546875 243.31640625 32.7734375 C247.60483231 31.69092218 250.30735854 30.56299021 253 27 C253.60024477 23.39853135 253.45562482 21.72140596 251.5 18.625 C244.83761797 14.29445168 236.02308582 18.03353597 229 20 Z M142.0625 40.75 C140.98838867 40.98589844 140.98838867 40.98589844 139.89257812 41.2265625 C135.52719323 42.27846248 132.68772025 43.32678232 130 47 C129.57539419 50.45750445 129.29900315 52.83167192 131.125 55.875 C135.00057056 58.20034234 138.79256202 58.20582625 143.0859375 57.22265625 C144.51883332 56.848 145.94855885 56.46102651 147.375 56.0625 C148.11105469 55.86720703 148.84710938 55.67191406 149.60546875 55.47070312 C151.40653661 54.99119804 153.20370196 54.49707535 155 54 C154.34 49.05 153.68 44.1 153 39 C149.20068446 39 145.73304086 39.86933308 142.0625 40.75 Z " fill="#FCC7A1" transform="translate(79,24)"/>
<path d="M0 0 C0.66 0 1.32 0 2 0 C4.14132334 4.23328993 6.2774277 8.4691561 8.40869141 12.70751953 C9.13479257 14.14965065 9.86232665 15.59106122 10.59130859 17.03173828 C11.63754818 19.10001872 12.67864446 21.170817 13.71875 23.2421875 C14.04685669 23.88807831 14.37496338 24.53396912 14.7130127 25.19943237 C17 29.77225659 17 29.77225659 17 32 C17.82177734 32.06586304 17.82177734 32.06586304 18.66015625 32.13305664 C25.83911807 32.77434805 32.9310237 33.80240697 40.02246094 35.08959961 C41.99160793 35.43602362 43.96862366 35.73669181 45.9453125 36.03710938 C55.73978834 37.83276328 60.76310904 41.33449413 67 49 C68.11652954 50.30795532 68.11652954 50.30795532 69.25561523 51.64233398 C71.11634428 53.84199862 72.91451219 56.0818682 74.69384766 58.34765625 C76.12773092 60.16158558 77.58531205 61.95512758 79.04296875 63.75 C99.37597566 89.05123942 115.87617691 116.82814391 130 146 C130.1285822 139.47539334 130.02608767 133.2316779 128.8125 126.8125 C128.6786792 126.09328369 128.5448584 125.37406738 128.40698242 124.63305664 C126.0659993 112.69599898 122.3342914 101.87165058 116.59106445 91.13842773 C114 86.27668255 114 86.27668255 114 83 C116.14775034 81.45704199 118.21834754 80.1240944 120.5 78.8125 C121.12003906 78.44447266 121.74007812 78.07644531 122.37890625 77.69726562 C123.9134788 76.7883265 125.4560256 75.8928753 127 75 C141.08471584 87.73159904 146.3670865 114.95944602 148 133 C148.27855518 138.64770632 148.37069598 144.28353842 148.375 149.9375 C148.37799103 150.96932907 148.37799103 150.96932907 148.38104248 152.02200317 C148.3782001 160.66994672 147.75843019 169.06376654 146.42431641 177.59985352 C145.72768859 183.18209497 145.78681467 188.08238939 147.27734375 193.51171875 C147.54353516 194.51783203 147.80972656 195.52394531 148.08398438 196.56054688 C148.64776257 198.62601343 149.21284213 200.69112526 149.77929688 202.75585938 C150.18051758 204.27469727 150.18051758 204.27469727 150.58984375 205.82421875 C150.83597412 206.72229248 151.08210449 207.62036621 151.33569336 208.5456543 C152.31416933 213.63365741 152.5697219 218.83666274 153 224 C131.55 224 110.1 224 88 224 C85.36 217.4 82.72 210.8 80 204 C74.71365242 193.87403844 69.1736963 184.87147109 62 176 C61.2265625 175.02289063 60.453125 174.04578125 59.65625 173.0390625 C48.0264338 158.63882272 34.67361137 145.22964262 19.73339844 134.28466797 C17.90437835 132.92913224 16.11156552 131.53391156 14.3203125 130.12890625 C-2.27523415 117.21492226 -20.49138893 106.89631829 -39 97 C-38.41453706 90.35129444 -37.16817648 84.18792258 -35.4375 77.75 C-34.97223864 76.01712573 -34.51241648 74.28278003 -34.05859375 72.546875 C-33.85548584 71.79245117 -33.65237793 71.03802734 -33.44311523 70.26074219 C-32.92553719 67.62009609 -32.61285318 65.68272397 -33 63 C-35.02714635 60.31436348 -35.02714635 60.31436348 -37.8125 57.76953125 C-38.30081299 57.29303635 -38.78912598 56.81654144 -39.29223633 56.3256073 C-40.85008771 54.80890183 -42.42378677 53.31009491 -44 51.8125 C-45.57346398 50.30167697 -47.14325426 48.78735206 -48.70776367 47.26725769 C-50.12466203 45.89297908 -51.55233259 44.52983302 -52.98046875 43.16723633 C-55 41 -55 41 -55 39 C-50.10826122 37.99687912 -45.21527725 37.00016078 -40.32104492 36.00927734 C-38.6572782 35.67150436 -36.99386119 35.33200388 -35.33081055 34.99072266 C-32.93629004 34.49964909 -30.5405685 34.01486161 -28.14453125 33.53125 C-27.4047554 33.37813354 -26.66497955 33.22501709 -25.90278625 33.06726074 C-22.21658209 32.32962236 -18.76223853 31.8191542 -15 32 C-14.599021 30.70908447 -14.599021 30.70908447 -14.18994141 29.39208984 C-13.00196065 26.00558909 -11.577788 22.92856054 -9.9609375 19.7265625 C-9.38085938 18.57285156 -8.80078125 17.41914062 -8.203125 16.23046875 C-7.59383809 15.02860117 -6.98446198 13.82677881 -6.375 12.625 C-5.75744122 11.39992668 -5.14025018 10.1746679 -4.5234375 8.94921875 C-3.01922833 5.96430368 -1.51130878 2.98132497 0 0 Z " fill="#D94F39" transform="translate(79,24)"/>
<path d="M0 0 C4.21582864 1.81302475 7.42955077 2.21849118 11.8515625 0.9765625 C12.71177002 0.74702881 13.57197754 0.51749512 14.45825195 0.28100586 C15.362771 0.03487549 16.26729004 -0.21125488 17.19921875 -0.46484375 C37.23472127 -5.53985884 37.23472127 -5.53985884 46.69921875 -1.52734375 C52.52407654 1.99262407 57.24388457 7.46228559 59.26171875 13.97265625 C60.07213511 21.86008059 60.34483786 29.52824598 55.26171875 35.97265625 C49.5059352 42.8315138 42.74603828 44.87344317 34.26171875 46.97265625 C33.10542969 47.27171875 31.94914063 47.57078125 30.7578125 47.87890625 C27.93069637 48.59987093 25.10008196 49.29758608 22.26171875 49.97265625 C22.66003906 51.75542969 22.66003906 51.75542969 23.06640625 53.57421875 C34.01616282 104.28152717 26.53254769 156.50535248 -1.24414062 200.69726562 C-5.84381712 207.70200172 -10.80158569 215.03596069 -16.73828125 220.97265625 C-19.82353064 221.14819044 -22.81792327 221.20388422 -25.90234375 221.16796875 C-27.26315567 221.16372391 -27.26315567 221.16372391 -28.65145874 221.15939331 C-31.55553248 221.14817778 -34.45930037 221.12307088 -37.36328125 221.09765625 C-39.32942264 221.08762822 -41.29556885 221.07850206 -43.26171875 221.0703125 C-48.08735784 221.04823397 -52.91276765 221.0136949 -57.73828125 220.97265625 C-58.94252123 217.35993632 -59.0390594 214.77449208 -58.73828125 210.97265625 C-57.1640625 207.83203125 -57.1640625 207.83203125 -55.05078125 204.72265625 C-36.31876056 175.98430225 -33.41814941 138.38794657 -40.22900391 105.32177734 C-40.39706543 104.54656738 -40.56512695 103.77135742 -40.73828125 102.97265625 C-40.92052246 102.1317041 -41.10276367 101.29075195 -41.29052734 100.42431641 C-43.49417128 90.54749959 -46.205914 80.98038599 -49.8203125 71.52734375 C-50.73828125 68.97265625 -50.73828125 68.97265625 -50.73828125 66.97265625 C-52.17107422 67.38837891 -52.17107422 67.38837891 -53.6328125 67.8125 C-65.7862174 71.25717449 -75.87697307 73.88342867 -87.67578125 68.0078125 C-93.10785881 64.7181276 -95.93868411 59.98458474 -97.73828125 53.97265625 C-98.7656963 45.94259653 -98.69960057 38.59091131 -93.73828125 31.97265625 C-87.76786756 25.18459882 -81.29500384 23.17017258 -72.67578125 21.16015625 C-71.53044922 20.87462891 -70.38511719 20.58910156 -69.20507812 20.29492188 C-61.3661162 18.34084866 -61.3661162 18.34084866 -57.47265625 17.46020508 C-54.78178923 16.80123882 -53.03029574 16.26806626 -51.05859375 14.2734375 C-50.66414063 13.61730469 -50.2696875 12.96117187 -49.86328125 12.28515625 C-38.90339033 -3.64861656 -17.23745847 -7.7443654 0 0 Z M18.26171875 16.97265625 C18.7146674 18.72405768 19.17430623 20.47372969 19.63671875 22.22265625 C19.89195312 23.1971875 20.1471875 24.17171875 20.41015625 25.17578125 C21.15770384 27.63102928 22.03295692 29.7288303 23.26171875 31.97265625 C25.68354303 31.40635903 28.09769043 30.82058563 30.51171875 30.22265625 C31.19363281 30.06539062 31.87554687 29.908125 32.578125 29.74609375 C36.86655106 28.66357843 39.56907729 27.53564646 42.26171875 23.97265625 C42.86196352 20.3711876 42.71734357 18.69406221 40.76171875 15.59765625 C34.09933672 11.26710793 25.28480457 15.00619222 18.26171875 16.97265625 Z M-68.67578125 37.72265625 C-69.74989258 37.95855469 -69.74989258 37.95855469 -70.84570312 38.19921875 C-75.21108802 39.25111873 -78.050561 40.29943857 -80.73828125 43.97265625 C-81.16288706 47.4301607 -81.4392781 49.80432817 -79.61328125 52.84765625 C-75.73771069 55.17299859 -71.94571923 55.1784825 -67.65234375 54.1953125 C-66.21944793 53.82065625 -64.7897224 53.43368276 -63.36328125 53.03515625 C-62.62722656 52.83986328 -61.89117187 52.64457031 -61.1328125 52.44335938 C-59.33174464 51.96385429 -57.53457929 51.4697316 -55.73828125 50.97265625 C-56.39828125 46.02265625 -57.05828125 41.07265625 -57.73828125 35.97265625 C-61.53759679 35.97265625 -65.00524039 36.84198933 -68.67578125 37.72265625 Z " fill="#95B168" transform="translate(289.73828125,27.02734375)"/>
<path d="M0 0 C0.81542431 2.08219049 1.62723189 4.16579761 2.4375 6.25 C2.88996094 7.41015625 3.34242188 8.5703125 3.80859375 9.765625 C8.52937194 22.58137693 7.65039526 39.68719839 2 52 C-2.06971703 60.27546917 -7.48479985 67.70070145 -12.91210938 75.12597656 C-13.41162109 75.81530273 -13.91113281 76.50462891 -14.42578125 77.21484375 C-15.09734253 78.12931274 -15.09734253 78.12931274 -15.7824707 79.06225586 C-17.24159671 81.38451035 -18.28220454 83.34005295 -19 86 C-18.25071946 88.57007511 -18.25071946 88.57007511 -16.7109375 91.0546875 C-16.18113281 91.99957031 -15.65132813 92.94445312 -15.10546875 93.91796875 C-14.53441406 94.89378906 -13.96335937 95.86960937 -13.375 96.875 C-12.82714844 97.84308594 -12.27929688 98.81117187 -11.71484375 99.80859375 C-8.77266609 105.01925312 -8.77266609 105.01925312 -5.63769531 110.11425781 C-4.4765625 111.9453125 -4.4765625 111.9453125 -3 115 C-4.11387218 117.91002761 -5.85909954 120.38820254 -7.6171875 122.94921875 C-8.13627686 123.70734863 -8.65536621 124.46547852 -9.19018555 125.24658203 C-10.0241687 126.45483643 -10.0241687 126.45483643 -10.875 127.6875 C-11.44710205 128.51878418 -12.0192041 129.35006836 -12.60864258 130.20654297 C-14.40184566 132.8070937 -16.20026957 135.40396318 -18 138 C-18.57830566 138.83644043 -19.15661133 139.67288086 -19.75244141 140.53466797 C-21.39189973 142.90204391 -23.03820534 145.26446926 -24.6875 147.625 C-25.19200684 148.35291748 -25.69651367 149.08083496 -26.21630859 149.83081055 C-29.76839241 154.88419621 -29.76839241 154.88419621 -32 156 C-31.9057373 155.18958252 -31.81147461 154.37916504 -31.71435547 153.54418945 C-29.70254894 138.43137736 -29.70254894 138.43137736 -33.66992188 124.41503906 C-37.80329986 120.34428802 -42.6225021 117.5966281 -47.81738281 115.08154297 C-50.74296864 113.63183992 -53.32915534 111.87131997 -56 110 C-60.03564085 119.65206268 -64.02188379 129.32412081 -68 139 C-71.47918832 137.7213859 -74.3504008 136.23575102 -77.37109375 134.09375 C-78.5945752 133.23209229 -78.5945752 133.23209229 -79.84277344 132.35302734 C-80.6990332 131.74152832 -81.55529297 131.1300293 -82.4375 130.5 C-83.75862793 129.56148193 -83.75862793 129.56148193 -85.10644531 128.60400391 C-86.89017771 127.33671747 -88.67290206 126.06801093 -90.45458984 124.79785156 C-92.7611905 123.16867381 -95.08583899 121.57292462 -97.42578125 119.9921875 C-98.07812744 119.54552734 -98.73047363 119.09886719 -99.40258789 118.63867188 C-100.60714047 117.81473053 -101.81834225 117.00040197 -103.03686523 116.19726562 C-104.640625 115.0859375 -104.640625 115.0859375 -107 113 C-107 109 -107 109 -104.98046875 106.73828125 C-104.05878906 105.93777344 -103.13710938 105.13726562 -102.1875 104.3125 C-100.69863281 103.01119141 -100.69863281 103.01119141 -99.1796875 101.68359375 C-94.50963837 97.71968377 -89.78149069 93.82889196 -85 90 C-88.74289852 87.08429379 -92.50023505 84.18928333 -96.27685547 81.31738281 C-97.82005791 80.13756978 -99.35037841 78.94095153 -100.87890625 77.7421875 C-102.14541016 76.78699219 -102.14541016 76.78699219 -103.4375 75.8125 C-104.17871094 75.24144531 -104.91992188 74.67039062 -105.68359375 74.08203125 C-108.97342421 72.54529763 -110.49386422 73.02334913 -114 74 C-118.36363693 75.62809851 -122.63809671 77.46271039 -126.91992188 79.29296875 C-128.21833008 79.83244141 -128.21833008 79.83244141 -129.54296875 80.3828125 C-130.7189563 80.88385498 -130.7189563 80.88385498 -131.91870117 81.39501953 C-134 82 -134 82 -137 81 C-132.98130289 75.25068198 -128.95921044 69.50375264 -124.93359375 63.75927734 C-123.68579116 61.97863784 -122.43836743 60.19773274 -121.19140625 58.41650391 C-119.54637155 56.06785318 -117.89862101 53.72113421 -116.25 51.375 C-115.74952148 50.65965088 -115.24904297 49.94430176 -114.73339844 49.20727539 C-112.93332517 46.65008305 -111.21598093 44.21598093 -109 42 C-100.69637645 41.67827289 -92.04364962 43.68053247 -83.85595703 44.9831543 C-83.02692871 45.11375244 -82.19790039 45.24435059 -81.34375 45.37890625 C-80.60318359 45.4982251 -79.86261719 45.61754395 -79.09960938 45.74047852 C-76.69096635 46.08178074 -76.69096635 46.08178074 -73 46 C-71.07830225 43.61527901 -69.44948404 41.31967752 -67.8125 38.75 C-66.83377777 37.27488138 -65.8532896 35.80093302 -64.87109375 34.328125 C-64.38624512 33.59400391 -63.90139648 32.85988281 -63.40185547 32.10351562 C-53.19455535 16.78723248 -41.85363602 5.95848053 -23.8359375 0.6796875 C-15.96614871 -0.71475573 -7.95906547 -0.28566935 0 0 Z " fill="#DD5540" transform="translate(482,24)"/>
<path d="M0 0 C4.21582864 1.81302475 7.42955077 2.21849118 11.8515625 0.9765625 C12.71177002 0.74702881 13.57197754 0.51749512 14.45825195 0.28100586 C15.362771 0.03487549 16.26729004 -0.21125488 17.19921875 -0.46484375 C37.23472127 -5.53985884 37.23472127 -5.53985884 46.69921875 -1.52734375 C52.52407654 1.99262407 57.24388457 7.46228559 59.26171875 13.97265625 C60.07213511 21.86008059 60.34483786 29.52824598 55.26171875 35.97265625 C49.51151442 42.82486534 42.73779122 44.86159439 34.26171875 46.97265625 C33.46894531 47.19824219 32.67617188 47.42382812 31.859375 47.65625 C27.91509952 48.75398502 24.34960502 49.17705056 20.26171875 48.97265625 C20.05546875 49.77703125 19.84921875 50.58140625 19.63671875 51.41015625 C15.66343997 61.70456036 8.25238473 69.64874603 -1.81640625 74.1953125 C-12.44431782 78.49400031 -23.03467927 77.83390259 -33.73828125 73.97265625 C-41.8896326 69.8213049 -41.8896326 69.8213049 -44.73828125 66.97265625 C-49.50453368 66.63780742 -53.3702295 67.5612521 -57.92578125 68.91015625 C-68.96789546 71.99429555 -77.23315888 73.20807001 -87.67578125 68.0078125 C-93.10785881 64.7181276 -95.93868411 59.98458474 -97.73828125 53.97265625 C-98.7656963 45.94259653 -98.69960057 38.59091131 -93.73828125 31.97265625 C-87.76786756 25.18459882 -81.29500384 23.17017258 -72.67578125 21.16015625 C-71.53044922 20.87462891 -70.38511719 20.58910156 -69.20507812 20.29492188 C-61.3661162 18.34084866 -61.3661162 18.34084866 -57.47265625 17.46020508 C-54.78178923 16.80123882 -53.03029574 16.26806626 -51.05859375 14.2734375 C-50.66414063 13.61730469 -50.2696875 12.96117187 -49.86328125 12.28515625 C-38.90339033 -3.64861656 -17.23745847 -7.7443654 0 0 Z M18.26171875 16.97265625 C18.7146674 18.72405768 19.17430623 20.47372969 19.63671875 22.22265625 C19.89195312 23.1971875 20.1471875 24.17171875 20.41015625 25.17578125 C21.15770384 27.63102928 22.03295692 29.7288303 23.26171875 31.97265625 C25.68354303 31.40635903 28.09769043 30.82058563 30.51171875 30.22265625 C31.19363281 30.06539062 31.87554687 29.908125 32.578125 29.74609375 C36.86655106 28.66357843 39.56907729 27.53564646 42.26171875 23.97265625 C42.86196352 20.3711876 42.71734357 18.69406221 40.76171875 15.59765625 C34.09933672 11.26710793 25.28480457 15.00619222 18.26171875 16.97265625 Z M-68.67578125 37.72265625 C-69.74989258 37.95855469 -69.74989258 37.95855469 -70.84570312 38.19921875 C-75.21108802 39.25111873 -78.050561 40.29943857 -80.73828125 43.97265625 C-81.16288706 47.4301607 -81.4392781 49.80432817 -79.61328125 52.84765625 C-75.73771069 55.17299859 -71.94571923 55.1784825 -67.65234375 54.1953125 C-66.21944793 53.82065625 -64.7897224 53.43368276 -63.36328125 53.03515625 C-62.62722656 52.83986328 -61.89117187 52.64457031 -61.1328125 52.44335938 C-59.33174464 51.96385429 -57.53457929 51.4697316 -55.73828125 50.97265625 C-56.39828125 46.02265625 -57.05828125 41.07265625 -57.73828125 35.97265625 C-61.53759679 35.97265625 -65.00524039 36.84198933 -68.67578125 37.72265625 Z " fill="#4CB5E3" transform="translate(289.73828125,27.02734375)"/>
<path d="M0 0 C3.43421002 1.00599596 6.06208946 2.57679335 9.10986328 4.4543457 C9.70530441 4.81840515 10.30074554 5.1824646 10.91423035 5.55755615 C12.81063178 6.71933683 14.70047176 7.89133644 16.59033203 9.0637207 C17.84837994 9.83653313 19.10684001 10.60867503 20.36572266 11.38012695 C26.52320043 15.15897261 32.65790577 18.97436922 38.77783203 22.8137207 C38.33349525 29.77100214 37.13771956 36.0271634 34.90283203 42.6262207 C34.60111084 43.52058838 34.29938965 44.41495605 33.98852539 45.33642578 C29.45906394 58.16150577 23.29465926 72.35270825 13.93359375 82.42260742 C11.70544366 84.80849749 11.70544366 84.80849749 9.7434082 87.62304688 C5.72212636 92.60025151 2.50270339 95.89884205 -4.05175781 96.7043457 C-9.68302521 97.03003359 -15.28152911 96.77618969 -20.90966797 96.5012207 C-22.88283813 96.44595573 -24.85615778 96.39578111 -26.82958984 96.35083008 C-31.63085124 96.23048255 -36.42483888 96.04122553 -41.22216797 95.8137207 C-41.52314542 78.43060072 -41.52314542 78.43060072 -39.65966797 70.5012207 C-39.48258301 69.71618164 -39.30549805 68.93114258 -39.12304688 68.12231445 C-33.95379745 46.42614978 -23.93835093 26.34619024 -10.22216797 8.8137207 C-9.11808594 7.38092773 -9.11808594 7.38092773 -7.99169922 5.91918945 C-2.94340456 -0.24673892 -2.94340456 -0.24673892 0 0 Z " fill="#FEB330" transform="translate(361.22216796875,152.186279296875)"/>
<path d="M0 0 C0.66 0 1.32 0 2 0 C4.14132334 4.23328993 6.2774277 8.4691561 8.40869141 12.70751953 C9.13479257 14.14965065 9.86232665 15.59106122 10.59130859 17.03173828 C11.63754818 19.10001872 12.67864446 21.170817 13.71875 23.2421875 C14.04685669 23.88807831 14.37496338 24.53396912 14.7130127 25.19943237 C17 29.77225659 17 29.77225659 17 32 C17.54060059 32.03665771 18.08120117 32.07331543 18.63818359 32.11108398 C26.75709846 32.7833667 34.66012694 34.41933059 42.625 36.0625 C44.02464763 36.34745723 45.42438671 36.63196569 46.82421875 36.91601562 C50.21721429 37.60551355 53.60893696 38.30105182 57 39 C53.7498362 42.97936722 50.45177551 46.58346499 46.625 50.015625 C45.86832031 50.71042969 45.11164063 51.40523437 44.33203125 52.12109375 C42.76789351 53.54899169 41.18132005 54.95266734 39.57421875 56.33203125 C35.29530875 60.24240054 35.29530875 60.24240054 33.85473633 65.62670898 C34.35521141 68.52076054 35.10696356 71.20311694 36 74 C36.44913068 75.79104943 36.89071815 77.58400969 37.32421875 79.37890625 C38.00910976 82.00596657 38.7054829 84.62960693 39.40820312 87.25195312 C39.73788086 88.52135742 39.73788086 88.52135742 40.07421875 89.81640625 C40.27619873 90.57381104 40.47817871 91.33121582 40.6862793 92.11157227 C41 94 41 94 40 96 C38.87505127 95.54036865 37.75010254 95.0807373 36.59106445 94.60717773 C32.41236966 92.90383184 28.22695471 91.21757721 24.03930664 89.53637695 C22.22851004 88.80664327 20.41956402 88.07229976 18.61254883 87.33325195 C16.01336968 86.27115264 13.40796536 85.22586151 10.80078125 84.18359375 C9.99538406 83.85032578 9.18998688 83.5170578 8.36018372 83.1736908 C2.78532127 80.9601971 2.78532127 80.9601971 -3 82 C-3.87674126 82.31941307 -3.87674126 82.31941307 -4.77119446 82.64527893 C-6.91139894 83.44775607 -9.02746039 84.29855748 -11.14453125 85.16015625 C-11.91431808 85.46948593 -12.68410492 85.77881561 -13.47721863 86.09751892 C-15.92396766 87.08179468 -18.36824344 88.0720531 -20.8125 89.0625 C-22.47575158 89.73281871 -24.13916137 90.402745 -25.80273438 91.07226562 C-29.87033626 92.71030375 -33.93573133 94.35370995 -38 96 C-39.23176079 92.4530093 -38.75117087 90.12169405 -37.78515625 86.53515625 C-37.51123047 85.48779297 -37.23730469 84.44042969 -36.95507812 83.36132812 C-36.66052734 82.27271484 -36.36597656 81.18410156 -36.0625 80.0625 C-35.48542073 77.90900905 -34.91360643 75.75409873 -34.34765625 73.59765625 C-34.08992432 72.64383057 -33.83219238 71.69000488 -33.56665039 70.70727539 C-32.97666309 67.88850365 -32.55636869 65.85420626 -33 63 C-35.02714635 60.31436348 -35.02714635 60.31436348 -37.8125 57.76953125 C-38.30081299 57.29303635 -38.78912598 56.81654144 -39.29223633 56.3256073 C-40.85008771 54.80890183 -42.42378677 53.31009491 -44 51.8125 C-45.57346398 50.30167697 -47.14325426 48.78735206 -48.70776367 47.26725769 C-50.12466203 45.89297908 -51.55233259 44.52983302 -52.98046875 43.16723633 C-55 41 -55 41 -55 39 C-50.10826122 37.99687912 -45.21527725 37.00016078 -40.32104492 36.00927734 C-38.6572782 35.67150436 -36.99386119 35.33200388 -35.33081055 34.99072266 C-32.93629004 34.49964909 -30.5405685 34.01486161 -28.14453125 33.53125 C-27.4047554 33.37813354 -26.66497955 33.22501709 -25.90278625 33.06726074 C-22.21658209 32.32962236 -18.76223853 31.8191542 -15 32 C-14.599021 30.70908447 -14.599021 30.70908447 -14.18994141 29.39208984 C-13.00196065 26.00558909 -11.577788 22.92856054 -9.9609375 19.7265625 C-9.38085938 18.57285156 -8.80078125 17.41914062 -8.203125 16.23046875 C-7.59383809 15.02860117 -6.98446198 13.82677881 -6.375 12.625 C-5.75744122 11.39992668 -5.14025018 10.1746679 -4.5234375 8.94921875 C-3.01922833 5.96430368 -1.51130878 2.98132497 0 0 Z " fill="#FEB331" transform="translate(79,24)"/>
<path d="M0 0 C3.45714846 1.26772184 6.27293844 2.7308771 9.25 4.890625 C10.0234375 5.43460938 10.796875 5.97859375 11.59375 6.5390625 C13.20532931 7.68495818 14.8094934 8.8413507 16.40625 10.0078125 C17.56640625 10.81605469 17.56640625 10.81605469 18.75 11.640625 C19.44609375 12.14110352 20.1421875 12.64158203 20.859375 13.15722656 C23.03059309 14.25810494 23.03059309 14.25810494 25.4934082 13.32373047 C27.89447822 12.05572602 30.11936448 10.71878822 32.35546875 9.1796875 C33.14244141 8.64472656 33.92941406 8.10976562 34.74023438 7.55859375 C35.54783203 7.00300781 36.35542969 6.44742188 37.1875 5.875 C38.80310994 4.76402983 40.42146756 3.65704139 42.04296875 2.5546875 C43.11067505 1.81968018 43.11067505 1.81968018 44.19995117 1.06982422 C46 0 46 0 48 0 C47.87262451 1.64476318 47.87262451 1.64476318 47.74267578 3.32275391 C45.3941311 26.72750199 45.3941311 26.72750199 53.96484375 47.484375 C58.45159285 52.36116642 63.62062179 56.53182533 68.99633789 60.38818359 C69.98815063 61.18603271 69.98815063 61.18603271 71 62 C71 62.66 71 63.32 71 64 C58.13 64 45.26 64 32 64 C31.34 65.98 30.68 67.96 30 70 C29.02374592 72.10856114 28.00828798 74.19927283 26.9609375 76.2734375 C26.38085938 77.42714844 25.80078125 78.58085937 25.203125 79.76953125 C24.59383809 80.97139883 23.98446198 82.17322119 23.375 83.375 C22.75744122 84.60007332 22.14025018 85.8253321 21.5234375 87.05078125 C20.01922833 90.03569632 18.51130878 93.01867503 17 96 C16.34 96 15.68 96 15 96 C13.28422691 91.9277008 11.57543229 87.85256612 9.87304688 83.7746582 C9.29292721 82.38778934 8.71090747 81.00171368 8.12695312 79.61645508 C7.28795694 77.625266 6.45583338 75.63132516 5.625 73.63671875 C5.12226562 72.43748779 4.61953125 71.23825684 4.1015625 70.00268555 C3 67 3 67 3 64 C1.700625 63.773125 0.40125 63.54625 -0.9375 63.3125 C-8.76909046 61.7642635 -16.36980154 59.31915545 -24 57 C-22.50447916 53.25782143 -20.42388765 51.55326808 -17.24609375 49.140625 C-5.20803683 39.50060145 -5.20803683 39.50060145 0.40065002 25.70742798 C1.20805555 17.1533799 0.79186885 8.54081398 0 0 Z " fill="#FEB431" transform="translate(48,208)"/>
<path d="M0 0 C5.72518708 4.28640583 11.84176823 8.96339818 14 16 C14.66 16 15.32 16 16 16 C16.67679658 17.725227 17.34102 19.45538939 18 21.1875 C18.37125 22.15042969 18.7425 23.11335938 19.125 24.10546875 C19.98304098 26.94389895 20.06920128 29.06543339 20 32 C9.55078125 34.5078125 -0.8984375 37.015625 -11.34765625 39.5234375 C-12.36649902 39.76811768 -13.3853418 40.01279785 -14.43505859 40.26489258 C-16.48066808 40.75551948 -18.52656788 41.2449375 -20.57275391 41.7331543 C-26.05206714 43.04225982 -31.52369031 44.37672888 -36.98828125 45.74609375 C-38.13039062 46.02904297 -39.2725 46.31199219 -40.44921875 46.60351562 C-42.64512043 47.14802783 -44.83924008 47.69979222 -47.03125 48.25976562 C-48.01738281 48.50275391 -49.00351563 48.74574219 -50.01953125 48.99609375 C-50.88682861 49.21450928 -51.75412598 49.4329248 -52.64770508 49.65795898 C-55.10602078 50.0154162 -56.66247529 49.77894961 -59 49 C-61.75523539 35.66889951 -60.4912764 25.0906217 -54 13 C-42.76146216 -3.31965851 -17.6704287 -10.86188271 0 0 Z " fill="#348ED8" transform="translate(292,28)"/>
<path d="M0 0 C14.91941339 13.4861073 20.1733909 42.83277302 21.21142578 61.87939453 C21.82986438 78.4201689 21.31968094 94.73751539 18 111 C16.13781926 108.20672888 15.09863725 105.86492462 13.94140625 102.73828125 C13.36229492 101.18270508 13.36229492 101.18270508 12.77148438 99.59570312 C12.37251953 98.51224609 11.97355469 97.42878906 11.5625 96.3125 C11.16740234 95.24837891 10.77230469 94.18425781 10.36523438 93.08789062 C9.5901117 90.99983136 8.820148 88.90984886 8.05566406 86.81787109 C7.42950346 85.1464683 6.77902221 83.48333287 6.07714844 81.84228516 C3.69750251 76.21832148 3.43581988 70.80440034 3.125 64.75 C1.88300081 46.76375651 -2.0777353 28.75159044 -11.7109375 13.24609375 C-13 11 -13 11 -13 8 C-10.85224966 6.45704199 -8.78165246 5.1240944 -6.5 3.8125 C-5.87996094 3.44447266 -5.25992188 3.07644531 -4.62109375 2.69726562 C-3.0865212 1.7883265 -1.5439744 0.8928753 0 0 Z " fill="#FEB330" transform="translate(206,99)"/>
<path d="M0 0 C2.67176898 0.77931836 4.35076844 1.70743114 6.58911133 3.33837891 C7.31291992 3.85851562 8.03672852 4.37865234 8.7824707 4.91455078 C9.52432617 5.46046875 10.26618164 6.00638672 11.03051758 6.56884766 C12.50791235 7.63850727 13.98576856 8.70752987 15.46411133 9.77587891 C16.51381104 10.53892334 16.51381104 10.53892334 17.5847168 11.31738281 C20.21151064 13.19950327 22.88939246 14.98678003 25.59301758 16.75634766 C25.104259 23.9213405 22.2502142 30.11345377 19.53051758 36.69384766 C19.05807617 37.85464844 18.58563477 39.01544922 18.09887695 40.21142578 C16.93725439 43.06268117 15.76846798 45.91077152 14.59301758 48.75634766 C11.11382926 47.47773355 8.24261678 45.99209868 5.22192383 43.85009766 C4.40626953 43.27565918 3.59061523 42.7012207 2.75024414 42.109375 C1.89398438 41.49787598 1.03772461 40.88637695 0.15551758 40.25634766 C-0.72523438 39.63066895 -1.60598633 39.00499023 -2.51342773 38.36035156 C-4.29716013 37.09306513 -6.07988448 35.82435859 -7.86157227 34.55419922 C-10.16817293 32.92502146 -12.49282141 31.32927227 -14.83276367 29.74853516 C-15.48510986 29.301875 -16.13745605 28.85521484 -16.80957031 28.39501953 C-18.01412289 27.57107819 -19.22532467 26.75674962 -20.44384766 25.95361328 C-22.04760742 24.84228516 -22.04760742 24.84228516 -24.40698242 22.75634766 C-24.40698242 18.75634766 -24.40698242 18.75634766 -22.38745117 16.49462891 C-21.00493164 15.29386719 -21.00493164 15.29386719 -19.59448242 14.06884766 C-19.10254395 13.64112061 -18.61060547 13.21339355 -18.10375977 12.77270508 C-17.06895316 11.87781274 -16.02944732 10.98832896 -14.9855957 10.10400391 C-13.43648535 8.7815342 -11.91874337 7.42940709 -10.40307617 6.06884766 C-8.98188477 4.83134766 -8.98188477 4.83134766 -7.53198242 3.56884766 C-6.66831055 2.81216797 -5.80463867 2.05548828 -4.91479492 1.27587891 C-2.40698242 -0.24365234 -2.40698242 -0.24365234 0 0 Z " fill="#348ED7" transform="translate(399.406982421875,114.24365234375)"/>
<path d="M0 0 C4.08914021 1.49063618 5.23182617 3.68748525 7.1640625 7.48828125 C7.72867187 8.58720703 8.29328125 9.68613281 8.875 10.81835938 C9.4525 11.97142578 10.03 13.12449219 10.625 14.3125 C11.50285156 16.02469727 11.50285156 16.02469727 12.3984375 17.77148438 C13.96020365 20.83591313 15.51329028 23.89845283 17 27 C17.42595459 27.88244385 17.85190918 28.7648877 18.29077148 29.67407227 C18.6418396 30.82540649 18.6418396 30.82540649 19 32 C17.58814291 34.49669159 16.23434129 36.43043424 14.4375 38.625 C13.40931161 39.945238 12.38473929 41.26829793 11.36328125 42.59375 C10.81623535 43.29886719 10.26918945 44.00398438 9.70556641 44.73046875 C6.09964439 49.52872971 2.82382606 54.56536369 -0.49438477 59.56494141 C-3.36250578 63.82561124 -6.21423201 67.52156372 -10 71 C-9.9371582 70.16863525 -9.87431641 69.33727051 -9.80957031 68.48071289 C-8.16851875 53.71073168 -8.16851875 53.71073168 -11.17773438 39.74316406 C-14.18789629 36.37296318 -17.75335041 34.53561882 -22 33 C-18.61701091 26.35067662 -14.54865361 20.50654781 -10.10498047 14.54443359 C-6.570047 9.80027586 -3.19813562 4.97937571 0 0 Z " fill="#348ED7" transform="translate(460,109)"/>
<path d="M0 0 C7.51778194 0.75066059 14.93600362 1.8115321 22.37792969 3.11157227 C23.46847656 3.2978418 24.55902344 3.48411133 25.68261719 3.67602539 C28.33186755 4.12918664 30.98023672 4.58691431 33.62792969 5.04907227 C30.67962329 10.41794526 27.38353925 15.38704223 23.81542969 20.36157227 C22.75148471 21.85626223 21.68768213 23.35105356 20.62402344 24.84594727 C19.85614502 25.92199219 19.85614502 25.92199219 19.07275391 27.01977539 C17.15962036 29.70682609 15.2669198 32.40749644 13.37792969 35.11157227 C12.56582031 36.27366211 12.56582031 36.27366211 11.73730469 37.45922852 C11.37121094 37.98387695 11.00511719 38.50852539 10.62792969 39.04907227 C9.88027344 38.55536133 9.13261719 38.06165039 8.36230469 37.55297852 C7.37746094 36.91231445 6.39261719 36.27165039 5.37792969 35.61157227 C3.91613281 34.65444336 3.91613281 34.65444336 2.42480469 33.67797852 C-0.09782001 32.20879625 -1.53488336 31.41604122 -4.37207031 31.04907227 C-6.97335525 31.7487936 -6.97335525 31.7487936 -9.68847656 32.95532227 C-10.69974609 33.36911133 -11.71101563 33.78290039 -12.75292969 34.20922852 C-13.80287109 34.65137695 -14.8528125 35.09352539 -15.93457031 35.54907227 C-18.01563034 36.4222265 -20.10013538 37.28722875 -22.18847656 38.14282227 C-23.11088135 38.53147461 -24.03328613 38.92012695 -24.98364258 39.32055664 C-27.37207031 40.04907227 -27.37207031 40.04907227 -30.37207031 39.04907227 C-26.3533732 33.29975425 -22.33128075 27.55282491 -18.30566406 21.80834961 C-17.05786147 20.0277101 -15.81043775 18.24680501 -14.56347656 16.46557617 C-12.91844186 14.11692544 -11.27069132 11.77020648 -9.62207031 9.42407227 C-9.1215918 8.70872314 -8.62111328 7.99337402 -8.10546875 7.25634766 C-3.04183622 0.06292807 -3.04183622 0.06292807 0 0 Z " fill="#348DD7" transform="translate(375.3720703125,65.950927734375)"/>
<path d="M0 0 C5.28 0 10.56 0 16 0 C16 5.28 16 10.56 16 16 C21.28 16 26.56 16 32 16 C32 21.28 32 26.56 32 32 C26.72 32 21.44 32 16 32 C16 37.28 16 42.56 16 48 C10.72 48 5.44 48 0 48 C0 42.72 0 37.44 0 32 C-5.28 32 -10.56 32 -16 32 C-16 26.72 -16 21.44 -16 16 C-10.72 16 -5.44 16 0 16 C0 10.72 0 5.44 0 0 Z " fill="#FFB431" transform="translate(48,392)"/>
<path d="M0 0 C5.28 0 10.56 0 16 0 C16 5.28 16 10.56 16 16 C21.28 16 26.56 16 32 16 C32 21.28 32 26.56 32 32 C26.72 32 21.44 32 16 32 C16 37.28 16 42.56 16 48 C10.72 48 5.44 48 0 48 C0 42.72 0 37.44 0 32 C-5.28 32 -10.56 32 -16 32 C-16 26.72 -16 21.44 -16 16 C-10.72 16 -5.44 16 0 16 C0 10.72 0 5.44 0 0 Z " fill="#FFB431" transform="translate(464,264)"/>
<path d="M0 0 C1.58694341 0.06465325 3.1711716 0.20216967 4.75 0.375 C5.61109375 0.46523438 6.4721875 0.55546875 7.359375 0.6484375 C9.93678681 0.99158404 12.45716773 1.46033416 15 2 C14.5776307 22.2737265 4.80908631 41.35530797 -3.57299805 59.41259766 C-5.63973409 63.88536662 -7.58273001 68.26789297 -9 73 C-10.75140143 72.54705135 -12.50107344 72.08741252 -14.25 71.625 C-15.22453125 71.36976563 -16.1990625 71.11453125 -17.203125 70.8515625 C-19.66819465 70.10102453 -21.72440585 69.1804112 -24 68 C-22.605403 59.66840763 -19.24708796 52.46116864 -15.6875 44.875 C-9.97538583 32.68743868 -4.7694512 20.42893131 -2.25 7.125 C-1.08864266 1.08864266 -1.08864266 1.08864266 0 0 Z " fill="#FDB683" transform="translate(374,308)"/>
<path d="M0 0 C21.12 0 42.24 0 64 0 C64 5.28 64 10.56 64 16 C42.88 16 21.76 16 0 16 C0 10.72 0 5.44 0 0 Z " fill="#FDB683" transform="translate(200,456)"/>
<path d="M0 0 C1.70930812 0.28589851 3.41740912 0.57901758 5.125 0.875 C6.07632813 1.03742188 7.02765625 1.19984375 8.0078125 1.3671875 C11.10700044 2.02262934 14.01520457 2.94602179 17 4 C12.0569989 21.939983 2.32063956 38.03877062 -11 51 C-11.598125 51.598125 -12.19625 52.19625 -12.8125 52.8125 C-13.204375 53.204375 -13.59625 53.59625 -14 54 C-17.47775179 52.48446596 -19.9557984 50.4226544 -22.75 47.875 C-23.54921875 47.15054688 -24.3484375 46.42609375 -25.171875 45.6796875 C-25.77515625 45.12539062 -26.3784375 44.57109375 -27 44 C-26.1875 42.91666667 -25.375 41.83333333 -24.5625 40.75 C-24.01464844 40.01523438 -23.46679688 39.28046875 -22.90234375 38.5234375 C-21.57759046 36.76616722 -20.23499836 35.02226309 -18.87890625 33.2890625 C-10.94610013 23.03278284 -4.30880286 12.30276607 0 0 Z " fill="#96B267" transform="translate(422,198)"/>
<path d="M0 0 C-1.25752529 8.23895877 -6.63919015 14.32703361 -12.92578125 19.5 C-22.3515701 26.31638967 -32.60073317 28.29136015 -44.0234375 26.53515625 C-51.92233106 24.81932976 -60.3552852 21.9670722 -65 15 C-54.5074949 12.34169021 -43.99112607 9.79738054 -33.46020508 7.29589844 C-25.91034477 5.49058433 -18.39922982 3.56894676 -10.92456055 1.47290039 C-7.19855534 0.45449549 -3.87116763 -0.2590939 0 0 Z " fill="#358ED7" transform="translate(309,77)"/>
<path d="M0 0 C6.51453466 0.55297794 12.13096032 2.17349352 18.25 4.4375 C19.19641357 4.78586914 20.14282715 5.13423828 21.11791992 5.49316406 C28.00460288 8.09803974 34.69724415 11.01894312 41.3125 14.25 C42.17198242 14.6617749 43.03146484 15.0735498 43.91699219 15.49780273 C45.09696777 16.09443726 45.09696777 16.09443726 46.30078125 16.703125 C46.99341064 17.05020508 47.68604004 17.39728516 48.3996582 17.75488281 C50 19 50 19 50.82080078 20.95507812 C51.11631338 24.32730367 49.3038384 26.43941872 47.5625 29.25 C46.90378906 30.32765625 46.24507812 31.4053125 45.56640625 32.515625 C45.04949219 33.33546875 44.53257813 34.1553125 44 35 C39.44570978 34.3927613 35.81419456 32.50015735 31.8125 30.375 C23.1257812 25.89031875 14.15588551 22.39495101 5 19 C3.48937335 18.43415402 1.97894841 17.86776918 0.46875 17.30078125 C-0.6759375 16.87152344 -1.820625 16.44226563 -3 16 C-2.40984815 10.49191603 -1.43336231 5.35121931 0 0 Z " fill="#96B267" transform="translate(25,160)"/>
<path d="M0 0 C2.63153059 1.09602984 4.11080088 2.65109457 5.94140625 4.80859375 C5.94140625 5.46859375 5.94140625 6.12859375 5.94140625 6.80859375 C6.93140625 7.13859375 7.92140625 7.46859375 8.94140625 7.80859375 C9.8671875 9.6015625 9.8671875 9.6015625 9.94140625 11.80859375 C0.97271281 24.2817638 -15.76112281 33.24322964 -30.56640625 36.43359375 C-34.75153313 37.06333071 -38.83329223 36.92761633 -43.05859375 36.80859375 C-43.05859375 31.52859375 -43.05859375 26.24859375 -43.05859375 20.80859375 C-41.16109375 20.58171875 -39.26359375 20.35484375 -37.30859375 20.12109375 C-23.257039 17.92171996 -12.93499389 11.61760527 -3.6640625 0.99609375 C-2.05859375 -0.19140625 -2.05859375 -0.19140625 0 0 Z " fill="#FCB683" transform="translate(155.05859375,371.19140625)"/>
<path d="M0 0 C3.78069622 16.30425247 4.3395734 37.98127981 -1 54 C-3.48088355 53.71937057 -5.95909185 53.42609401 -8.4375 53.125 C-9.14455078 53.04636719 -9.85160156 52.96773437 -10.58007812 52.88671875 C-12.39673432 52.66072324 -14.20062522 52.33699273 -16 52 C-17.53161538 48.93676925 -16.53977739 45.97087128 -16.0625 42.6875 C-15.15194865 35.77541684 -14.80193177 28.97068188 -14.8125 22 C-14.81193604 21.14108154 -14.81137207 20.28216309 -14.81079102 19.3972168 C-14.85736704 13.86644749 -15.30853776 8.48744432 -16 3 C-13.89679937 2.49595192 -11.79240209 1.99689492 -9.6875 1.5 C-7.92986328 1.08234375 -7.92986328 1.08234375 -6.13671875 0.65625 C-3 0 -3 0 0 0 Z " fill="#88A35A" transform="translate(290,122)"/>
<path d="M0 0 C3.85425196 2.19267484 5.93823737 4.22304397 7.75 8.375 C8.51282023 13.70679556 8.45440846 17.94009388 6.0625 22.8125 C1.73896963 27.60343906 -1.46065415 30.14255451 -8 30.6875 C-12.5707643 30.6034786 -15.7695352 29.33559791 -19.25 26.375 C-23.21916462 21.38810087 -23.89794362 17.29633361 -23.62890625 10.9609375 C-22.97569392 6.50293173 -21.17379447 3.92864667 -17.70703125 1.12890625 C-11.92359346 -2.69583865 -6.22853708 -2.75026313 0 0 Z " fill="#FEB231" transform="translate(461.25,49.625)"/>
<path d="M0 0 C3.62276315 1.3255581 6.63505348 2.94346955 9.8125 5.125 C10.60269531 5.66382813 11.39289063 6.20265625 12.20703125 6.7578125 C12.79871094 7.16773438 13.39039063 7.57765625 14 8 C12.48652345 12.13183935 10.46034849 15.84645117 8.2265625 19.62109375 C7.86154633 20.24347427 7.49653015 20.8658548 7.12045288 21.50709534 C6.35050217 22.8182793 5.57887357 24.12847926 4.80566406 25.43774414 C3.63204783 27.4255627 2.46404055 29.41659159 1.296875 31.40820312 C0.54460092 32.68769413 -0.2079929 33.96699721 -0.9609375 35.24609375 C-1.3058725 35.83378036 -1.6508075 36.42146698 -2.00619507 37.02696228 C-4.22166113 40.77265493 -6.55927523 44.39960704 -9 48 C-10.58823638 47.26043955 -12.17040447 46.50784063 -13.75 45.75 C-14.63171875 45.33234375 -15.5134375 44.9146875 -16.421875 44.484375 C-19.09725037 42.94400736 -20.86875131 41.21047726 -23 39 C-22.44538086 38.06728271 -21.89076172 37.13456543 -21.31933594 36.17358398 C-19.24630841 32.68696074 -17.17406595 29.19987143 -15.10205078 25.71264648 C-14.20805659 24.20828898 -13.31385436 22.70405509 -12.41943359 21.19995117 C-11.12802244 19.0281633 -9.83737967 16.85592036 -8.546875 14.68359375 C-8.15191833 14.01976181 -7.75696167 13.35592987 -7.35003662 12.67198181 C-4.85628538 8.47211013 -2.41301057 4.24680247 0 0 Z " fill="#F9A614" transform="translate(368,172)"/>
<path d="M0 0 C0.75410156 0.00322266 1.50820313 0.00644531 2.28515625 0.00976562 C3.06246094 0.01814453 3.83976562 0.02652344 4.640625 0.03515625 C5.43339844 0.03966797 6.22617187 0.04417969 7.04296875 0.04882812 C8.99222008 0.0605706 10.94143238 0.07850479 12.890625 0.09765625 C12.58330513 2.74418756 12.27003178 5.38977125 11.953125 8.03515625 C11.86611328 8.78990234 11.77910156 9.54464844 11.68945312 10.32226562 C11.00390625 15.984375 11.00390625 15.984375 9.890625 17.09765625 C8.08010268 17.23187949 6.266814 17.32929114 4.453125 17.41015625 C-5.086921 18.14574699 -12.25146883 21.85905213 -20.109375 27.09765625 C-23.739375 23.46765625 -27.369375 19.83765625 -31.109375 16.09765625 C-26.81636867 7.51164359 -16.73994197 4.23263788 -8.109375 1.09765625 C-5.33167032 0.29105423 -2.88940213 -0.02188941 0 0 Z " fill="#DE543F" transform="translate(482.109375,197.90234375)"/>
<path d="M0 0 C5.15196053 4.04668252 9.05889161 8.33503444 12.8125 13.6875 C13.28880859 14.35072266 13.76511719 15.01394531 14.25585938 15.69726562 C20 23.719673 20 23.719673 20 27 C15.38 29.31 10.76 31.62 6 34 C5.34 32.68 4.68 31.36 4 30 C3.34 30 2.68 30 2 30 C0.49542707 28.19983318 -0.92911713 26.33238578 -2.3125 24.4375 C-2.71331787 23.8919043 -3.11413574 23.34630859 -3.52709961 22.78417969 C-4.69190011 21.19468044 -5.84615913 19.59747279 -7 18 C-7.56203125 17.22269531 -8.1240625 16.44539063 -8.703125 15.64453125 C-9.80995237 14.10197011 -10.90651286 12.55204626 -12 11 C-10.75323147 9.72599623 -9.5024352 8.45593346 -8.25 7.1875 C-7.55390625 6.47980469 -6.8578125 5.77210938 -6.140625 5.04296875 C-4.18571355 3.17724121 -2.19661447 1.56830358 0 0 Z " fill="#97B267" transform="translate(123,218)"/>
<path d="M0 0 C2.5566496 1.09244148 3.13068524 2.19775638 4.4387207 4.62915039 C4.8634668 5.40645508 5.28821289 6.18375977 5.72583008 6.98461914 C6.15573242 7.80317383 6.58563477 8.62172852 7.02856445 9.46508789 C7.46233398 10.26043945 7.89610352 11.05579102 8.34301758 11.87524414 C10.80617772 16.44165062 13.00282548 21.03819847 14.96606445 25.84008789 C12.67677392 27.01163082 10.38488083 28.17746863 8.09106445 29.34008789 C7.44008789 29.67395508 6.78911133 30.00782227 6.1184082 30.35180664 C1.19262695 32.84008789 1.19262695 32.84008789 -1.03393555 32.84008789 C-2.8303868 29.61356098 -4.62023974 26.38341969 -6.40893555 23.15258789 C-6.91682617 22.24057617 -7.4247168 21.32856445 -7.94799805 20.38891602 C-8.4378418 19.50268555 -8.92768555 18.61645508 -9.43237305 17.70336914 C-9.88273926 16.8916626 -10.33310547 16.07995605 -10.79711914 15.24365234 C-12.04244985 12.82354165 -13.06469637 10.38186818 -14.03393555 7.84008789 C-12.12813625 6.47066921 -10.20886981 5.11997626 -8.28393555 3.77758789 C-7.2165918 3.02348633 -6.14924805 2.26938477 -5.04956055 1.49243164 C-2.03393555 -0.15991211 -2.03393555 -0.15991211 0 0 Z " fill="#FFB430" transform="translate(172.033935546875,27.159912109375)"/>
<path d="M0 0 C5.61 0 11.22 0 17 0 C17.26890861 9.68070983 16.91874865 17.67042842 14 27 C9.80692791 26.40898836 6.08341965 25.43397572 2.125 23.9375 C1.15820312 23.57527344 0.19140625 23.21304688 -0.8046875 22.83984375 C-1.52914063 22.56269531 -2.25359375 22.28554688 -3 22 C-2.690625 20.783125 -2.38125 19.56625 -2.0625 18.3125 C-0.69788871 12.254013 -0.39086746 6.18873486 0 0 Z " fill="#DE543F" transform="translate(367,16)"/>
<path d="M0 0 C5.28 0 10.56 0 16 0 C16 5.28 16 10.56 16 16 C10.72 16 5.44 16 0 16 C0 10.72 0 5.44 0 0 Z " fill="#96B268" transform="translate(456,376)"/>
<path d="M0 0 C5.28 0 10.56 0 16 0 C16 5.28 16 10.56 16 16 C10.72 16 5.44 16 0 16 C0 10.72 0 5.44 0 0 Z " fill="#DE5540" transform="translate(16,352)"/>
<path d="M0 0 C5.28 0 10.56 0 16 0 C16 5.28 16 10.56 16 16 C10.72 16 5.44 16 0 16 C0 10.72 0 5.44 0 0 Z " fill="#DE5540" transform="translate(432,344)"/>
<path d="M0 0 C5.28 0 10.56 0 16 0 C16 5.28 16 10.56 16 16 C10.72 16 5.44 16 0 16 C0 10.72 0 5.44 0 0 Z " fill="#96B268" transform="translate(264,320)"/>
<path d="M0 0 C5.28 0 10.56 0 16 0 C16 5.28 16 10.56 16 16 C10.72 16 5.44 16 0 16 C0 10.72 0 5.44 0 0 Z " fill="#DE5540" transform="translate(296,272)"/>
<path d="M0 0 C5.28 0 10.56 0 16 0 C16 5.28 16 10.56 16 16 C10.72 16 5.44 16 0 16 C0 10.72 0 5.44 0 0 Z " fill="#96B268" transform="translate(336,128)"/>
<path d="M0 0 C5.28 0 10.56 0 16 0 C16 5.28 16 10.56 16 16 C10.72 16 5.44 16 0 16 C0 10.72 0 5.44 0 0 Z " fill="#2B83CC" transform="translate(272,40)"/>
<path d="M0 0 C5.28 0 10.56 0 16 0 C16 5.28 16 10.56 16 16 C10.72 16 5.44 16 0 16 C0 10.72 0 5.44 0 0 Z " fill="#DE5540" transform="translate(112,16)"/>
<path d="M0 0 C5.28 0 10.56 0 16 0 C16.125 12.625 16.125 12.625 15 16 C10.05 16 5.1 16 0 16 C0 10.72 0 5.44 0 0 Z " fill="#FDB683" transform="translate(376,280)"/>
</svg>
