<?xml version="1.0" encoding="UTF-8"?>
<svg version="1.1" xmlns="http://www.w3.org/2000/svg" width="512" height="512">
<path d="M0 0 C0 18.48 0 36.96 0 56 C-8.64705882 56 -8.64705882 56 -13 52 C-18.99349164 49.0853568 -26.0034368 48.78792756 -32.3828125 50.72265625 C-38.88743414 53.77710786 -43.35764759 58.26200136 -46 65 C-47.64228869 72.83245375 -46.515744 79.50823537 -42.33984375 86.39453125 C-38.68511762 90.7738095 -33.01095773 93.72789864 -27.36328125 94.23828125 C-20.34361651 94.40905414 -15.96689611 93.75693459 -10 90 C-9.34 89.34 -8.68 88.68 -8 88 C-5.36 88 -2.72 88 0 88 C0 103.84 0 119.68 0 136 C15.84 136 31.68 136 48 136 C46.44551722 129.9090508 46.44551722 129.9090508 43.4375 125.25 C38.73294783 119.27507915 39.44011704 112.30282117 40 105 C41.68249907 98.27000371 46.52171476 93.95891707 52 90 C57.46207791 86.78829819 64.11485878 86.35428662 70.25 87.6875 C77.75369016 90.31379155 83.57401926 95.14803853 87.1484375 102.296875 C89.24914169 108.96516535 89.26780742 117.33805406 86.1875 123.6875 C84 127 84 127 82.42578125 128.33203125 C80.40139632 130.40987922 80.40139632 130.40987922 80 136 C98.48 136 116.96 136 136 136 C136 155.85103706 136 155.85103706 134.4375 162.875 C134.26114014 163.70104736 134.08478027 164.52709473 133.90307617 165.37817383 C129.4234618 185.14139918 120.74996307 204.20358558 108 220 C107.57380371 220.53689453 107.14760742 221.07378906 106.70849609 221.62695312 C99.38937163 230.78683093 91.38948762 238.93848452 82 246 C81.34 246 80.68 246 80 246 C80 254.58 80 263.16 80 272 C82.248125 271.979375 84.49625 271.95875 86.8125 271.9375 C93.625 271.875 93.625 271.875 97 273 C97.67579102 272.2980249 98.35158203 271.5960498 99.04785156 270.87280273 C101.55481691 268.27544064 104.07821068 265.69457788 106.60693359 263.1184082 C107.69971602 262.00045768 108.78797204 260.87806416 109.87158203 259.7512207 C111.42877344 258.13347977 113.00147045 256.53234285 114.578125 254.93359375 C115.06057678 254.42533554 115.54302856 253.91707733 116.0401001 253.39341736 C117.43457031 251.99780273 117.43457031 251.99780273 120 250 C124.27825399 250.09592498 126.4086377 253.10897867 129.25 256.0625 C130.14203125 256.98160156 131.0340625 257.90070313 131.953125 258.84765625 C132.96632813 259.91306641 132.96632813 259.91306641 134 261 C134.61488281 260.7834375 135.22976563 260.566875 135.86328125 260.34375 C137.07564453 259.92609375 137.07564453 259.92609375 138.3125 259.5 C139.11300781 259.2215625 139.91351563 258.943125 140.73828125 258.65625 C143 258 143 258 146 258 C146 252.06 146 246.12 146 240 C160.52 240 175.04 240 190 240 C190 245.94 190 251.88 190 258 C191.98 258.33 193.96 258.66 196 259 C198.01089078 259.63305821 200.01463373 260.29094062 202 261 C202.77085937 260.2059375 203.54171875 259.411875 204.3359375 258.59375 C205.34869317 257.56223959 206.36172852 256.53100373 207.375 255.5 C207.88289063 254.97535156 208.39078125 254.45070313 208.9140625 253.91015625 C210.23832604 252.56846819 211.61605865 251.28004185 213 250 C213.66 250 214.32 250 215 250 C215 245.71 215 241.42 215 237 C213.35 236.67 211.7 236.34 210 236 C207.32421875 234.58984375 207.32421875 234.58984375 204.6875 232.9375 C203.80449219 232.38964844 202.92148437 231.84179688 202.01171875 231.27734375 C201.34785156 230.85582031 200.68398438 230.43429687 200 230 C199.03578125 230.58910156 198.0715625 231.17820312 197.078125 231.78515625 C195.80247041 232.54492112 194.52640715 233.30400012 193.25 234.0625 C192.61578125 234.45244141 191.9815625 234.84238281 191.328125 235.24414062 C186.61657313 238.01708522 186.61657313 238.01708522 184 237.94458008 C180.98675189 236.52145301 180.143417 234.42693861 178.546875 231.5390625 C177.928125 230.42789063 177.309375 229.31671875 176.671875 228.171875 C176.35669922 227.58986328 176.04152344 227.00785156 175.71679688 226.40820312 C174.75309347 224.63070573 173.76910504 222.86572993 172.78125 221.1015625 C168 212.42299107 168 212.42299107 168 209 C169.76443909 208.08627261 171.53567217 207.18319776 173.33935547 206.34960938 C179.62067735 203.3710644 179.62067735 203.3710644 183.95214844 198.16162109 C185.32526134 193.36980913 185.3055671 188.48344126 183 184 C178.86834437 179.6978316 173.40652119 177.31708051 168 175 C168.59055034 170.81943746 170.01277361 167.87938139 172.16015625 164.26171875 C172.78857422 163.19501953 173.41699219 162.12832031 174.06445312 161.02929688 C174.72380859 159.92650391 175.38316406 158.82371094 176.0625 157.6875 C177.05733398 156.00430664 177.05733398 156.00430664 178.07226562 154.28710938 C179.70846602 151.5208713 181.35121864 148.7587515 183 146 C187.4179711 146.76307433 190.45952999 148.23378186 194.3125 150.5625 C195.38113281 151.20316406 196.44976562 151.84382812 197.55078125 152.50390625 C198.35902344 152.99761719 199.16726563 153.49132812 200 154 C200.83144531 153.4946875 201.66289062 152.989375 202.51953125 152.46875 C204.14955078 151.49421875 204.14955078 151.49421875 205.8125 150.5 C206.89144531 149.8503125 207.97039062 149.200625 209.08203125 148.53125 C212 147 212 147 215 147 C215 140.73 215 134.46 215 128 C225.89 128 236.78 128 248 128 C248 134.27 248 140.54 248 147 C249.65 147.33 251.3 147.66 253 148 C255.67578125 149.41015625 255.67578125 149.41015625 258.3125 151.0625 C259.19550781 151.61035156 260.07851563 152.15820312 260.98828125 152.72265625 C261.65214844 153.14417969 262.31601562 153.56570312 263 154 C263.97582031 153.4225 264.95164062 152.845 265.95703125 152.25 C267.24198889 151.49965977 268.52715612 150.7496784 269.8125 150 C270.45509766 149.6184375 271.09769531 149.236875 271.75976562 148.84375 C276.66015625 146 276.66015625 146 280 146 C282.144543 149.64306144 284.28051959 153.29096576 286.40869141 156.94360352 C287.1338929 158.18553135 287.86141945 159.42610453 288.59130859 160.6652832 C289.63993444 162.44652045 290.68010712 164.23245915 291.71875 166.01953125 C292.34716797 167.09307861 292.97558594 168.16662598 293.62304688 169.27270508 C295 172 295 172 295 175 C292.71125827 176.33858524 290.41930344 177.67101014 288.125 179 C287.47402344 179.3815625 286.82304687 179.763125 286.15234375 180.15625 C281.2265625 183 281.2265625 183 279 183 C279.33 183.99 279.66 184.98 280 186 C280.09435979 187.99820728 280.12990301 189.99957203 280.125 192 C280.12757813 193.051875 280.13015625 194.10375 280.1328125 195.1875 C280 198 280 198 279 201 C279.78375 201.20625 280.5675 201.4125 281.375 201.625 C286.29273755 203.49034873 290.55842103 206.20865195 295 209 C294.40944966 213.18056254 292.98722639 216.12061861 290.83984375 219.73828125 C290.21142578 220.80498047 289.58300781 221.87167969 288.93554688 222.97070312 C288.27619141 224.07349609 287.61683594 225.17628906 286.9375 226.3125 C285.94266602 227.99569336 285.94266602 227.99569336 284.92773438 229.71289062 C283.29153398 232.4791287 281.64878136 235.2412485 280 238 C275.5820289 237.23692567 272.54047001 235.76621814 268.6875 233.4375 C267.61886719 232.79683594 266.55023438 232.15617188 265.44921875 231.49609375 C264.64097656 231.00238281 263.83273437 230.50867188 263 230 C262.16855469 230.5053125 261.33710938 231.010625 260.48046875 231.53125 C258.85044922 232.50578125 258.85044922 232.50578125 257.1875 233.5 C256.10855469 234.1496875 255.02960938 234.799375 253.91796875 235.46875 C251 237 251 237 248 237 C248 243.27 248 249.54 248 256 C239.75 256.33 231.5 256.66 223 257 C224.67191406 258.61390625 226.34382813 260.2278125 228.06640625 261.890625 C229.67446477 263.45970663 231.27820642 265.03307866 232.8815918 266.60693359 C233.99954232 267.69971602 235.12193584 268.78797204 236.2487793 269.87158203 C237.86652023 271.42877344 239.46765715 273.00147045 241.06640625 274.578125 C241.82879356 275.30180267 241.82879356 275.30180267 242.60658264 276.0401001 C244.00219727 277.43457031 244.00219727 277.43457031 246 280 C245.90407502 284.27825399 242.89102133 286.4086377 239.9375 289.25 C239.01839844 290.14203125 238.09929687 291.0340625 237.15234375 291.953125 C236.08693359 292.96632813 236.08693359 292.96632813 235 294 C235.2165625 294.61488281 235.433125 295.22976563 235.65625 295.86328125 C236.07390625 297.07564453 236.07390625 297.07564453 236.5 298.3125 C236.7784375 299.11300781 237.056875 299.91351563 237.34375 300.73828125 C238 303 238 303 238 306 C243.94 306 249.88 306 256 306 C256 320.52 256 335.04 256 350 C250.06 350 244.12 350 238 350 C237.67 351.98 237.34 353.96 237 356 C236.36694179 358.01089078 235.70905938 360.01463373 235 362 C235.80566406 362.74765625 236.61132812 363.4953125 237.44140625 364.265625 C238.48241554 365.25974198 239.52274524 366.25457096 240.5625 367.25 C241.09552734 367.74113281 241.62855469 368.23226563 242.17773438 368.73828125 C243.69140625 370.203125 243.69140625 370.203125 246 373 C245.69868804 376.20247976 244.50208979 377.88061447 242.2878418 380.13208008 C241.72022629 380.71560745 241.15261078 381.29913483 240.5677948 381.90034485 C239.9511647 382.51717636 239.33453461 383.13400787 238.69921875 383.76953125 C238.06643509 384.40992844 237.43365143 385.05032562 236.7816925 385.71012878 C235.4430604 387.05955656 234.1004398 388.40503779 232.75415039 389.74682617 C230.69154334 391.80845858 228.65118717 393.89049643 226.61132812 395.97460938 C225.30859405 397.2825485 224.0045993 398.58923342 222.69921875 399.89453125 C222.08866135 400.52148392 221.47810394 401.14843658 220.8490448 401.79438782 C219.1003418 403.51489258 219.1003418 403.51489258 216 406 C211.67940181 405.57092737 209.67805363 402.9811347 206.75 399.9375 C205.85796875 399.01839844 204.9659375 398.09929687 204.046875 397.15234375 C203.03367187 396.08693359 203.03367187 396.08693359 202 395 C201.38511719 395.2165625 200.77023437 395.433125 200.13671875 395.65625 C198.92435547 396.07390625 198.92435547 396.07390625 197.6875 396.5 C196.88699219 396.7784375 196.08648437 397.056875 195.26171875 397.34375 C193 398 193 398 190 398 C190 403.94 190 409.88 190 416 C175.48 416 160.96 416 146 416 C146 410.06 146 404.12 146 398 C144.02 397.67 142.04 397.34 140 397 C137.98910922 396.36694179 135.98536627 395.70905938 134 395 C133.25234375 395.80566406 132.5046875 396.61132812 131.734375 397.44140625 C130.74025802 398.48241554 129.74542904 399.52274524 128.75 400.5625 C128.25886719 401.09552734 127.76773437 401.62855469 127.26171875 402.17773438 C125.796875 403.69140625 125.796875 403.69140625 123 406 C119.79752024 405.69868804 118.11938553 404.50208979 115.86791992 402.2878418 C115.28439255 401.72022629 114.70086517 401.15261078 114.09965515 400.5677948 C113.48282364 399.9511647 112.86599213 399.33453461 112.23046875 398.69921875 C111.59007156 398.06643509 110.94967438 397.43365143 110.28987122 396.7816925 C108.94044344 395.4430604 107.59496221 394.1004398 106.25317383 392.75415039 C104.19154142 390.69154334 102.10950357 388.65118717 100.02539062 386.61132812 C98.7174515 385.30859405 97.41076658 384.0045993 96.10546875 382.69921875 C95.47851608 382.08866135 94.85156342 381.47810394 94.20561218 380.8490448 C92.48510742 379.1003418 92.48510742 379.1003418 90 376 C90.42907263 371.67940181 93.0188653 369.67805363 96.0625 366.75 C97.44115234 365.41195312 97.44115234 365.41195312 98.84765625 364.046875 C99.91306641 363.03367187 99.91306641 363.03367187 101 362 C100.7834375 361.38511719 100.566875 360.77023437 100.34375 360.13671875 C99.92609375 358.92435547 99.92609375 358.92435547 99.5 357.6875 C99.2215625 356.88699219 98.943125 356.08648437 98.65625 355.26171875 C98 353 98 353 98 350 C92.06 350 86.12 350 80 350 C79.34 352.495625 78.68 354.99125 78 357.5625 C72.1552658 378.03191743 59.6181494 395.19932794 41.15039062 406.09082031 C36.898693 408.40931717 32.52404217 410.2834053 28 412 C26.88882813 412.433125 25.77765625 412.86625 24.6328125 413.3125 C4.6316336 419.84349719 -17.7327544 417.24322972 -36.375 408.1875 C-42.46004784 405.07747734 -47.84123805 401.50127268 -53 397 C-53.96808594 396.22785156 -54.93617187 395.45570313 -55.93359375 394.66015625 C-69.25925534 383.53665208 -77.05690342 365.784569 -80 349 C-80.27120625 344.63846999 -80.26472565 340.36061969 -80 336 C-80.94101563 336.04640625 -81.88203125 336.0928125 -82.8515625 336.140625 C-93.02827225 336.43560209 -93.02827225 336.43560209 -97.625 334.375 C-102.28491201 329.71508799 -104.25257203 326.66406003 -104.5 320 C-104.3230613 314.90037389 -103.55408246 311.850256 -100 308 C-96.6 305 -96.6 305 -94 305 C-94 304.34 -94 303.68 -94 303 C-95.11375 302.6596875 -95.11375 302.6596875 -96.25 302.3125 C-100.09146563 300.47907322 -102.11488412 297.77023176 -104 294 C-104.50502343 288.46957948 -104.73807257 283.58969476 -102.375 278.5 C-98.55433984 274.47825247 -96.27032257 272.15709821 -90.5 271.7578125 C-86.99907621 271.75075419 -83.49844091 271.86798336 -80 272 C-80 263.42 -80 254.84 -80 246 C-81.32 245.34 -82.64 244.68 -84 244 C-112.40696596 222.18227872 -130.18834715 190.42801318 -135.71817017 155.15994263 C-136.53694032 148.88489174 -136.49315544 142.56707106 -136.4375 136.25 C-136.43445862 135.51153839 -136.43141724 134.77307678 -136.42828369 134.01223755 C-136.35536819 121.99171216 -135.45122726 110.56450047 -132 99 C-131.67854004 97.90679443 -131.67854004 97.90679443 -131.35058594 96.79150391 C-121.64881368 64.84061639 -101.02668899 37.96844902 -73 20 C-72.02289063 19.37222656 -71.04578125 18.74445313 -70.0390625 18.09765625 C-48.54870709 4.932653 -24.93832824 0 0 0 Z M219 182 C216.37119109 185.81601294 215.39357025 189.23452854 215.58203125 193.91015625 C216.58512192 198.92560962 219.49634392 202.80478619 223.4375 205.9375 C229.1559433 208.30856186 233.21203805 208.31518478 239 206 C242.85123943 202.84898592 245.36787822 199.71501847 247 195 C247.26945285 189.00736871 245.9578574 184.6175003 242 180 C238.07339724 176.43036113 233.81906473 176.43494687 228.7265625 176.5859375 C224.50311246 177.22732103 221.87723686 178.89323997 219 182 Z M139.25 300.125 C130.68911962 309.19304155 128.49861029 319.92813552 128.7265625 331.8828125 C129.22168474 342.57451157 134.48636032 350.73650654 142.06640625 357.97265625 C151.05470734 365.54598329 160.5398775 367.89827154 172.12890625 367.37890625 C183.76322414 366.24012841 192.37405844 360.57821408 199.8125 351.75 C207.00027609 341.78740803 208.55735719 330.99397479 207 319 C204.36769169 307.96455362 197.35392363 299.44902016 187.8125 293.5 C171.2364479 284.4608318 153.20937018 287.65584581 139.25 300.125 Z M94 303 C94 303.66 94 304.32 94 305 C95.32 305.33 96.64 305.66 98 306 C98.33 304.35 98.66 302.7 99 301 C97.15953612 301 95.60370406 302.17228177 94 303 Z " fill="#D0D8DA" transform="translate(176,72)"/>
<path d="M0 0 C0 18.48 0 36.96 0 56 C-8.64705882 56 -8.64705882 56 -13 52 C-18.99349164 49.0853568 -26.0034368 48.78792756 -32.3828125 50.72265625 C-38.88743414 53.77710786 -43.35764759 58.26200136 -46 65 C-47.64228869 72.83245375 -46.515744 79.50823537 -42.33984375 86.39453125 C-38.68511762 90.7738095 -33.01095773 93.72789864 -27.36328125 94.23828125 C-20.34361651 94.40905414 -15.96689611 93.75693459 -10 90 C-9.34 89.34 -8.68 88.68 -8 88 C-5.36 88 -2.72 88 0 88 C0 119.68 0 151.36 0 184 C7.13557162 182.98063263 8.03621289 182.42424503 13 178 C18.80265089 175.180742 25.06872351 175.09176243 31.31640625 176.53515625 C39.03150073 179.21421183 43.22054895 183.92079745 47 191 C49.18535897 197.55607691 48.73172198 204.95988841 45.98046875 211.2890625 C44.40121341 214.04489453 42.39796656 215.94460009 40 218 C39.175 218.721875 38.35 219.44375 37.5 220.1875 C31.42127412 224.59457626 25.29285271 224.78407613 18 224 C14.39202569 222.83372805 11.14612597 221.41250387 8.72265625 218.42578125 C6.46106349 216.30128383 6.46106349 216.30128383 0 216 C0 234.48 0 252.96 0 272 C-26.4 272 -52.8 272 -80 272 C-80 263.42 -80 254.84 -80 246 C-81.32 245.34 -82.64 244.68 -84 244 C-112.40696596 222.18227872 -130.18834715 190.42801318 -135.71817017 155.15994263 C-136.53694032 148.88489174 -136.49315544 142.56707106 -136.4375 136.25 C-136.43445862 135.51153839 -136.43141724 134.77307678 -136.42828369 134.01223755 C-136.35536819 121.99171216 -135.45122726 110.56450047 -132 99 C-131.67854004 97.90679443 -131.67854004 97.90679443 -131.35058594 96.79150391 C-121.64881368 64.84061639 -101.02668899 37.96844902 -73 20 C-72.02289063 19.37222656 -71.04578125 18.74445313 -70.0390625 18.09765625 C-48.54870709 4.932653 -24.93832824 0 0 0 Z " fill="#EF5350" transform="translate(176,72)"/>
<path d="M0 0 C10.89 0 21.78 0 33 0 C33 6.27 33 12.54 33 19 C34.65 19.33 36.3 19.66 38 20 C40.67578125 21.41015625 40.67578125 21.41015625 43.3125 23.0625 C44.19550781 23.61035156 45.07851563 24.15820312 45.98828125 24.72265625 C46.65214844 25.14417969 47.31601562 25.56570312 48 26 C48.97582031 25.4225 49.95164062 24.845 50.95703125 24.25 C52.24198889 23.49965977 53.52715612 22.7496784 54.8125 22 C55.45509766 21.6184375 56.09769531 21.236875 56.75976562 20.84375 C61.66015625 18 61.66015625 18 65 18 C67.144543 21.64306144 69.28051959 25.29096576 71.40869141 28.94360352 C72.1338929 30.18553135 72.86141945 31.42610453 73.59130859 32.6652832 C74.63993444 34.44652045 75.68010712 36.23245915 76.71875 38.01953125 C77.34716797 39.09307861 77.97558594 40.16662598 78.62304688 41.27270508 C80 44 80 44 80 47 C77.71125827 48.33858524 75.41930344 49.67101014 73.125 51 C72.14853516 51.57234375 72.14853516 51.57234375 71.15234375 52.15625 C66.2265625 55 66.2265625 55 64 55 C64.33 55.99 64.66 56.98 65 58 C65.09435979 59.99820728 65.12990301 61.99957203 65.125 64 C65.12757813 65.051875 65.13015625 66.10375 65.1328125 67.1875 C65 70 65 70 64 73 C64.78375 73.20625 65.5675 73.4125 66.375 73.625 C71.29273755 75.49034873 75.55842103 78.20865195 80 81 C79.40944966 85.18056254 77.98722639 88.12061861 75.83984375 91.73828125 C75.21142578 92.80498047 74.58300781 93.87167969 73.93554688 94.97070312 C72.94651367 96.62489258 72.94651367 96.62489258 71.9375 98.3125 C71.27427734 99.43462891 70.61105469 100.55675781 69.92773438 101.71289062 C68.29153398 104.4791287 66.64878136 107.2412485 65 110 C60.5820289 109.23692567 57.54047001 107.76621814 53.6875 105.4375 C52.61886719 104.79683594 51.55023438 104.15617187 50.44921875 103.49609375 C49.64097656 103.00238281 48.83273437 102.50867188 48 102 C47.16855469 102.5053125 46.33710938 103.010625 45.48046875 103.53125 C44.39378906 104.1809375 43.30710937 104.830625 42.1875 105.5 C41.10855469 106.1496875 40.02960938 106.799375 38.91796875 107.46875 C36 109 36 109 33 109 C33 115.27 33 121.54 33 128 C20.625 128.495 20.625 128.495 8 129 C10.50787109 131.42085938 10.50787109 131.42085938 13.06640625 133.890625 C14.67446477 135.45970663 16.27820642 137.03307866 17.8815918 138.60693359 C18.99954232 139.69971602 20.12193584 140.78797204 21.2487793 141.87158203 C22.86652023 143.42877344 24.46765715 145.00147045 26.06640625 146.578125 C26.57466446 147.06057678 27.08292267 147.54302856 27.60658264 148.0401001 C29.00219727 149.43457031 29.00219727 149.43457031 31 152 C30.90407502 156.27825399 27.89102133 158.4086377 24.9375 161.25 C23.55884766 162.58804688 23.55884766 162.58804688 22.15234375 163.953125 C21.08693359 164.96632813 21.08693359 164.96632813 20 166 C20.2165625 166.61488281 20.433125 167.22976563 20.65625 167.86328125 C20.9346875 168.67152344 21.213125 169.47976563 21.5 170.3125 C21.91765625 171.51326172 21.91765625 171.51326172 22.34375 172.73828125 C23 175 23 175 23 178 C28.94 178 34.88 178 41 178 C41 192.52 41 207.04 41 222 C35.06 222 29.12 222 23 222 C22.67 223.98 22.34 225.96 22 228 C21.36694179 230.01089078 20.70905938 232.01463373 20 234 C21.20849609 235.12148438 21.20849609 235.12148438 22.44140625 236.265625 C23.48241554 237.25974198 24.52274524 238.25457096 25.5625 239.25 C26.09552734 239.74113281 26.62855469 240.23226562 27.17773438 240.73828125 C28.69140625 242.203125 28.69140625 242.203125 31 245 C30.69868804 248.20247976 29.50208979 249.88061447 27.2878418 252.13208008 C26.72022629 252.71560745 26.15261078 253.29913483 25.5677948 253.90034485 C24.9511647 254.51717636 24.33453461 255.13400787 23.69921875 255.76953125 C23.06643509 256.40992844 22.43365143 257.05032562 21.7816925 257.71012878 C20.4430604 259.05955656 19.1004398 260.40503779 17.75415039 261.74682617 C15.69154334 263.80845858 13.65118717 265.89049643 11.61132812 267.97460938 C10.30859405 269.2825485 9.0045993 270.58923342 7.69921875 271.89453125 C7.08866135 272.52148392 6.47810394 273.14843658 5.8490448 273.79438782 C4.1003418 275.51489258 4.1003418 275.51489258 1 278 C-3.32059819 277.57092737 -5.32194637 274.9811347 -8.25 271.9375 C-9.14203125 271.01839844 -10.0340625 270.09929687 -10.953125 269.15234375 C-11.62859375 268.44207031 -12.3040625 267.73179687 -13 267 C-13.61488281 267.2165625 -14.22976563 267.433125 -14.86328125 267.65625 C-16.07564453 268.07390625 -16.07564453 268.07390625 -17.3125 268.5 C-18.51326172 268.91765625 -18.51326172 268.91765625 -19.73828125 269.34375 C-22 270 -22 270 -25 270 C-25 275.94 -25 281.88 -25 288 C-39.52 288 -54.04 288 -69 288 C-69 282.06 -69 276.12 -69 270 C-70.98 269.67 -72.96 269.34 -75 269 C-77.01089078 268.36694179 -79.01463373 267.70905938 -81 267 C-81.74765625 267.80566406 -82.4953125 268.61132812 -83.265625 269.44140625 C-84.25974198 270.48241554 -85.25457096 271.52274524 -86.25 272.5625 C-86.74113281 273.09552734 -87.23226562 273.62855469 -87.73828125 274.17773438 C-89.203125 275.69140625 -89.203125 275.69140625 -92 278 C-95.20247976 277.69868804 -96.88061447 276.50208979 -99.13208008 274.2878418 C-99.71560745 273.72022629 -100.29913483 273.15261078 -100.90034485 272.5677948 C-101.51717636 271.9511647 -102.13400787 271.33453461 -102.76953125 270.69921875 C-103.40992844 270.06643509 -104.05032562 269.43365143 -104.71012878 268.7816925 C-106.05955656 267.4430604 -107.40503779 266.1004398 -108.74682617 264.75415039 C-110.80845858 262.69154334 -112.89049643 260.65118717 -114.97460938 258.61132812 C-116.2825485 257.30859405 -117.58923342 256.0045993 -118.89453125 254.69921875 C-119.83496025 253.78338264 -119.83496025 253.78338264 -120.79438782 252.8490448 C-122.51489258 251.1003418 -122.51489258 251.1003418 -125 248 C-124.57092737 243.67940181 -121.9811347 241.67805363 -118.9375 238.75 C-118.01839844 237.85796875 -117.09929687 236.9659375 -116.15234375 236.046875 C-115.08693359 235.03367187 -115.08693359 235.03367187 -114 234 C-114.2165625 233.38511719 -114.433125 232.77023437 -114.65625 232.13671875 C-114.9346875 231.32847656 -115.213125 230.52023437 -115.5 229.6875 C-115.7784375 228.88699219 -116.056875 228.08648437 -116.34375 227.26171875 C-117 225 -117 225 -117 222 C-122.94 222 -128.88 222 -135 222 C-135 207.48 -135 192.96 -135 178 C-129.06 178 -123.12 178 -117 178 C-116.505 175.03 -116.505 175.03 -116 172 C-115.01 170.02 -114.02 168.04 -113 166 C-116.96 162.04 -120.92 158.08 -125 154 C-123.00396258 151.66317571 -121.00393841 149.33003789 -119 147 C-118.48469727 146.39873291 -117.96939453 145.79746582 -117.43847656 145.17797852 C-112.89786656 139.92901683 -108.17247077 134.89134203 -103.3125 129.9375 C-102.56677734 129.15439453 -101.82105469 128.37128906 -101.05273438 127.56445312 C-100.33021484 126.83033203 -99.60769531 126.09621094 -98.86328125 125.33984375 C-98.21657471 124.67331787 -97.56986816 124.00679199 -96.90356445 123.32006836 C-95 122 -95 122 -92.91967773 122.1484375 C-89.90454548 123.48593989 -88.02066934 125.70219897 -85.75 128.0625 C-84.41195312 129.44115234 -84.41195312 129.44115234 -83.046875 130.84765625 C-82.03367187 131.91306641 -82.03367187 131.91306641 -81 133 C-80.38511719 132.7834375 -79.77023437 132.566875 -79.13671875 132.34375 C-77.92435547 131.92609375 -77.92435547 131.92609375 -76.6875 131.5 C-75.48673828 131.08234375 -75.48673828 131.08234375 -74.26171875 130.65625 C-72 130 -72 130 -69 130 C-69 124.06 -69 118.12 -69 112 C-54.48 112 -39.96 112 -25 112 C-25 117.94 -25 123.88 -25 130 C-23.02 130.33 -21.04 130.66 -19 131 C-16.98910922 131.63305821 -14.98536627 132.29094062 -13 133 C-11.84371094 131.80890625 -11.84371094 131.80890625 -10.6640625 130.59375 C-9.65130683 129.56223959 -8.63827148 128.53100373 -7.625 127.5 C-7.11710937 126.97535156 -6.60921875 126.45070313 -6.0859375 125.91015625 C-4.76167396 124.56846819 -3.38394135 123.28004185 -2 122 C-1.34 122 -0.68 122 0 122 C0 117.71 0 113.42 0 109 C-1.65 108.67 -3.3 108.34 -5 108 C-7.67578125 106.58984375 -7.67578125 106.58984375 -10.3125 104.9375 C-11.63701172 104.11572266 -11.63701172 104.11572266 -12.98828125 103.27734375 C-13.65214844 102.85582031 -14.31601562 102.43429687 -15 102 C-15.96421875 102.58910156 -16.9284375 103.17820312 -17.921875 103.78515625 C-19.19752959 104.54492112 -20.47359285 105.30400012 -21.75 106.0625 C-22.38421875 106.45244141 -23.0184375 106.84238281 -23.671875 107.24414062 C-28.38342687 110.01708522 -28.38342687 110.01708522 -31 109.94458008 C-34.01324811 108.52145301 -34.856583 106.42693861 -36.453125 103.5390625 C-37.071875 102.42789063 -37.690625 101.31671875 -38.328125 100.171875 C-38.64330078 99.58986328 -38.95847656 99.00785156 -39.28320312 98.40820312 C-40.24690653 96.63070573 -41.23089496 94.86572993 -42.21875 93.1015625 C-47 84.42299107 -47 84.42299107 -47 81 C-45.23556091 80.08627261 -43.46432783 79.18319776 -41.66064453 78.34960938 C-35.37932265 75.3710644 -35.37932265 75.3710644 -31.04785156 70.16162109 C-29.67473866 65.36980913 -29.6944329 60.48344126 -32 56 C-36.13165563 51.6978316 -41.59347881 49.31708051 -47 47 C-46.40944966 42.81943746 -44.98722639 39.87938139 -42.83984375 36.26171875 C-42.21142578 35.19501953 -41.58300781 34.12832031 -40.93554688 33.02929688 C-40.27619141 31.92650391 -39.61683594 30.82371094 -38.9375 29.6875 C-38.27427734 28.56537109 -37.61105469 27.44324219 -36.92773438 26.28710938 C-35.29153398 23.5208713 -33.64878136 20.7587515 -32 18 C-27.5820289 18.76307433 -24.54047001 20.23378186 -20.6875 22.5625 C-19.08455078 23.52349609 -19.08455078 23.52349609 -17.44921875 24.50390625 C-16.64097656 24.99761719 -15.83273437 25.49132812 -15 26 C-14.16855469 25.4946875 -13.33710938 24.989375 -12.48046875 24.46875 C-11.39378906 23.8190625 -10.30710937 23.169375 -9.1875 22.5 C-7.56908203 21.52546875 -7.56908203 21.52546875 -5.91796875 20.53125 C-3 19 -3 19 0 19 C0 12.73 0 6.46 0 0 Z M4 54 C1.37119109 57.81601294 0.39357025 61.23452854 0.58203125 65.91015625 C1.58512192 70.92560962 4.49634392 74.80478619 8.4375 77.9375 C14.1559433 80.30856186 18.21203805 80.31518478 24 78 C27.85123943 74.84898592 30.36787822 71.71501847 32 67 C32.26945285 61.00736871 30.9578574 56.6175003 27 52 C23.07339724 48.43036113 18.81906473 48.43494687 13.7265625 48.5859375 C9.50311246 49.22732103 6.87723686 50.89323997 4 54 Z M-75.75 172.125 C-84.31088038 181.19304155 -86.50138971 191.92813552 -86.2734375 203.8828125 C-85.77831526 214.57451157 -80.51363968 222.73650654 -72.93359375 229.97265625 C-63.94529266 237.54598329 -54.4601225 239.89827154 -42.87109375 239.37890625 C-31.23677586 238.24012841 -22.62594156 232.57821408 -15.1875 223.75 C-7.99972391 213.78740803 -6.44264281 202.99397479 -8 191 C-10.63230831 179.96455362 -17.64607637 171.44902016 -27.1875 165.5 C-43.7635521 156.4608318 -61.79062982 159.65584581 -75.75 172.125 Z " fill="#FFD000" transform="translate(391,200)"/>
<path d="M0 0 C5.54263147 4.63868299 9.39915802 9.42452708 10.15625 16.79296875 C10.2382192 24.22757501 9.95368593 29.26432917 5.8203125 35.5234375 C5.30082031 35.96300781 4.78132813 36.40257812 4.24609375 36.85546875 C2.22170882 38.93331672 2.22170882 38.93331672 1.8203125 44.5234375 C20.3003125 44.5234375 38.7803125 44.5234375 57.8203125 44.5234375 C57.8203125 64.37447456 57.8203125 64.37447456 56.2578125 71.3984375 C56.08145264 72.22448486 55.90509277 73.05053223 55.72338867 73.90161133 C51.2437743 93.66483668 42.57027557 112.72702308 29.8203125 128.5234375 C29.18101807 129.3287793 29.18101807 129.3287793 28.52880859 130.15039062 C21.20968413 139.31026843 13.20980012 147.46192202 3.8203125 154.5234375 C3.1603125 154.5234375 2.5003125 154.5234375 1.8203125 154.5234375 C1.8203125 163.1034375 1.8203125 171.6834375 1.8203125 180.5234375 C-24.5796875 180.5234375 -50.9796875 180.5234375 -78.1796875 180.5234375 C-78.1796875 162.0434375 -78.1796875 143.5634375 -78.1796875 124.5234375 C-70.57314271 124.5234375 -70.31575555 124.83398406 -65.1796875 129.5234375 C-59.66921692 132.2368564 -54.19879705 132.17921597 -48.1796875 131.5234375 C-45.25552642 130.52194776 -42.79325614 129.15097797 -40.1796875 127.5234375 C-39.46941406 127.183125 -38.75914062 126.8428125 -38.02734375 126.4921875 C-35.53722202 125.18658456 -35.2119357 124.13846628 -34.1796875 121.5234375 C-33.6434375 120.3478125 -33.1071875 119.1721875 -32.5546875 117.9609375 C-30.19652896 111.46693168 -29.9265608 104.48393406 -32.8671875 98.1484375 C-36.1015524 92.57940779 -40.72335082 87.88801169 -47.00390625 85.96484375 C-53.97048579 84.55151612 -60.27951219 84.90278971 -66.5234375 88.35546875 C-68.25459282 89.45711286 -68.25459282 89.45711286 -69.4609375 91.16015625 C-71.1796875 92.5234375 -71.1796875 92.5234375 -78.1796875 92.5234375 C-78.1796875 76.6834375 -78.1796875 60.8434375 -78.1796875 44.5234375 C-62.3396875 44.5234375 -46.4996875 44.5234375 -30.1796875 44.5234375 C-31.73417028 38.4324883 -31.73417028 38.4324883 -34.7421875 33.7734375 C-39.44673967 27.79851665 -38.73957046 20.82625867 -38.1796875 13.5234375 C-36.49718843 6.79344121 -31.65797274 2.48235457 -26.1796875 -1.4765625 C-17.81076914 -6.09984137 -7.78082637 -5.44972859 0 0 Z " fill="#48C9E3" transform="translate(254.1796875,163.4765625)"/>
<path d="M0 0 C5.7372689 0.71715861 10.2477858 1.48510455 15.5 3.5 C16.52323364 3.88986084 16.52323364 3.88986084 17.56713867 4.28759766 C33.98487521 10.79603735 48.22326334 20.91280151 61 33 C61.81210937 33.74765625 62.62421875 34.4953125 63.4609375 35.265625 C81.40845656 52.36389237 92.4500384 74.31863299 99 98 C99.28810547 99.01368652 99.28810547 99.01368652 99.58203125 100.04785156 C102.36505044 110.36732922 102.30162954 120.9515004 102.375 131.5625 C102.38312714 132.25525024 102.39125427 132.94800049 102.39962769 133.66174316 C102.4987509 144.95543762 101.59524314 156.21427059 98 167 C90.97111724 165.68396144 84.08145965 164.04562145 77.1796875 162.1796875 C76.19501495 161.91616486 75.21034241 161.65264221 74.1958313 161.38113403 C71.08808727 160.54870646 67.98153387 159.7119311 64.875 158.875 C62.75268175 158.30570028 60.6302866 157.73668716 58.5078125 157.16796875 C53.33764864 155.78195553 48.16845198 154.39238241 43 153 C43.78662109 146.24169922 43.78662109 146.24169922 45.70703125 144.06640625 C46.40183594 143.57011719 47.09664063 143.07382813 47.8125 142.5625 C53.04816407 138.30441055 55.55893985 134.6663125 56.375 127.8828125 C56.62270127 121.17939692 56.34728652 115.34582292 52 110 C46.55952393 104.72474446 41.16673835 102.46297093 33.625 101.625 C26.41735515 102.37061843 20.60145969 105.3467781 16 111 C11.20874776 117.21567858 11.16294544 123.31077788 12 131 C12.63001928 132.68086226 13.29154162 134.35066409 14 136 C14.31578947 141.36842105 14.31578947 141.36842105 13 144 C7.20787973 143.3966029 1.80295146 142.29912314 -3.8046875 140.75 C-5.0124736 140.42273926 -5.0124736 140.42273926 -6.24465942 140.08886719 C-7.93105543 139.63081196 -9.6167497 139.17016592 -11.30175781 138.70703125 C-13.8870941 137.99667699 -16.47456407 137.29456775 -19.0625 136.59375 C-20.70585866 136.14630868 -22.34909247 135.69840848 -23.9921875 135.25 C-24.76609833 135.03956055 -25.54000916 134.82912109 -26.33737183 134.61230469 C-31.76652064 133.11673968 -31.76652064 133.11673968 -34 132 C-33.38777755 126.11797761 -32.25693972 120.60969639 -30.71484375 114.90625 C-30.49429825 114.07411987 -30.27375275 113.24198975 -30.04652405 112.38464355 C-29.34840484 109.75509884 -28.6430818 107.12755096 -27.9375 104.5 C-27.45980694 102.70585677 -26.98258875 100.91158704 -26.50585938 99.1171875 C-25.34272313 94.74331031 -24.17312698 90.37120765 -23 86 C-26.75277752 85.15084834 -28.73127715 84.9644193 -32.3125 86.4375 C-39.79685806 89.10519198 -45.41943534 88.4661621 -52.6015625 85.328125 C-57.87714351 82.4067935 -62.49099102 77.92340564 -64.55859375 72.13671875 C-66.24014108 63.99683919 -65.78254121 56.42404217 -61.625 49.16015625 C-57.85268482 44.14551612 -52.9186926 40.96699065 -47 39 C-39.44759799 38.09286792 -32.35682723 38.55389541 -26 43 C-24.06851042 45.00952956 -22.35307212 47.04720739 -20.703125 49.29296875 C-18.79385011 51.52279585 -18.79385011 51.52279585 -14 52 C-9.38 34.84 -4.76 17.68 0 0 Z " fill="#EF5350" transform="translate(274,24)"/>
<path d="M0 0 C0 18.48 0 36.96 0 56 C-8.64705882 56 -8.64705882 56 -13 52 C-18.99349164 49.0853568 -26.0034368 48.78792756 -32.3828125 50.72265625 C-38.88743414 53.77710786 -43.35764759 58.26200136 -46 65 C-47.64228869 72.83245375 -46.515744 79.50823537 -42.33984375 86.39453125 C-38.68511762 90.7738095 -33.01095773 93.72789864 -27.36328125 94.23828125 C-20.34361651 94.40905414 -15.96689611 93.75693459 -10 90 C-9.34 89.34 -8.68 88.68 -8 88 C-5.36 88 -2.72 88 0 88 C0 103.84 0 119.68 0 136 C-15.84 136 -31.68 136 -48 136 C-46.99123788 143.1053905 -46.99123788 143.1053905 -43 148 C-39.91381402 153.62126733 -39.00105005 158.6162341 -40 165 C-42.54967705 172.69435873 -46.76897703 178.18658683 -53.91015625 182.02734375 C-60.49929198 184.86997288 -66.91638558 185.06271349 -73.625 182.5 C-79.67398925 179.50723084 -83.9749927 174.52146833 -86.9375 168.5 C-89.17056588 161.14401827 -88.16134658 154.89386082 -85 148 C-84.29875 147.13375 -83.5975 146.2675 -82.875 145.375 C-80.34106405 142.5742597 -80.34106405 142.5742597 -80 136 C-98.48 136 -116.96 136 -136 136 C-136 116.21425144 -136 116.21425144 -134.375 109 C-134.19678711 108.16952148 -134.01857422 107.33904297 -133.83496094 106.48339844 C-125.73993905 70.55574632 -103.92201182 39.82469614 -73 20 C-72.02289063 19.37222656 -71.04578125 18.74445313 -70.0390625 18.09765625 C-48.54870709 4.932653 -24.93832824 0 0 0 Z " fill="#FFCF00" transform="translate(176,72)"/>
<path d="M0 0 C1.88354492 0.83374023 1.88354492 0.83374023 3.88354492 2.83374023 C3.54706596 8.10524397 2.07056785 13.02944626 0.60229492 18.08764648 C-1.08333772 24.5278625 -1.2402937 30.59360567 -1.17895508 37.20874023 C-1.17444336 38.13557617 -1.16993164 39.06241211 -1.1652832 40.01733398 C-1.15357081 42.28953732 -1.1371688 44.56160411 -1.11645508 46.83374023 C-0.7271582 46.27686523 -0.33786133 45.71999023 0.06323242 45.14624023 C9.127778 32.78169879 21.70494004 24.62251617 36.88354492 21.83374023 C53.82214344 19.91811272 68.32043344 24.26690946 82.02416992 34.41967773 C92.02704067 42.55178258 100.34335413 55.87925878 101.88354492 68.83374023 C103.13556374 86.2079091 99.47136591 102.15478441 87.94604492 115.70874023 C84.64196824 119.39864328 80.94077266 122.03127487 76.88354492 124.83374023 C89.87838513 125.18671879 101.66669178 125.04057721 114.09448242 120.71655273 C117.21530938 119.72872796 118.80399028 119.80722202 121.88354492 120.83374023 C122.54354492 121.49374023 123.20354492 122.15374023 123.88354492 122.83374023 C123.54314587 126.02957853 122.38653307 127.71344124 120.17138672 129.96582031 C119.60377121 130.54934769 119.0361557 131.13287506 118.45133972 131.73408508 C117.83470963 132.3509166 117.21807953 132.96774811 116.58276367 133.60327148 C115.94998001 134.24366867 115.31719635 134.88406586 114.66523743 135.54386902 C113.32660532 136.8932968 111.98398473 138.23877802 110.63769531 139.58056641 C108.57508826 141.64219881 106.53473209 143.72423666 104.49487305 145.80834961 C103.19213898 147.11628873 101.88814423 148.42297366 100.58276367 149.72827148 C99.97220627 150.35522415 99.36164886 150.98217682 98.73258972 151.62812805 C96.98388672 153.34863281 96.98388672 153.34863281 93.88354492 155.83374023 C89.56294673 155.40466761 87.56159856 152.81487493 84.63354492 149.77124023 C83.29549805 148.39258789 83.29549805 148.39258789 81.93041992 146.98608398 C81.25495117 146.27581055 80.57948242 145.56553711 79.88354492 144.83374023 C79.26866211 145.05030273 78.6537793 145.26686523 78.02026367 145.48999023 C76.80790039 145.90764648 76.80790039 145.90764648 75.57104492 146.33374023 C74.3702832 146.75139648 74.3702832 146.75139648 73.14526367 147.17749023 C70.88354492 147.83374023 70.88354492 147.83374023 67.88354492 147.83374023 C67.88354492 153.77374023 67.88354492 159.71374023 67.88354492 165.83374023 C53.36354492 165.83374023 38.84354492 165.83374023 23.88354492 165.83374023 C23.88354492 159.89374023 23.88354492 153.95374023 23.88354492 147.83374023 C21.90354492 147.50374023 19.92354492 147.17374023 17.88354492 146.83374023 C15.87265414 146.20068202 13.86891119 145.54279962 11.88354492 144.83374023 C11.13588867 145.6394043 10.38823242 146.44506836 9.61791992 147.27514648 C8.62380294 148.31615578 7.62897396 149.35648548 6.63354492 150.39624023 C6.14241211 150.92926758 5.6512793 151.46229492 5.14526367 152.01147461 C3.68041992 153.52514648 3.68041992 153.52514648 0.88354492 155.83374023 C-2.31893483 155.53242827 -3.99706954 154.33583002 -6.24853516 152.12158203 C-6.83206253 151.55396652 -7.4155899 150.98635101 -8.01679993 150.40153503 C-8.63363144 149.78490494 -9.25046295 149.16827484 -9.88598633 148.53295898 C-10.52638351 147.90017532 -11.1667807 147.26739166 -11.82658386 146.61543274 C-13.17601164 145.27680063 -14.52149286 143.93418004 -15.86328125 142.58789062 C-17.92491365 140.52528357 -20.00695151 138.4849274 -22.09106445 136.44506836 C-23.39900358 135.14233429 -24.7056885 133.83833954 -26.01098633 132.53295898 C-26.95141533 131.61712288 -26.95141533 131.61712288 -27.9108429 130.68278503 C-29.63134766 128.93408203 -29.63134766 128.93408203 -32.11645508 125.83374023 C-31.68738245 121.51314204 -29.09758978 119.51179387 -26.05395508 116.58374023 C-25.13485352 115.69170898 -24.21575195 114.79967773 -23.26879883 113.88061523 C-22.55852539 113.20514648 -21.84825195 112.52967773 -21.11645508 111.83374023 C-21.33301758 111.21885742 -21.54958008 110.60397461 -21.77270508 109.97045898 C-22.05114258 109.1622168 -22.32958008 108.35397461 -22.61645508 107.52124023 C-22.89489258 106.72073242 -23.17333008 105.92022461 -23.46020508 105.09545898 C-24.11645508 102.83374023 -24.11645508 102.83374023 -24.11645508 99.83374023 C-30.05645508 99.83374023 -35.99645508 99.83374023 -42.11645508 99.83374023 C-42.11645508 85.31374023 -42.11645508 70.79374023 -42.11645508 55.83374023 C-36.17645508 55.83374023 -30.23645508 55.83374023 -24.11645508 55.83374023 C-23.78645508 53.85374023 -23.45645508 51.87374023 -23.11645508 49.83374023 C-22.12645508 47.85374023 -21.13645508 45.87374023 -20.11645508 43.83374023 C-24.07645508 39.87374023 -28.03645508 35.91374023 -32.11645508 31.83374023 C-30.12041766 29.49691594 -28.12039349 27.16377812 -26.11645508 24.83374023 C-25.60115234 24.23247314 -25.08584961 23.63120605 -24.55493164 23.01171875 C-20.01432164 17.76275707 -15.28892585 12.72508226 -10.42895508 7.77124023 C-9.68323242 6.98813477 -8.93750977 6.2050293 -8.16918945 5.39819336 C-7.08541016 4.29701172 -7.08541016 4.29701172 -5.97973633 3.17358398 C-5.00967651 2.17379517 -5.00967651 2.17379517 -4.02001953 1.15380859 C-2.11645508 -0.16625977 -2.11645508 -0.16625977 0 0 Z M17.13354492 49.95874023 C8.57266454 59.02678178 6.38215521 69.76187575 6.61010742 81.71655273 C7.10522966 92.40825181 12.36990524 100.57024678 19.94995117 107.80639648 C28.93825226 115.37972352 38.42342242 117.73201178 50.01245117 117.21264648 C61.64676906 116.07386865 70.25760336 110.41195431 77.69604492 101.58374023 C84.88382101 91.62114826 86.44090211 80.82771503 84.88354492 68.83374023 C82.25123661 57.79829385 75.23746855 49.28276039 65.69604492 43.33374023 C49.11999282 34.29457204 31.0929151 37.48958604 17.13354492 49.95874023 Z " fill="#FED000" transform="translate(298.116455078125,322.166259765625)"/>
<path d="M0 0 C52.8 0 105.6 0 160 0 C160 20.38855202 154.41734749 37.50615825 141 53 C140.10474609 54.18916016 140.10474609 54.18916016 139.19140625 55.40234375 C130.99135931 65.12254199 119.73987258 71.54544315 108 76 C106.88882813 76.433125 105.77765625 76.86625 104.6328125 77.3125 C84.6316336 83.84349719 62.2672456 81.24322972 43.625 72.1875 C37.53995216 69.07747734 32.15876195 65.50127268 27 61 C25.54787109 59.84177734 25.54787109 59.84177734 24.06640625 58.66015625 C10.93490006 47.69872196 2.60617962 29.67307457 0 13 C0 8.71 0 4.42 0 0 Z " fill="#CFD7D9" transform="translate(96,408)"/>
<path d="M0 0 C14.52 0 29.04 0 44 0 C44 5.94 44 11.88 44 18 C45.98 18.33 47.96 18.66 50 19 C52.01089078 19.63305821 54.01463373 20.29094062 56 21 C56.77085937 20.2059375 57.54171875 19.411875 58.3359375 18.59375 C59.34869317 17.56223959 60.36172852 16.53100373 61.375 15.5 C62.13683594 14.71302734 62.13683594 14.71302734 62.9140625 13.91015625 C64.23832604 12.56846819 65.61605865 11.28004185 67 10 C67.66 10 68.32 10 69 10 C69 11.98 69 13.96 69 16 C70.5478418 15.84192871 70.5478418 15.84192871 72.12695312 15.68066406 C76.87627919 16.07224995 78.81435925 17.82390644 81.96875 21.109375 C82.49392212 21.63259338 83.01909424 22.15581177 83.56018066 22.69488525 C84.66090674 23.79959678 85.75305042 24.91291921 86.83691406 26.03417969 C88.50198256 27.75204543 90.19701541 29.43540098 91.8984375 31.1171875 C92.96546247 32.19602027 94.03063494 33.27668909 95.09375 34.359375 C95.60192261 34.86370056 96.11009521 35.36802612 96.63366699 35.88763428 C100.01312146 39.43102305 100.01312146 39.43102305 99.94946289 42.19140625 C98.4447086 45.05775229 96.25942564 47.01624875 93.9375 49.25 C92.55884766 50.58804688 92.55884766 50.58804688 91.15234375 51.953125 C90.44207031 52.62859375 89.73179687 53.3040625 89 54 C89.2165625 54.61488281 89.433125 55.22976563 89.65625 55.86328125 C89.9346875 56.67152344 90.213125 57.47976563 90.5 58.3125 C90.7784375 59.11300781 91.056875 59.91351563 91.34375 60.73828125 C92 63 92 63 92 66 C97.94 66 103.88 66 110 66 C110 80.52 110 95.04 110 110 C104.06 110 98.12 110 92 110 C91.67 111.98 91.34 113.96 91 116 C90.36694179 118.01089078 89.70905938 120.01463373 89 122 C91.31 124.31 93.62 126.62 96 129 C92.72120119 131.18586587 89.97353743 132.00208696 86.1875 133.0625 C84.98480469 133.40410156 83.78210938 133.74570312 82.54296875 134.09765625 C75.6173038 135.86152461 69.23633888 136.12513374 62.125 136.0625 C61.15046875 136.05798828 60.1759375 136.05347656 59.171875 136.04882812 C56.78118566 136.03710906 54.3906256 136.02070219 52 136 C54.5416824 133.41124941 56.98374923 131.01236471 59.875 128.8125 C69.4200423 120.91146241 75.65865834 107.20069675 77 95 C78.14666824 78.48797733 74.41552675 63.82468103 63.75 50.75 C54.55730994 40.91362048 40.42098833 33.39708563 26.8359375 32.6640625 C9.54012132 32.3133284 -5.1925745 37.00169564 -18.0546875 48.96484375 C-20.74070404 51.77491326 -22.84612493 54.7691874 -25 58 C-25.33 58 -25.66 58 -26 58 C-26.43809712 42.30488982 -25.39127254 28.8901813 -20 14 C-19.52949219 14.42152344 -19.05898438 14.84304688 -18.57421875 15.27734375 C-17.95160156 15.82519531 -17.32898438 16.37304688 -16.6875 16.9375 C-16.07261719 17.48277344 -15.45773437 18.02804687 -14.82421875 18.58984375 C-12.94758042 20.20081559 -12.94758042 20.20081559 -10 21 C-7.65175298 20.0355414 -5.31808364 19.03485877 -3 18 C-2.01 18 -1.02 18 0 18 C0 12.06 0 6.12 0 0 Z " fill="#FFE900" transform="translate(322,312)"/>
<path d="M0 0 C21.17020703 6.09445354 39.34248773 17.70503505 55 33 C55.77730469 33.71542969 56.55460937 34.43085937 57.35546875 35.16796875 C79.20707852 55.78196522 93.69750552 87.50607827 95.171875 117.49609375 C95.18467538 120.00816845 95.14620839 122.49279692 95 125 C90.40373487 124.37243303 86.58549369 122.52295749 82.5 120.4375 C81.7972998 120.08107422 81.09459961 119.72464844 80.37060547 119.35742188 C69.81823528 113.92735302 60.00070183 107.77460004 51 100 C49.56527344 98.76636719 49.56527344 98.76636719 48.1015625 97.5078125 C36.32834655 87.16961188 26.96730667 75.46289542 19 62 C18.32195312 60.87464844 17.64390625 59.74929687 16.9453125 58.58984375 C7.10461736 41.61476354 -1.04292448 19.8155652 0 0 Z " fill="#FE7272" transform="translate(281,25)"/>
<path d="M0 0 C11.75267679 8.46026024 20.88255139 20.74716497 23.91796875 35.1875 C25.93076288 52.11702873 22.73927351 68.14308325 12.390625 82.015625 C3.09551017 93.14727462 -9.50919527 100.32481387 -23.796875 102.5859375 C-41.40085786 103.88863223 -56.45996264 99.92873613 -70.171875 88.3359375 C-80.87892469 78.08007629 -87.74902545 63.83961517 -88.08935547 49 C-88.16090796 40.1484336 -87.59759936 32.74215034 -83.796875 24.5859375 C-83.14332031 23.17248047 -83.14332031 23.17248047 -82.4765625 21.73046875 C-75.26886088 7.45291773 -63.73606716 -1.91989679 -48.796875 -7.4140625 C-31.7992022 -12.37535651 -14.8598682 -9.69335773 0 0 Z M-60.546875 18.7109375 C-69.10775538 27.77897905 -71.29826471 38.51407302 -71.0703125 50.46875 C-70.57519026 61.16044907 -65.31051468 69.32244404 -57.73046875 76.55859375 C-48.74216766 84.13192079 -39.2569975 86.48420904 -27.66796875 85.96484375 C-16.03365086 84.82606591 -7.42281656 79.16415158 0.015625 70.3359375 C7.20340109 60.37334553 8.76048219 49.57991229 7.203125 37.5859375 C4.57081669 26.55049112 -2.44295137 18.03495766 -11.984375 12.0859375 C-28.5604271 3.0467693 -46.58750482 6.24178331 -60.546875 18.7109375 Z " fill="#FFB800" transform="translate(375.796875,353.4140625)"/>
<path d="M0 0 C-5.37477256 14.99561543 -20.89880309 30.94940155 -35 38 C-35 46.58 -35 55.16 -35 64 C-61.4 64 -87.8 64 -115 64 C-115 45.52 -115 27.04 -115 8 C-107.39345521 8 -107.13606805 8.31054656 -102 13 C-96.48952942 15.7134189 -91.01910955 15.65577847 -85 15 C-82.07583892 13.99851026 -79.61356864 12.62754047 -77 11 C-75.67232377 10.32213714 -74.34031297 9.65252079 -73 9 C-73 8.34 -73 7.68 -73 7 C-72.1656543 7.01047363 -71.33130859 7.02094727 -70.47167969 7.03173828 C-48.61811138 7.26921172 -27.89780921 7.15945205 -6.74609375 1.0234375 C-3 0 -3 0 0 0 Z " fill="#00B4D8" transform="translate(291,280)"/>
<path d="M0 0 C52.8 0 105.6 0 160 0 C160 13 160 13 159 16 C158.23373291 16.00364563 157.46746582 16.00729126 156.67797852 16.01104736 C149.3834824 16.04923915 142.0894796 16.10643618 134.79530334 16.18390274 C131.04711398 16.22306842 127.29914869 16.25540543 123.55078125 16.27099609 C119.91945029 16.2863703 116.28873673 16.32116947 112.65768433 16.36830902 C110.62873828 16.38991949 108.59961688 16.39245571 106.57055664 16.39434814 C87.0008873 16.69579421 69.66933637 22.81081288 55 36 C54.37738281 36.52980469 53.75476563 37.05960937 53.11328125 37.60546875 C44.55292144 45.39635802 39.38915369 56.47025149 35 67 C33.79004746 66.10635485 32.58213889 65.20994221 31.375 64.3125 C30.70210937 63.81363281 30.02921875 63.31476563 29.3359375 62.80078125 C13.45157004 50.55547456 3.1108777 32.90188841 0 13 C0 8.71 0 4.42 0 0 Z " fill="#93999A" transform="translate(96,408)"/>
<path d="M0 0 C0.66 0 1.32 0 2 0 C1.97643433 1.30481323 1.97643433 1.30481323 1.95239258 2.63598633 C1.47835282 26.98008353 1.47835282 26.98008353 5 51 C5.24943359 52.09876465 5.24943359 52.09876465 5.50390625 53.21972656 C12.96803198 85.16342021 29.9920625 111.9920625 53 135 C46.77518232 141.04270865 41.39940975 144.94656057 32.5625 145.4375 C25.40800591 145.12964741 19.96325604 142.42216777 15.125 137.1875 C10.91931726 131.90844116 8.41197622 127.11169307 8.7109375 120.11328125 C9.41630483 114.95647414 10.83740143 110.43615118 14.125 106.375 C16.65893595 103.5742597 16.65893595 103.5742597 17 97 C-1.48 97 -19.96 97 -39 97 C-39 77.21425144 -39 77.21425144 -37.375 70 C-37.19678711 69.16952148 -37.01857422 68.33904297 -36.83496094 67.48339844 C-31.10666797 42.05985791 -18.4872916 18.4872916 0 0 Z " fill="#FEB700" transform="translate(79,111)"/>
<path d="M0 0 C15.84 0 31.68 0 48 0 C48 15.84 48 31.68 48 48 C55.13557162 46.98063263 56.03621289 46.42424503 61 42 C66.80265089 39.180742 73.06872351 39.09176243 79.31640625 40.53515625 C87.03150073 43.21421183 91.22054895 47.92079745 95 55 C97.51584927 62.54754782 96.27144887 69.93367043 93 77 C92 78 92 78 89.07421875 78.1875 C57.88524016 77.6799753 26.13236948 58.51156464 4 38 C4.2165625 37.46632812 4.433125 36.93265625 4.65625 36.3828125 C7.20056165 29.574423 8.59111064 23.2017107 5.9453125 16.21484375 C4.25631247 12.7418999 2.74196435 9.74196435 0 7 C0 4.69 0 2.38 0 0 Z " fill="#FE7373" transform="translate(128,208)"/>
<path d="M0 0 C10.89 0 21.78 0 33 0 C33 6.27 33 12.54 33 19 C34.65 19.33 36.3 19.66 38 20 C40.67578125 21.41015625 40.67578125 21.41015625 43.3125 23.0625 C44.63701172 23.88427734 44.63701172 23.88427734 45.98828125 24.72265625 C46.65214844 25.14417969 47.31601562 25.56570312 48 26 C48.97582031 25.4225 49.95164062 24.845 50.95703125 24.25 C52.24198889 23.49965977 53.52715612 22.7496784 54.8125 22 C55.45509766 21.6184375 56.09769531 21.236875 56.75976562 20.84375 C61.66015625 18 61.66015625 18 65 18 C67.144543 21.64306144 69.28051959 25.29096576 71.40869141 28.94360352 C72.1338929 30.18553135 72.86141945 31.42610453 73.59130859 32.6652832 C74.63993444 34.44652045 75.68010712 36.23245915 76.71875 38.01953125 C77.34716797 39.09307861 77.97558594 40.16662598 78.62304688 41.27270508 C80 44 80 44 80 47 C77.71125827 48.33858524 75.41930344 49.67101014 73.125 51 C72.47402344 51.3815625 71.82304687 51.763125 71.15234375 52.15625 C66.2265625 55 66.2265625 55 64 55 C64.33 55.99 64.66 56.98 65 58 C65.09435979 59.99820728 65.12990301 61.99957203 65.125 64 C65.12886719 65.5778125 65.12886719 65.5778125 65.1328125 67.1875 C65 70 65 70 64 73 C65.2684375 73.37125 65.2684375 73.37125 66.5625 73.75 C70.38427474 75.13973627 73.51868063 76.91120838 77 79 C72.97261569 81.08459878 68.83425883 82.56318926 64.5625 84.0625 C63.81162109 84.33126953 63.06074219 84.60003906 62.28710938 84.87695312 C56.27252003 86.99819352 51.11603338 88.13314322 44.6875 88.0625 C43.61886719 88.05347656 42.55023438 88.04445313 41.44921875 88.03515625 C40.23685547 88.01775391 40.23685547 88.01775391 39 88 C39.48210937 87.20335937 39.96421875 86.40671875 40.4609375 85.5859375 C41.09257812 84.52632813 41.72421875 83.46671875 42.375 82.375 C43.00148438 81.33085937 43.62796875 80.28671875 44.2734375 79.2109375 C48.44819553 71.44702098 49.62270749 63.04827338 47.3125 54.4375 C46.36271822 52.15802373 45.27706295 50.11237456 44 48 C43.61070312 47.30132812 43.22140625 46.60265625 42.8203125 45.8828125 C38.44527153 39.02254115 31.24425787 35.32113409 23.45703125 33.359375 C12.86961001 31.81081736 5.49986353 33.76411205 -3.25 39.75 C-10.28595292 45.34519119 -12.85514512 52.49033186 -15 61 C-18.66831008 57.75747591 -20.84457526 54.08125276 -23 49.75 C-23.34740234 49.05269775 -23.69480469 48.35539551 -24.05273438 47.63696289 C-28.51769681 38.28713887 -31.32212774 28.42888567 -31 18 C-27.10391502 19.48904175 -23.40902982 21.24378713 -19.6875 23.125 C-18.61886719 23.66382813 -17.55023438 24.20265625 -16.44921875 24.7578125 C-15.64097656 25.16773438 -14.83273437 25.57765625 -14 26 C-13.40832031 25.57847656 -12.81664062 25.15695313 -12.20703125 24.72265625 C-11.41683594 24.17480469 -10.62664062 23.62695312 -9.8125 23.0625 C-9.03519531 22.51722656 -8.25789063 21.97195312 -7.45703125 21.41015625 C-5 20 -5 20 0 19 C0 12.73 0 6.46 0 0 Z " fill="#FFE900" transform="translate(391,200)"/>
<path d="M0 0 C23.67801877 -0.07001467 47.35602207 -0.12295114 71.03412342 -0.15543652 C82.02774829 -0.17091951 93.02130893 -0.19203635 104.01489258 -0.22631836 C113.5945077 -0.25617692 123.17407631 -0.27556458 132.75373667 -0.28226548 C137.82826696 -0.28618376 142.90266415 -0.29542189 147.97715187 -0.31719017 C152.75002241 -0.33749938 157.5227046 -0.34384511 162.29561424 -0.33932304 C164.05043943 -0.34015075 165.80527068 -0.34614945 167.56005859 -0.35761642 C169.95021059 -0.37247372 172.33964511 -0.36897876 174.72981262 -0.36076355 C175.42922669 -0.36950207 176.12864075 -0.3782406 176.84924918 -0.38724393 C181.12285291 -0.34735517 181.80004055 -0.19995945 185 3 C183.02 5.31 181.04 7.62 179 10 C180.65 11.98 182.3 13.96 184 16 C161.82528701 16.07009486 139.6505923 16.12299055 117.47579098 16.15543652 C107.17954237 16.17090246 96.88336262 16.19198683 86.5871582 16.22631836 C77.61252326 16.25622899 68.6379382 16.27557698 59.6632548 16.28226548 C54.9116448 16.28617491 50.16017746 16.29535703 45.4086132 16.31719017 C40.93448929 16.33758155 36.46056657 16.34382842 31.9864006 16.33932304 C30.34613387 16.34014706 28.70586027 16.34609692 27.06563377 16.35761642 C24.82137837 16.3726024 22.57787675 16.36893187 20.33360291 16.36076355 C19.07904265 16.36352893 17.8244824 16.36629431 16.53190517 16.36914349 C10.99243968 15.79017619 7.21611172 14.1632373 3.125 10.25 C0.77489709 6.65572496 0.46860298 4.20745652 0 0 Z " fill="#E8F0F1" transform="translate(88,344)"/>
<path d="M0 0 C23.69530193 -0.04666452 47.39059701 -0.08196157 71.08593559 -0.10362434 C82.08741667 -0.11394887 93.08886925 -0.1280316 104.09033203 -0.15087891 C113.67616326 -0.17077685 123.26197386 -0.18370787 132.84782517 -0.18817699 C137.9262034 -0.19079048 143.00452257 -0.19695759 148.08288193 -0.21146011 C152.85818403 -0.2249873 157.63340248 -0.22923255 162.40872192 -0.22621536 C164.16557392 -0.22676771 165.92242858 -0.23077402 167.67926407 -0.23841095 C170.06963613 -0.24829624 172.45968836 -0.24599261 174.85006714 -0.24050903 C175.9035575 -0.24924756 175.9035575 -0.24924756 176.97833049 -0.25816262 C181.77175758 -0.22824242 181.77175758 -0.22824242 184 2 C178.72 2 173.44 2 168 2 C168 6.62 168 11.24 168 16 C147.91142508 16.06947321 127.82288413 16.12299735 107.73421383 16.15543652 C98.40650783 16.17089952 89.07887788 16.19197823 79.7512207 16.22631836 C71.62038912 16.25623803 63.48961262 16.27557912 55.35872751 16.28226548 C51.05424178 16.28617339 46.74991363 16.29534572 42.44547844 16.31719017 C38.39158626 16.33759591 34.33791617 16.34382556 30.28397751 16.33932304 C28.79851511 16.34014642 27.31304507 16.34608778 25.82762718 16.35761642 C9.63514469 16.47709492 9.63514469 16.47709492 3.125 10.25 C0.77489709 6.65572496 0.46860298 4.20745652 0 0 Z " fill="#E8F0F1" transform="translate(88,376)"/>
<path d="M0 0 C6.69809768 4.76229994 11.16407958 11.54657266 13.3125 19.4375 C14.59632503 29.84323969 12.39918097 38.75982109 6.265625 47.28125 C5.29882812 48.34859375 5.29882812 48.34859375 4.3125 49.4375 C3.6525 49.4375 2.9925 49.4375 2.3125 49.4375 C2.3125 50.0975 2.3125 50.7575 2.3125 51.4375 C-5.99900134 58.17305433 -15.27532899 59.40549683 -25.6875 58.4375 C-33.44337161 56.69435958 -39.52531457 52.41423145 -44.6875 46.4375 C-50.19428769 37.56618331 -51.49261742 29.82464866 -50.6875 19.4375 C-49.81919696 16.08336939 -48.51007254 13.37292058 -46.6875 10.4375 C-46.26339844 9.74011719 -45.83929688 9.04273438 -45.40234375 8.32421875 C-34.73633929 -7.45196054 -15.73130167 -9.39619203 0 0 Z M-31.6875 16.4375 C-34.31630891 20.25351294 -35.29392975 23.67202854 -35.10546875 28.34765625 C-34.10237808 33.36310962 -31.19115608 37.24228619 -27.25 40.375 C-21.5315567 42.74606186 -17.47546195 42.75268478 -11.6875 40.4375 C-7.83626057 37.28648592 -5.31962178 34.15251847 -3.6875 29.4375 C-3.41804715 23.44486871 -4.7296426 19.0550003 -8.6875 14.4375 C-12.61410276 10.86786113 -16.86843527 10.87244687 -21.9609375 11.0234375 C-26.18438754 11.66482103 -28.81026314 13.33073997 -31.6875 16.4375 Z " fill="#FFB800" transform="translate(426.6875,237.5625)"/>
<path d="M0 0 C0.33 0 0.66 0 1 0 C1.25394531 1.134375 1.50789063 2.26875 1.76953125 3.4375 C2.11689722 4.95839966 2.46456993 6.47922929 2.8125 8 C2.97814453 8.74378906 3.14378906 9.48757813 3.31445312 10.25390625 C4.18612446 14.03663089 5.18275901 17.62230634 6.61328125 21.234375 C7.82268907 24.32300476 8.32241896 26.90584555 8.375 30.25 C9.1842492 41.48611388 14.78573723 50.99150752 22.76953125 58.7109375 C30.67350898 65.26707903 40.29192648 68.18952439 50.3984375 68.69921875 C54.00915895 69.11667453 56.92952394 70.48415115 60.23046875 71.9453125 C65.62453991 73.99947218 71.34367608 74.92415741 77 76 C74.47566086 78.9667491 71.76104489 80.15962184 68.1875 81.625 C67.17042969 82.05039062 66.15335937 82.47578125 65.10546875 82.9140625 C52.30523804 87.39011802 36.9715407 85.94576701 24.72265625 80.55859375 C8.38795151 72.34359055 -1.05906214 60.13543235 -7 43 C-10.60253543 29.57653995 -8.40565714 14.73018286 -1.75 2.75 C-1.1725 1.8425 -0.595 0.935 0 0 Z " fill="#FFA300" transform="translate(296,371)"/>
<path d="M0 0 C1.02083333 0.875 2.04166667 1.75 3.0625 2.625 C3.70960938 3.17542969 4.35671875 3.72585938 5.0234375 4.29296875 C6.2336446 5.33814761 7.4301872 6.39975933 8.6015625 7.48828125 C20.09394914 17.98994491 34.61779375 23.6964232 50 25 C50.66 25.66 51.32 26.32 52 27 C43.48240517 33.6054817 35.72721844 34.9972861 25 34 C17.24412839 32.25685958 11.16218543 27.97673145 6 22 C2.54706416 16.43739452 -0.15847188 10.93455948 -0.0625 4.3125 C-0.05347656 3.50425781 -0.04445313 2.69601562 -0.03515625 1.86328125 C-0.02355469 1.24839844 -0.01195312 0.63351562 0 0 Z " fill="#FFA300" transform="translate(376,262)"/>
</svg>
