<?xml version="1.0" encoding="UTF-8"?>
<svg version="1.1" xmlns="http://www.w3.org/2000/svg" width="512" height="512">
<path d="M0 0 C1.22716736 -0.00890762 2.45433472 -0.01781525 3.71868896 -0.0269928 C7.06030578 -0.0445637 10.39966944 -0.03545295 13.74110913 -0.01252341 C17.25140663 0.00650744 20.76163236 -0.00478348 24.2719574 -0.01142883 C30.16374873 -0.01775308 36.05508216 0.00041663 41.94677734 0.03320312 C48.74250885 0.07070954 55.537374 0.06890675 62.3331514 0.04616195 C68.89265422 0.02516047 75.45183912 0.0325154 82.01133537 0.0524807 C84.79311228 0.06043308 87.57461781 0.05851615 90.35638618 0.04845619 C94.24573662 0.03587564 98.13419384 0.06475046 102.0234375 0.09765625 C103.74040077 0.08483109 103.74040077 0.08483109 105.49205017 0.07174683 C112.29867111 0.17094538 117.30389837 1.05807178 122.44702148 5.76049805 C128.2825427 13.35662756 127.65961795 21.29815886 127.69702148 30.44799805 C127.72795898 32.31101562 127.72795898 32.31101562 127.75952148 34.21166992 C127.79254321 42.00067035 127.75780053 49.50041979 122.79858398 55.8815918 C122.22881836 56.31600586 121.65905273 56.75041992 121.07202148 57.19799805 C120.50741211 57.65045898 119.94280273 58.10291992 119.36108398 58.5690918 C117.44702148 59.76049805 117.44702148 59.76049805 112.44702148 61.76049805 C112.11702148 68.69049805 111.78702148 75.62049805 111.44702148 82.76049805 C113.42702148 83.42049805 115.40702148 84.08049805 117.44702148 84.76049805 C142.72622793 97.56319293 158.72242388 119.94960579 167.61108398 146.19799805 C168.2717181 148.37129906 168.87071521 150.56333036 169.44702148 152.76049805 C170.75155273 152.72569336 172.05608398 152.69088867 173.40014648 152.6550293 C191.63336873 152.30744704 206.63591488 155.17747707 220.73999023 167.7878418 C222.44702148 169.76049805 222.44702148 169.76049805 223.74780273 172.3894043 C225.40347512 175.66810201 226.50465688 177.50640586 229.44702148 179.76049805 C236.28033195 181.328706 243.47976288 181.01705346 250.44702148 180.76049805 C250.72288086 179.84655273 250.99874023 178.93260742 251.28295898 177.9909668 C252.31076888 175.13862189 253.16043903 173.36369322 255.07202148 171.07299805 C255.51803711 170.51225586 255.96405273 169.95151367 256.42358398 169.3737793 C263.63893813 163.62099694 272.17703142 164.30601173 280.94702148 164.38549805 C282.22706055 164.37389648 283.50709961 164.36229492 284.82592773 164.3503418 C293.09889217 164.37600766 299.6560387 164.64346775 306.25952148 170.07299805 C311.74920567 176.81746719 311.88003437 182.42135163 311.83520508 190.82104492 C311.84309052 192.63669701 311.84309052 192.63669701 311.85113525 194.48902893 C311.86205371 197.79702129 311.85952705 201.1044485 311.849998 204.41240883 C311.8423807 207.88094443 311.84945274 211.34945657 311.85415649 214.81799316 C311.85960804 220.64180821 311.85243829 226.46550896 311.83813477 232.28930664 C311.82180931 239.01383038 311.82709825 245.7380812 311.84361398 252.46259832 C311.85724605 258.24537914 311.85914013 264.02807799 311.85129797 269.81086969 C311.84663088 273.26063158 311.84596993 276.71026536 311.85590744 280.16001892 C311.86621535 284.00677017 311.85191157 287.85321791 311.83520508 291.69995117 C311.84127777 292.83779556 311.84735046 293.97563995 311.85360718 295.14796448 C311.80078569 301.71263793 311.34860637 306.47250355 306.83374023 311.58862305 C306.27299805 312.0578418 305.71225586 312.52706055 305.13452148 313.01049805 C304.58151367 313.4900293 304.02850586 313.96956055 303.45874023 314.46362305 C296.6293144 318.86628203 288.86778877 318.09237123 281.07202148 318.07299805 C279.78295898 318.08911133 278.49389648 318.10522461 277.16577148 318.12182617 C262.67225634 318.12926637 262.67225634 318.12926637 256.42358398 313.1472168 C255.97756836 312.58647461 255.53155273 312.02573242 255.07202148 311.44799805 C254.61053711 310.89499023 254.14905273 310.34198242 253.67358398 309.7722168 C252.44702148 307.76049805 252.44702148 307.76049805 250.44702148 301.76049805 C243.51702148 301.76049805 236.58702148 301.76049805 229.44702148 301.76049805 C228.78702148 303.74049805 228.12702148 305.72049805 227.44702148 307.76049805 C226.18971212 310.04299812 224.922693 312.20620481 223.50952148 314.38549805 C223.11692139 314.99159912 222.72432129 315.5977002 222.31982422 316.22216797 C212.89228933 330.35332523 199.68266887 343.14267436 184.44702148 350.76049805 C184.43300293 352.56683716 184.43300293 352.56683716 184.41870117 354.40966797 C184.37840939 358.93704349 184.31254773 363.46376707 184.23950195 367.99072266 C184.21151721 369.93887875 184.19019249 371.88714364 184.17602539 373.83544922 C184.02194758 393.8398854 180.74618667 408.48383859 166.69702148 423.5534668 C159.34967635 430.76049805 159.34967635 430.76049805 155.44702148 430.76049805 C155.44702148 437.69049805 155.44702148 444.62049805 155.44702148 451.76049805 C157.75702148 452.42049805 160.06702148 453.08049805 162.44702148 453.76049805 C166.43157593 457.20170416 169.77139214 460.73361003 171.44702148 465.76049805 C171.69950736 470.38638762 171.71791094 475.01461577 171.7421875 479.64648438 C171.75367678 481.17196958 171.77408031 482.69741556 171.80371094 484.22265625 C172.11069892 500.03339498 172.11069892 500.03339498 167.44702148 506.76049805 C164.14917447 510.17449701 161.02537334 512.61444552 156.12684917 512.89192581 C155.20824014 512.89490047 154.2896311 512.89787514 153.34318542 512.90093994 C151.75973076 512.90950516 151.75973076 512.90950516 150.14428711 512.91824341 C148.98630615 512.91936127 147.8283252 512.92047913 146.63525391 512.92163086 C145.41550369 512.92659576 144.19575348 512.93156067 142.93904114 512.93667603 C139.59179923 512.94878573 136.2446198 512.95624314 132.89736342 512.96068668 C130.80526889 512.96361915 128.71317981 512.9677243 126.62108803 512.97219086 C120.07289537 512.98586362 113.52471522 512.99553119 106.97650927 512.99939275 C99.42230288 513.00387224 91.86827754 513.02141585 84.31412619 513.05039334 C78.4719783 513.07202424 72.6298813 513.08209779 66.7876938 513.08343387 C63.29985581 513.08448095 59.81218808 513.0903679 56.32439232 513.10825348 C52.43185995 513.12782633 48.53955304 513.12343955 44.64697266 513.11694336 C42.91911026 513.13076553 42.91911026 513.13076553 41.15634155 513.14486694 C34.52824586 513.11017752 29.66661128 512.73035027 24.58374023 508.04174805 C24.10549805 507.45393555 23.62725586 506.86612305 23.13452148 506.26049805 C22.64338867 505.67268555 22.15225586 505.08487305 21.64624023 504.47924805 C17.9406354 499.16828346 19.14341843 491.26349105 19.09692383 485.02001953 C19.08041187 483.3974773 19.0531846 481.77500639 19.01489258 480.15283203 C18.63355008 463.89271967 18.63355008 463.89271967 23.07348633 458.12231445 C26.88256988 454.34572931 30.24587291 452.66542761 35.44702148 451.76049805 C35.88704115 445.13205674 36.31786789 438.20203509 34.44702148 431.76049805 C31.17328811 428.44532501 27.64121181 427.2304466 23.33032227 425.60668945 C19.90602412 424.068108 17.09690568 421.73853335 14.19702148 419.38549805 C13.60743652 418.90967285 13.01785156 418.43384766 12.41040039 417.94360352 C-4.86053779 403.76350925 -13.88943118 387.37859361 -21.97875977 366.97924805 C-22.28209229 366.21547852 -22.5854248 365.45170898 -22.89794922 364.66479492 C-23.55297852 362.76049805 -23.55297852 362.76049805 -23.55297852 360.76049805 C-24.12628906 360.7762085 -24.69959961 360.79191895 -25.2902832 360.80810547 C-44.71781915 361.2698309 -60.69502013 359.27950259 -75.84594727 345.7331543 C-77.55297852 343.76049805 -77.55297852 343.76049805 -78.85375977 341.1315918 C-80.50943215 337.85289409 -81.61061391 336.01459023 -84.55297852 333.76049805 C-91.38628898 332.19229009 -98.58571991 332.50394263 -105.55297852 332.76049805 C-105.82883789 333.67444336 -106.10469727 334.58838867 -106.38891602 335.5300293 C-107.41672591 338.38237421 -108.26639606 340.15730287 -110.17797852 342.44799805 C-110.62399414 343.00874023 -111.07000977 343.56948242 -111.52954102 344.1472168 C-118.74489516 349.89999916 -127.28298845 349.21498436 -136.05297852 349.13549805 C-137.33301758 349.14709961 -138.61305664 349.15870117 -139.93188477 349.1706543 C-148.20705329 349.14498159 -154.8188795 348.91373722 -161.36547852 343.38549805 C-164.93546792 339.10151076 -166.9257767 336.03807344 -166.94065857 330.37818909 C-166.9505632 329.31138916 -166.96046783 328.24458923 -166.97067261 327.14546204 C-166.96617096 325.98532089 -166.96166931 324.82517975 -166.95703125 323.62988281 C-166.9638945 322.40008698 -166.97075775 321.17029114 -166.97782898 319.90322876 C-166.99298066 316.5373397 -166.9945948 313.17200508 -166.98888659 309.80612302 C-166.98579261 306.99302708 -166.99188954 304.1799811 -166.99792534 301.36689228 C-167.01196451 294.72876468 -167.0104145 288.0907658 -166.99902344 281.45263672 C-166.98754342 274.61163147 -167.00161697 267.77101832 -167.02841991 260.93006474 C-167.05059418 255.04963601 -167.05721042 249.1693302 -167.0513435 243.28886265 C-167.04797672 239.779791 -167.05037005 236.27097065 -167.06759453 232.76193428 C-167.08596874 228.84796976 -167.0718587 224.93448549 -167.0546875 221.02050781 C-167.06435547 219.8623909 -167.07402344 218.70427399 -167.08398438 217.51106262 C-167.02660153 211.26976043 -166.77188672 207.48468159 -162.55297852 202.76049805 C-154.51042769 195.06762335 -146.77075886 195.42167404 -136.17797852 195.44799805 C-134.88891602 195.43188477 -133.59985352 195.41577148 -132.27172852 195.39916992 C-124.33713143 195.39509672 -117.6544496 195.39771386 -111.27563477 200.62768555 C-110.7277832 201.29026367 -110.17993164 201.9528418 -109.61547852 202.63549805 C-109.04958008 203.29291992 -108.48368164 203.9503418 -107.90063477 204.62768555 C-106.55297852 206.76049805 -106.55297852 206.76049805 -105.55297852 211.76049805 C-98.62297852 211.76049805 -91.69297852 211.76049805 -84.55297852 211.76049805 C-83.56297852 208.79049805 -83.56297852 208.79049805 -82.55297852 205.76049805 C-81.29566047 203.47798221 -80.02873493 201.31475544 -78.61547852 199.13549805 C-78.22215332 198.52867187 -77.82882813 197.9218457 -77.42358398 197.29663086 C-67.99487633 183.17014975 -54.87518329 170.18795526 -39.55297852 162.76049805 C-38.89297852 162.76049805 -38.23297852 162.76049805 -37.55297852 162.76049805 C-37.56868896 161.61162109 -37.58439941 160.46274414 -37.60058594 159.27905273 C-37.65542848 154.96271954 -37.68952355 150.64641628 -37.71777344 146.32983398 C-37.73273756 144.47170815 -37.75311624 142.61361688 -37.77929688 140.75561523 C-38.05358888 120.76994692 -35.12072676 104.92647655 -20.76782227 89.86206055 C-13.28346179 82.76049805 -13.28346179 82.76049805 -9.55297852 82.76049805 C-9.88297852 75.83049805 -10.21297852 68.90049805 -10.55297852 61.76049805 C-13.19297852 60.44049805 -15.83297852 59.12049805 -18.55297852 57.76049805 C-25.42887488 50.88460168 -25.84047846 44.32925405 -25.92407227 35.00854492 C-25.92391113 34.34072998 -25.92375 33.67291504 -25.92358398 32.98486328 C-25.92794562 30.96324622 -25.96428843 28.94383765 -26.00219727 26.92260742 C-26.02438491 19.47865394 -26.02573228 12.94886106 -21.55297852 6.76049805 C-14.97039727 0.57185383 -8.73687515 -0.10488085 0 0 Z " fill="#DB9E82" transform="translate(183.552978515625,-0.760498046875)"/>
<path d="M0 0 C1.04696548 -0.00571014 2.09393097 -0.01142029 3.17262268 -0.01730347 C4.89545471 -0.01898026 4.89545471 -0.01898026 6.65309143 -0.02069092 C7.86320389 -0.02565582 9.07331635 -0.03062073 10.32009888 -0.03573608 C13.64295117 -0.04784938 16.96574047 -0.05530528 20.28860736 -0.05974674 C22.36868799 -0.06268107 24.44876315 -0.06678678 26.52884102 -0.07125092 C33.04821352 -0.08493086 39.56757345 -0.09459243 46.0869593 -0.09845281 C53.59016608 -0.10292084 61.09318952 -0.12040791 68.5963406 -0.1494534 C74.40800924 -0.17116192 80.2196267 -0.18116211 86.03133541 -0.18249393 C89.49589119 -0.18353635 92.96027477 -0.1893218 96.42478752 -0.20731354 C100.30172829 -0.22705348 104.17844567 -0.22246897 108.05543518 -0.21600342 C109.18577179 -0.2252182 110.3161084 -0.23443298 111.48069763 -0.243927 C126.99933698 -0.16333189 140.5868598 4.75816789 152.22950745 15.16778564 C153.9365387 17.14044189 153.9365387 17.14044189 155.23731995 19.76934814 C156.89299233 23.04804586 157.99417409 24.88634971 160.9365387 27.14044189 C167.76984917 28.70864985 174.96928009 28.39699731 181.9365387 28.14044189 C182.21239807 27.22649658 182.48825745 26.31255127 182.7724762 25.37091064 C183.80028609 22.51856573 184.64995624 20.74363707 186.5615387 18.45294189 C187.00755432 17.89219971 187.45356995 17.33145752 187.9131012 16.75372314 C195.12845534 11.00094078 203.66654863 11.68595558 212.4365387 11.76544189 C213.71657776 11.75384033 214.99661682 11.74223877 216.31544495 11.73028564 C224.58840938 11.75595151 231.14555591 12.0234116 237.7490387 17.45294189 C243.23872289 24.19741104 243.36955158 29.80129547 243.32472229 38.20098877 C243.33260773 40.01664085 243.33260773 40.01664085 243.34065247 41.86897278 C243.35157093 45.17696514 243.34904426 48.48439235 243.33951521 51.79235268 C243.33189791 55.26088828 243.33896996 58.72940042 243.34367371 62.19793701 C243.34912525 68.02175206 243.3419555 73.84545281 243.32765198 79.66925049 C243.31132653 86.39377422 243.31661547 93.11802505 243.33313119 99.84254217 C243.34676326 105.62532299 243.34865734 111.40802184 243.34081519 117.19081354 C243.33614809 120.64057543 243.33548714 124.09020921 243.34542465 127.53996277 C243.35573257 131.38671402 243.34142878 135.23316176 243.32472229 139.07989502 C243.33079498 140.21773941 243.33686768 141.3555838 243.34312439 142.52790833 C243.2903029 149.09258178 242.83812358 153.8524474 238.32325745 158.96856689 C237.76251526 159.43778564 237.20177307 159.90700439 236.6240387 160.39044189 C236.07103088 160.86997314 235.51802307 161.34950439 234.94825745 161.84356689 C228.11883162 166.24622588 220.35730598 165.47231507 212.5615387 165.45294189 C211.2724762 165.46905518 209.9834137 165.48516846 208.6552887 165.50177002 C194.16177355 165.50921022 194.16177355 165.50921022 187.9131012 160.52716064 C187.46708557 159.96641846 187.02106995 159.40567627 186.5615387 158.82794189 C185.86931213 157.99843018 185.86931213 157.99843018 185.1631012 157.15216064 C183.9365387 155.14044189 183.9365387 155.14044189 181.9365387 149.14044189 C175.0065387 149.14044189 168.0765387 149.14044189 160.9365387 149.14044189 C159.9465387 152.11044189 159.9465387 152.11044189 158.9365387 155.14044189 C157.67922933 157.42294197 156.41221021 159.58614866 154.9990387 161.76544189 C154.6064386 162.37154297 154.2138385 162.97764404 153.80934143 163.60211182 C141.81844243 181.57555679 125.31688494 194.94514542 104.9990387 202.20294189 C102.44721553 203.13512009 99.89638071 204.06965347 97.34669495 205.00762939 C96.67933319 205.25178085 96.01197144 205.49593231 95.3243866 205.7474823 C90.00162026 207.70874298 84.7461472 209.8157552 79.49513245 211.96075439 C77.09403566 212.93165374 74.69232632 213.90102472 72.29051208 214.87014771 C70.73998826 215.50103109 69.1924497 216.13930954 67.64823914 216.78549194 C57.9269752 220.84660856 48.03811692 224.8613463 37.44532776 221.30377197 C35.45664866 220.39958523 33.73237159 219.38042175 31.9365387 218.14044189 C30.5752887 217.21231689 30.5752887 217.21231689 29.1865387 216.26544189 C23.25614385 210.66451343 20.93885767 204.36483603 20.5615387 196.32794189 C20.73678792 189.13177068 22.86513539 183.04518705 28.02784729 177.98907471 C28.57153961 177.45405334 29.11523193 176.91903198 29.67539978 176.36779785 C30.09157562 175.96277039 30.50775146 175.55774292 30.9365387 175.14044189 C29.98964172 175.13679626 29.04274475 175.13315063 28.06715393 175.12939453 C19.1220271 175.09237416 10.17724228 175.03452486 1.2323761 174.95653915 C-3.36576212 174.91711282 -7.96371023 174.88490068 -12.56199646 174.8694458 C-17.00372599 174.85424717 -21.44493267 174.81974516 -25.88642883 174.77213287 C-27.57675113 174.75735203 -29.26714808 174.74940278 -30.95753479 174.74855804 C-48.74405753 174.7307382 -48.74405753 174.7307382 -56.0868988 168.39434814 C-56.53291443 167.83618408 -56.97893005 167.27802002 -57.4384613 166.70294189 C-57.89994568 166.14735596 -58.36143005 165.59177002 -58.8368988 165.01934814 C-62.86257168 158.85263269 -63.02794602 152.28947336 -62.0634613 145.14044189 C-59.46264226 138.92538121 -55.70660904 135.68914404 -50.0634613 132.14044189 C-50.61695251 132.13633301 -51.17044373 132.13222412 -51.7407074 132.12799072 C-73.22770986 131.84850318 -73.22770986 131.84850318 -80.0634613 126.14044189 C-86.22563107 119.48070563 -87.47594054 114.74111837 -87.41111755 105.70294189 C-86.79998005 99.44049915 -84.0664098 96.04067508 -79.6259613 91.82794189 C-72.84961302 87.36546863 -67.66578185 86.63307494 -59.6884613 86.45294189 C-58.66623474 86.41878174 -57.64400818 86.38462158 -56.59080505 86.34942627 C-54.08180016 86.26735602 -51.57312665 86.19807313 -49.0634613 86.14044189 C-49.98514099 85.55520752 -50.90682068 84.96997314 -51.85643005 84.36700439 C-54.52155578 82.5166735 -56.35283225 80.99118472 -58.3759613 78.51544189 C-59.11266052 77.62985596 -59.11266052 77.62985596 -59.86424255 76.72637939 C-63.74131142 71.59905054 -62.61282492 64.25290146 -62.0634613 58.14044189 C-59.96423086 51.88981851 -55.53698596 48.48537363 -50.0634613 45.14044189 C-47.40649373 44.25478604 -45.78156048 43.99541569 -43.05101013 43.93511963 C-41.8501049 43.9052018 -41.8501049 43.9052018 -40.62493896 43.87467957 C-39.76547165 43.85796707 -38.90600433 43.84125458 -38.02049255 43.82403564 C-37.1368956 43.80325455 -36.25329865 43.78247345 -35.34292603 43.76106262 C-32.52068346 43.69568435 -29.69834796 43.63673662 -26.8759613 43.57794189 C-24.96254024 43.53474553 -23.04912857 43.49113088 -21.13572693 43.44708252 C-16.44506693 43.34001494 -11.75431347 43.23871438 -7.0634613 43.14044189 C-7.6170784 42.8782486 -8.1706955 42.6160553 -8.74108887 42.34591675 C-9.46501328 41.99532196 -10.18893768 41.64472717 -10.93479919 41.2835083 C-11.65341629 40.938815 -12.37203339 40.5941217 -13.11242676 40.23898315 C-15.7224944 38.76936951 -16.98915991 37.07651055 -18.5009613 34.51544189 C-18.97404724 33.73942627 -19.44713318 32.96341064 -19.93455505 32.16387939 C-22.84994084 26.93837823 -22.79618485 22.05202703 -22.0634613 16.14044189 C-19.37679438 8.93303654 -15.0164648 4.32785288 -8.0634613 1.14044189 C-5.08120014 0.14635484 -3.11360053 0.01016881 0 0 Z " fill="#FEDCCE" transform="translate(252.06346130371094,151.85955810546875)"/>
<path d="M0 0 C1.22716736 -0.00890762 2.45433472 -0.01781525 3.71868896 -0.0269928 C7.06030578 -0.0445637 10.39966944 -0.03545295 13.74110913 -0.01252341 C17.25140663 0.00650744 20.76163236 -0.00478348 24.2719574 -0.01142883 C30.16374873 -0.01775308 36.05508216 0.00041663 41.94677734 0.03320312 C48.74250885 0.07070954 55.537374 0.06890675 62.3331514 0.04616195 C68.89265422 0.02516047 75.45183912 0.0325154 82.01133537 0.0524807 C84.79311228 0.06043308 87.57461781 0.05851615 90.35638618 0.04845619 C94.24573662 0.03587564 98.13419384 0.06475046 102.0234375 0.09765625 C103.74040077 0.08483109 103.74040077 0.08483109 105.49205017 0.07174683 C112.29867111 0.17094538 117.30389837 1.05807178 122.44702148 5.76049805 C128.2825427 13.35662756 127.65961795 21.29815886 127.69702148 30.44799805 C127.72795898 32.31101562 127.72795898 32.31101562 127.75952148 34.21166992 C127.79254321 42.00067035 127.75780053 49.50041979 122.79858398 55.8815918 C122.22881836 56.31600586 121.65905273 56.75041992 121.07202148 57.19799805 C120.22510742 57.87668945 120.22510742 57.87668945 119.36108398 58.5690918 C117.44702148 59.76049805 117.44702148 59.76049805 112.44702148 61.76049805 C112.11702148 68.69049805 111.78702148 75.62049805 111.44702148 82.76049805 C114.41702148 83.75049805 114.41702148 83.75049805 117.44702148 84.76049805 C141.36954169 96.87609699 157.55047355 117.9687605 166.44702148 142.76049805 C166.99608592 144.52054523 167.5321252 146.2847097 168.05493164 148.05273438 C168.31778961 148.93866776 168.58064758 149.82460114 168.85147095 150.73738098 C169.14626846 151.73882393 169.14626846 151.73882393 169.44702148 152.76049805 C168.1368103 152.76414368 166.82659912 152.76778931 165.47668457 152.77154541 C153.1174662 152.80851773 140.75849646 152.86631532 128.39946747 152.94440079 C122.04584229 152.98387701 115.69235574 153.01606502 109.33862305 153.03149414 C103.20467578 153.0466594 97.07110964 153.08110361 90.93733215 153.12880707 C88.59946509 153.14362203 86.26154361 153.15153912 83.92362976 153.1523819 C80.6439063 153.15475284 77.36523498 153.18184472 74.08569336 153.21459961 C73.12327728 153.20956924 72.16086121 153.20453888 71.16928101 153.19935608 C63.5879274 153.31617767 58.42765231 155.24352091 52.63452148 160.13549805 C47.93662703 165.77297139 46.75639939 170.38496668 46.98217773 177.6550293 C47.77398178 182.94481261 49.79909585 186.8632025 53.44702148 190.76049805 C56.64043298 192.86567854 59.87079127 194.4176448 63.44702148 195.76049805 C63.44702148 196.09049805 63.44702148 196.42049805 63.44702148 196.76049805 C62.21137451 196.76984375 60.97572754 196.77918945 59.70263672 196.78881836 C55.09713326 196.82883541 50.49228958 196.89462679 45.88720703 196.96801758 C43.89803575 196.99615936 41.90875406 197.01740756 39.91943359 197.03149414 C37.05175528 197.05301787 34.18539499 197.09971617 31.31811523 197.15112305 C30.4355455 197.15235168 29.55297577 197.15358032 28.6436615 197.15484619 C22.72381671 197.29375523 19.38781684 198.50303799 14.44702148 201.76049805 C13.45702148 202.09049805 12.46702148 202.42049805 11.44702148 202.76049805 C10.32186064 204.59334248 10.32186064 204.59334248 9.44702148 206.76049805 C9.10799805 207.31608398 8.76897461 207.87166992 8.41967773 208.4440918 C6.16962263 213.80265677 6.77833484 220.08860237 7.44702148 225.76049805 C9.86614948 231.64822869 14.47532785 234.84916917 19.90795898 237.8503418 C20.41584961 238.15069336 20.92374023 238.45104492 21.44702148 238.76049805 C21.44702148 239.09049805 21.44702148 239.42049805 21.44702148 239.76049805 C20.76712158 239.76460693 20.08722168 239.76871582 19.38671875 239.77294922 C16.26014571 239.80615694 13.13545181 239.87682976 10.00952148 239.94799805 C8.94024414 239.95379883 7.8709668 239.95959961 6.76928711 239.96557617 C-1.7542134 240.20016793 -8.01736993 242.0435762 -13.99047852 248.32299805 C-16.67405456 252.50937668 -17.8197583 255.49541502 -18.17797852 260.51049805 C-18.25274414 261.4953418 -18.32750977 262.48018555 -18.40454102 263.49487305 C-18.45352539 264.2425293 -18.50250977 264.99018555 -18.55297852 265.76049805 C-25.31625663 264.15019374 -30.64921398 261.72739203 -34.55297852 255.76049805 C-37.69246993 248.74731399 -37.98275603 242.13738071 -37.94116211 234.54638672 C-37.94641907 233.35490524 -37.95167603 232.16342377 -37.95709229 230.93583679 C-37.96797659 227.69173988 -37.96550464 224.44801475 -37.95595503 221.20392394 C-37.94830508 217.79026428 -37.95541922 214.37662766 -37.96011353 210.96296692 C-37.96555789 205.22933564 -37.95841662 199.49582062 -37.9440918 193.76220703 C-37.92779115 187.16213832 -37.93304016 180.56234807 -37.94957101 173.96228617 C-37.96325174 168.26937127 -37.9650729 162.57653947 -37.95725501 156.88361341 C-37.95261142 153.49518458 -37.95186055 150.10688593 -37.96186447 146.71846581 C-37.96953819 142.93305411 -37.95779026 139.14816598 -37.94116211 135.36279297 C-37.9472348 134.26058411 -37.9533075 133.15837524 -37.95956421 132.02276611 C-37.82666791 115.57708583 -32.13605159 101.79384312 -20.76782227 89.86206055 C-13.28346179 82.76049805 -13.28346179 82.76049805 -9.55297852 82.76049805 C-9.88297852 75.83049805 -10.21297852 68.90049805 -10.55297852 61.76049805 C-13.19297852 60.44049805 -15.83297852 59.12049805 -18.55297852 57.76049805 C-25.42887488 50.88460168 -25.84047846 44.32925405 -25.92407227 35.00854492 C-25.92391113 34.34072998 -25.92375 33.67291504 -25.92358398 32.98486328 C-25.92794562 30.96324622 -25.96428843 28.94383765 -26.00219727 26.92260742 C-26.02438491 19.47865394 -26.02573228 12.94886106 -21.55297852 6.76049805 C-14.97039727 0.57185383 -8.73687515 -0.10488085 0 0 Z " fill="#FED1A3" transform="translate(183.552978515625,-0.760498046875)"/>
<path d="M0 0 C0.09990454 5.74335834 0.17195122 11.48619565 0.21972656 17.23022461 C0.23967151 19.17855659 0.26683757 21.12683006 0.30175781 23.07495117 C0.65290207 43.18828756 -2.63061772 57.64802323 -16.75 72.79296875 C-24.09734513 80 -24.09734513 80 -28 80 C-28 86.93 -28 93.86 -28 101 C-25.69 101.66 -23.38 102.32 -21 103 C-17.01544555 106.44120612 -13.67562934 109.97311198 -12 115 C-11.74751412 119.62588957 -11.72911054 124.25411772 -11.70483398 128.88598633 C-11.6933447 130.41147154 -11.67294118 131.93691752 -11.64331055 133.4621582 C-11.33632256 149.27289693 -11.33632256 149.27289693 -16 156 C-19.29784701 159.41399896 -22.42164815 161.85394748 -27.32017231 162.13142776 C-28.69808587 162.13588976 -28.69808587 162.13588976 -30.10383606 162.14044189 C-31.68729073 162.14900711 -31.68729073 162.14900711 -33.30273438 162.15774536 C-34.46071533 162.15886322 -35.61869629 162.15998108 -36.81176758 162.16113281 C-38.03151779 162.16609772 -39.25126801 162.17106262 -40.50798035 162.17617798 C-43.85522225 162.18828768 -47.20240168 162.19574509 -50.54965806 162.20018864 C-52.6417526 162.20312111 -54.73384167 162.20722626 -56.82593346 162.21169281 C-63.37412611 162.22536558 -69.92230627 162.23503315 -76.47051221 162.2388947 C-84.0247186 162.24337419 -91.57874394 162.2609178 -99.13289529 162.2898953 C-104.97504318 162.31152619 -110.81714018 162.32159974 -116.65932769 162.32293582 C-120.14716567 162.3239829 -123.63483341 162.32986985 -127.12262917 162.34775543 C-131.01516154 162.36732828 -134.90746844 162.36294151 -138.80004883 162.35644531 C-140.52791122 162.37026749 -140.52791122 162.37026749 -142.29067993 162.3843689 C-148.91877562 162.34967947 -153.7804102 161.96985222 -158.86328125 157.28125 C-159.34152344 156.6934375 -159.81976563 156.105625 -160.3125 155.5 C-160.80363281 154.9121875 -161.29476562 154.324375 -161.80078125 153.71875 C-165.50638609 148.40778541 -164.30360305 140.502993 -164.35009766 134.25952148 C-164.36660961 132.63697926 -164.39383689 131.01450834 -164.43212891 129.39233398 C-164.8134714 113.13222163 -164.8134714 113.13222163 -160.37353516 107.36181641 C-156.56445161 103.58523126 -153.20114857 101.90492957 -148 101 C-147.55998033 94.3715587 -147.12915359 87.44153704 -149 81 C-152.27373337 77.68482697 -155.80580968 76.46994855 -160.11669922 74.84619141 C-163.54099736 73.30760995 -166.3501158 70.97803531 -169.25 68.625 C-169.83958496 68.1491748 -170.42916992 67.67334961 -171.03662109 67.18310547 C-188.30755927 53.00301121 -197.33645266 36.61809557 -205.42578125 16.21875 C-205.72911377 15.45498047 -206.03244629 14.69121094 -206.3449707 13.90429688 C-207 12 -207 12 -207 10 C-205.71484497 9.99413376 -204.42968994 9.98826752 -203.10559082 9.98222351 C-190.98185651 9.92495872 -178.85830092 9.85217713 -166.73474884 9.76428509 C-160.50221556 9.71959762 -154.2697474 9.68033766 -148.03710938 9.65356445 C-142.0199197 9.62751567 -136.00298086 9.58710146 -129.98594666 9.53681374 C-127.69273503 9.5201558 -125.39948004 9.50863486 -123.10621643 9.50238609 C-119.88890416 9.49273363 -116.67223207 9.46465944 -113.45507812 9.43237305 C-112.03950623 9.43452568 -112.03950623 9.43452568 -110.59533691 9.4367218 C-104.74315971 9.35391174 -100.30744826 8.5385994 -95 6 C-94.34 5.01 -93.68 4.02 -93 3 C-92.82984375 3.59167969 -92.6596875 4.18335938 -92.484375 4.79296875 C-89.83047263 13.44638445 -85.95087412 17.75518014 -78 22 C-68.4282373 25.19058757 -59.17760863 22.60815183 -50.25 18.8125 C-49.17032959 18.37631348 -48.09065918 17.94012695 -46.97827148 17.49072266 C-44.61272887 16.53477622 -42.25079623 15.56985992 -39.89208984 14.59716797 C-33.38634814 11.91698049 -26.83816366 9.34236735 -20.2935791 6.75888062 C-18.08606663 5.88433633 -15.88216427 5.00116933 -13.67871094 4.11645508 C-12.31843143 3.57485154 -10.95808321 3.03342055 -9.59765625 2.4921875 C-8.39633057 2.01120605 -7.19500488 1.53022461 -5.95727539 1.03466797 C-3 0 -3 0 0 0 Z " fill="#FFD3BC" transform="translate(367,350)"/>
<path d="M0 0 C1.22716736 -0.00890762 2.45433472 -0.01781525 3.71868896 -0.0269928 C7.06030578 -0.0445637 10.39966944 -0.03545295 13.74110913 -0.01252341 C17.25140663 0.00650744 20.76163236 -0.00478348 24.2719574 -0.01142883 C30.16374873 -0.01775308 36.05508216 0.00041663 41.94677734 0.03320312 C48.74250885 0.07070954 55.537374 0.06890675 62.3331514 0.04616195 C68.89265422 0.02516047 75.45183912 0.0325154 82.01133537 0.0524807 C84.79311228 0.06043308 87.57461781 0.05851615 90.35638618 0.04845619 C94.24573662 0.03587564 98.13419384 0.06475046 102.0234375 0.09765625 C103.74040077 0.08483109 103.74040077 0.08483109 105.49205017 0.07174683 C112.29867111 0.17094538 117.30389837 1.05807178 122.44702148 5.76049805 C128.2825427 13.35662756 127.65961795 21.29815886 127.69702148 30.44799805 C127.72795898 32.31101562 127.72795898 32.31101562 127.75952148 34.21166992 C127.79254321 42.00067035 127.75780053 49.50041979 122.79858398 55.8815918 C122.22881836 56.31600586 121.65905273 56.75041992 121.07202148 57.19799805 C120.22510742 57.87668945 120.22510742 57.87668945 119.36108398 58.5690918 C115.38354017 61.04490988 111.89827797 62.01038352 107.23002625 62.02792358 C106.19977325 62.03645355 105.16952026 62.04498352 104.10804749 62.05377197 C102.42865334 62.05241241 102.42865334 62.05241241 100.71533203 62.05102539 C99.52776306 62.05774261 98.34019409 62.06445984 97.11663818 62.07138062 C93.86646076 62.08710722 90.61643685 62.09373473 87.36622596 62.09501219 C85.33272511 62.09643626 83.29925084 62.10071072 81.26575661 62.10600662 C74.16315645 62.12449791 67.06063124 62.13267851 59.95800781 62.13110352 C53.35108502 62.12990286 46.7444893 62.15099236 40.13764924 62.18259084 C34.45422771 62.20879826 28.7709127 62.21946893 23.08743125 62.2181927 C19.69788181 62.2176843 16.30862307 62.22329879 12.91913414 62.2445488 C9.13477936 62.2641734 5.3512632 62.2583833 1.56689453 62.24633789 C0.45337112 62.2575769 -0.66015228 62.26881592 -1.80741882 62.28039551 C-8.9302889 62.22286891 -14.65597511 61.29295759 -20.07155323 56.38397789 C-26.28084431 49.52440544 -25.92569306 41.72594527 -25.92358398 32.98486328 C-25.92794562 30.96324622 -25.96428843 28.94383765 -26.00219727 26.92260742 C-26.02438491 19.47865394 -26.02573228 12.94886106 -21.55297852 6.76049805 C-14.97039727 0.57185383 -8.73687515 -0.10488085 0 0 Z " fill="#9CD982" transform="translate(183.552978515625,-0.760498046875)"/>
<path d="M0 0 C1.2890625 -0.01611328 2.578125 -0.03222656 3.90625 -0.04882812 C18.66517869 -0.05640458 18.66517869 -0.05640458 24.90234375 5.25 C25.45019531 5.930625 25.99804688 6.61125 26.5625 7.3125 C27.12839844 7.993125 27.69429687 8.67375 28.27734375 9.375 C30.57563559 12.67921087 30.75382481 15.46525531 30.77217102 19.37164307 C30.77932632 20.4174202 30.78648163 21.46319733 30.79385376 22.54066467 C30.79654266 23.68772385 30.79923157 24.83478302 30.80200195 26.01660156 C30.81185875 27.82918709 30.81185875 27.82918709 30.82191467 29.6783905 C30.8416631 33.68663784 30.85331562 37.69484516 30.86328125 41.703125 C30.86732974 43.08452118 30.87144669 44.46591716 30.87563133 45.84731293 C30.89467898 52.33837302 30.90891039 58.82942177 30.9172433 65.32050443 C30.92701181 72.80570491 30.95332267 80.29060937 30.99374419 87.77570558 C31.02393721 93.56606361 31.03871521 99.35633694 31.04202431 105.14677215 C31.04437137 108.60284679 31.05328612 112.05860505 31.07848549 115.51459503 C31.10616788 119.37343239 31.1019253 123.23188251 31.0949707 127.09082031 C31.10778076 128.22978256 31.12059082 129.36874481 31.13378906 130.54222107 C31.08667974 137.71366676 30.3369465 142.39846607 25.24841785 147.76402664 C17.93908148 154.4029038 9.53080571 153.64806363 0.25 153.625 C-1.0390625 153.64111328 -2.328125 153.65722656 -3.65625 153.67382812 C-11.98701146 153.6781047 -18.59332582 153.50591375 -25.1875 147.9375 C-28.75748941 143.65351271 -30.74779819 140.59007539 -30.76268005 134.93019104 C-30.77258469 133.86339111 -30.78248932 132.79659119 -30.79269409 131.69746399 C-30.78819244 130.53732285 -30.7836908 129.3771817 -30.77905273 128.18188477 C-30.78591599 126.95208893 -30.79277924 125.72229309 -30.79985046 124.45523071 C-30.81500215 121.08934165 -30.81661629 117.72400703 -30.81090808 114.35812497 C-30.80781409 111.54502903 -30.81391102 108.73198305 -30.81994683 105.91889423 C-30.83398599 99.28076664 -30.83243599 92.64276775 -30.82104492 86.00463867 C-30.8095649 79.16363343 -30.82363845 72.32302027 -30.8504414 65.48206669 C-30.87261566 59.60163796 -30.8792319 53.72133216 -30.87336498 47.8408646 C-30.8699982 44.33179295 -30.87239153 40.8229726 -30.88961601 37.31393623 C-30.90799023 33.39997171 -30.89388019 29.48648744 -30.87670898 25.57250977 C-30.88637695 24.41439285 -30.89604492 23.25627594 -30.90600586 22.06306458 C-30.84862302 15.82176239 -30.59390821 12.03668354 -26.375 7.3125 C-18.33244918 -0.3803747 -10.59278034 -0.02632401 0 0 Z " fill="#F9D171" transform="translate(47.375,194.6875)"/>
<path d="M0 0 C1.2890625 -0.01611328 2.578125 -0.03222656 3.90625 -0.04882812 C12.23521289 -0.05310377 18.78597392 0.15596744 25.4375 5.625 C30.92718419 12.36946915 31.05801288 17.97335358 31.01318359 26.37304688 C31.01844055 27.5834816 31.02369751 28.79391632 31.02911377 30.04103088 C31.04003223 33.34902325 31.03750557 36.65645045 31.02797651 39.96441078 C31.02035922 43.43294638 31.02743126 46.90145852 31.03213501 50.36999512 C31.03758656 56.19381016 31.0304168 62.01751092 31.01611328 67.84130859 C30.99978783 74.56583233 31.00507677 81.29008315 31.0215925 88.01460028 C31.03522457 93.79738109 31.03711865 99.58007995 31.02927649 105.36287165 C31.02460939 108.81263353 31.02394845 112.26226731 31.03388596 115.71202087 C31.04419387 119.55877213 31.02989008 123.40521987 31.01318359 127.25195312 C31.01925629 128.38979752 31.02532898 129.52764191 31.03158569 130.69996643 C30.9787642 137.26463989 30.52658488 142.02450551 26.01171875 147.140625 C25.45097656 147.60984375 24.89023437 148.0790625 24.3125 148.5625 C23.75949219 149.04203125 23.20648438 149.5215625 22.63671875 150.015625 C15.80729292 154.41828398 8.04576728 153.64437318 0.25 153.625 C-1.0390625 153.64111328 -2.328125 153.65722656 -3.65625 153.67382812 C-18.32611627 153.68135886 -18.32611627 153.68135886 -24.3984375 148.62890625 C-24.84445312 148.05011719 -25.29046875 147.47132813 -25.75 146.875 C-26.21148437 146.29878906 -26.67296875 145.72257813 -27.1484375 145.12890625 C-29.68178293 141.37729598 -30.6255974 138.69707383 -30.64242554 134.13310242 C-30.65522049 132.56237473 -30.65522049 132.56237473 -30.66827393 130.95991516 C-30.66736755 129.81645126 -30.66646118 128.67298737 -30.66552734 127.49487305 C-30.67224457 126.28633667 -30.67896179 125.07780029 -30.68588257 123.8326416 C-30.70162709 120.52045375 -30.70823773 117.20851666 -30.70951414 113.89630866 C-30.71093687 111.82513149 -30.71520882 109.75398049 -30.72050858 107.68280983 C-30.73900836 100.45169027 -30.74717944 93.22064439 -30.74560547 85.98950195 C-30.74440474 79.25818251 -30.76549347 72.52718407 -30.7970928 65.79594582 C-30.82328353 60.00980111 -30.83397157 54.22376103 -30.83269465 48.43755752 C-30.83218574 44.9848701 -30.83782866 41.53246787 -30.85905075 38.07983971 C-30.88209305 34.22587032 -30.87289507 30.37233752 -30.86083984 26.51831055 C-30.87207886 25.38091934 -30.88331787 24.24352814 -30.89489746 23.07167053 C-30.83797395 15.90880656 -30.08064942 11.22023687 -24.99847984 5.86091137 C-17.68878826 -0.77771138 -9.28101844 -0.02306416 0 0 Z " fill="#02C5FC" transform="translate(464.375,163.6875)"/>
<path d="M0 0 C1.03880814 -0.00571014 2.07761627 -0.01142029 3.14790344 -0.01730347 C4.28718292 -0.01842133 5.4264624 -0.01953918 6.6002655 -0.02069092 C7.80050858 -0.02565582 9.00075165 -0.03062073 10.23736572 -0.03573608 C13.5308906 -0.04784521 16.82435197 -0.05530305 20.11789155 -0.05974674 C22.17648419 -0.06267935 24.23507128 -0.06678453 26.29366112 -0.07125092 C32.73720232 -0.0849235 39.18073082 -0.09459115 45.62428552 -0.09845281 C53.05737211 -0.1029322 60.49027469 -0.12047541 67.92330533 -0.1494534 C73.6720358 -0.1710855 79.42071455 -0.18115791 85.16948527 -0.18249393 C88.60143306 -0.18354093 92.03320782 -0.18942611 95.46511269 -0.20731354 C99.29546203 -0.22435025 103.12536249 -0.22249923 106.95573425 -0.21600342 C108.08894104 -0.2252182 109.22214783 -0.23443298 110.38969421 -0.243927 C117.59384299 -0.20561683 122.05990783 0.63460928 127.65959167 5.45294189 C133.71790872 12.49368873 133.46897547 19.43172242 133.4181366 28.25274658 C133.40963977 30.50270529 133.43840055 32.75010922 133.47013855 34.99981689 C133.54661546 50.40098221 133.54661546 50.40098221 127.48918152 56.67681885 C123.38448651 60.31775311 120.21828259 61.2635592 114.86825562 61.28088379 C113.28480095 61.28944901 113.28480095 61.28944901 111.6693573 61.29818726 C110.51137634 61.29930511 109.35339539 61.30042297 108.1603241 61.30157471 C106.33069878 61.30902206 106.33069878 61.30902206 104.46411133 61.31661987 C101.11686942 61.32872957 97.76969 61.33618699 94.42243361 61.34063053 C92.33033908 61.343563 90.23825 61.34766815 88.14615822 61.3521347 C81.59796556 61.36580747 75.04978541 61.37547504 68.50157946 61.3793366 C60.94737307 61.38381609 53.39334773 61.4013597 45.83919638 61.43033719 C39.99704849 61.45196809 34.15495149 61.46204163 28.31276399 61.46337771 C24.824926 61.4644248 21.33725827 61.47031174 17.84946251 61.48819733 C13.95693014 61.50777017 10.06462323 61.5033834 6.17204285 61.49688721 C4.44418045 61.51070938 4.44418045 61.51070938 2.68141174 61.52481079 C-3.94668395 61.49012136 -8.80831853 61.11029412 -13.89118958 56.42169189 C-14.36943176 55.83387939 -14.84767395 55.24606689 -15.34040833 54.64044189 C-15.83154114 54.05262939 -16.32267395 53.46481689 -16.82868958 52.85919189 C-20.53429441 47.54822731 -19.33151138 39.6434349 -19.37800598 33.39996338 C-19.39451793 31.77742115 -19.42174521 30.15495024 -19.46003723 28.53277588 C-19.84129331 12.27634828 -19.84129331 12.27634828 -15.41365051 6.5022583 C-10.75937725 1.92834423 -6.41769483 0.02112105 0 0 Z " fill="#FD7A6E" transform="translate(222.0279083251953,450.85955810546875)"/>
<path d="M0 0 C0.00879936 1.54855934 0.00879936 1.54855934 0.01777649 3.12840271 C0.07512012 12.88255376 0.14794225 22.63648437 0.23571491 32.39041042 C0.28034219 37.40438145 0.31961506 42.41827265 0.34643555 47.43237305 C0.37254488 52.27602084 0.41300095 57.11936018 0.46318626 61.96281624 C0.4798035 63.80582896 0.49134968 65.64889498 0.49761391 67.49197197 C0.50731125 70.08408417 0.53543653 72.67541636 0.56762695 75.26733398 C0.56547432 76.39699081 0.56547432 76.39699081 0.5632782 77.54946899 C0.67351353 83.87232863 1.8387117 90.22791283 5.796875 95.3046875 C6.44140625 95.82289063 7.0859375 96.34109375 7.75 96.875 C8.45253906 97.44347656 9.15507812 98.01195312 9.87890625 98.59765625 C12.14491785 100.21766806 12.14491785 100.21766806 15.6875 101.3125 C19.49542279 103.2523852 19.73348214 104.04765358 21.375 107.8125 C23.90118612 113.57220436 27.47327757 116.19524011 33 119 C35.9195043 119.9731681 38.05444951 120.1929546 41.10546875 120.31640625 C42.08837891 120.35830078 43.07128906 120.40019531 44.08398438 120.44335938 C45.10814453 120.48267578 46.13230469 120.52199219 47.1875 120.5625 C48.22326172 120.60568359 49.25902344 120.64886719 50.32617188 120.69335938 C52.8839819 120.79944366 55.44188845 120.90150146 58 121 C57.22914063 121.60972656 56.45828125 122.21945312 55.6640625 122.84765625 C50.49079105 127.0272348 45.54111169 131.19271862 44.56640625 138.05078125 C44.55833064 144.79391271 44.57945253 150.61207511 49 156 C54.91588287 161.42785229 59.50648863 163.14129168 67.50073242 163.20532227 C68.26194901 163.21522186 69.02316559 163.22512146 69.80744934 163.23532104 C72.32342418 163.26690729 74.83941789 163.29168209 77.35546875 163.31640625 C79.09996532 163.33697826 80.84445693 163.3579748 82.58894348 163.37937927 C87.18053167 163.43457442 91.77216465 163.48399499 96.36383057 163.53222656 C101.04923489 163.58246024 105.73457417 163.63813657 110.41992188 163.69335938 C119.61322568 163.80090968 128.80658596 163.90236162 138 164 C137.58341629 164.4773056 137.16683258 164.95461121 136.73762512 165.44638062 C136.19361557 166.07428497 135.64960602 166.70218933 135.08911133 167.34912109 C134.27861076 168.281642 134.27861076 168.281642 133.45173645 169.23300171 C128.15441558 175.68069883 127.56794596 183.15066623 127.6640625 191.21484375 C127 194 127 194 124.421875 195.8671875 C120.60580206 197.13049932 117.63409582 197.30096498 113.625 197.1875 C112.37976563 197.16042969 111.13453125 197.13335937 109.8515625 197.10546875 C108.91054687 197.07066406 107.96953125 197.03585937 107 197 C106.01612321 192.94150823 105.96075677 189.16468745 106 185 C105.45257645 185.00888245 104.90515289 185.01776489 104.34114075 185.0269165 C98.58113172 185.11624267 92.8213232 185.17608286 87.06079102 185.21972656 C84.91845695 185.2396927 82.77617632 185.26687538 80.6340332 185.30175781 C62.64725358 185.58706246 48.57376123 184.77908396 34.78125 171.93359375 C26.83283369 163.64410734 22.81164062 154.14070393 22.9375 142.6875 C22.94652344 141.61886719 22.95554688 140.55023438 22.96484375 139.44921875 C22.97644531 138.64097656 22.98804688 137.83273437 23 137 C22.21625 136.938125 21.4325 136.87625 20.625 136.8125 C8.24765266 134.03826698 -2.66402551 125.11497908 -10 115 C-18.21052488 101.09640576 -20.51647983 88.16094356 -20.71484375 72.1796875 C-20.72707033 71.34046879 -20.73929691 70.50125008 -20.751894 69.63660049 C-20.81403233 65.20420928 -20.85714464 60.77208532 -20.88549805 56.33935547 C-20.91882721 51.78396181 -21.02227344 47.23291136 -21.14101315 42.67905998 C-21.21965809 39.15121682 -21.24458219 35.62441044 -21.25534248 32.09576797 C-21.26987689 30.41708742 -21.30454445 28.73844673 -21.36045647 27.06063461 C-21.76695926 14.0678989 -21.76695926 14.0678989 -17.45291138 9.019104 C-14.3921633 6.66493725 -11.42366783 4.7783886 -8 3 C-6.9214122 2.4309494 -5.8428244 1.8618988 -4.73155212 1.27560425 C-2 0 -2 0 0 0 Z " fill="#C8866A" transform="translate(146,162)"/>
<path d="M0 0 C0.99559433 -0.00014603 1.99118866 -0.00029205 3.01695251 -0.0004425 C6.30128167 0.00025307 9.58555382 0.00802887 12.86987305 0.01586914 C15.14959177 0.01773458 17.42931089 0.01915789 19.70903015 0.02015686 C25.70461131 0.0239721 31.70016818 0.03379393 37.69573975 0.04486084 C43.8156298 0.05509629 49.93552378 0.05965906 56.05541992 0.06469727 C68.05998787 0.07541707 80.06453781 0.0924816 92.0690918 0.11352539 C93.2412367 3.06971758 94.40586655 6.02881328 95.5690918 8.98852539 C95.90295898 9.8302832 96.23682617 10.67204102 96.58081055 11.53930664 C97.05454102 12.74780273 97.05454102 12.74780273 97.5378418 13.98071289 C97.83110352 14.72434082 98.12436523 15.46796875 98.42651367 16.23413086 C99.0690918 18.11352539 99.0690918 18.11352539 99.0690918 20.11352539 C97.75888062 20.11717102 96.44866943 20.12081665 95.09875488 20.12457275 C82.73953651 20.16154508 70.38056678 20.21934266 58.02153778 20.29742813 C51.6679126 20.33690435 45.31442605 20.36909236 38.96069336 20.38452148 C32.8267461 20.39968674 26.69317996 20.43413095 20.55940247 20.48183441 C18.2215354 20.49664937 15.88361393 20.50456647 13.54570007 20.50540924 C10.26597662 20.50778018 6.9873053 20.53487206 3.70776367 20.56762695 C2.7453476 20.56259659 1.78293152 20.55756622 0.79135132 20.55238342 C-6.79000228 20.66920502 -11.95027738 22.59654825 -17.7434082 27.48852539 C-22.44130265 33.12599873 -23.6215303 37.73799402 -23.39575195 45.00805664 C-22.60394791 50.29783996 -20.57883383 54.21622984 -16.9309082 58.11352539 C-13.73749671 60.21870588 -10.50713842 61.77067215 -6.9309082 63.11352539 C-6.9309082 63.44352539 -6.9309082 63.77352539 -6.9309082 64.11352539 C-8.16655518 64.12287109 -9.40220215 64.1322168 -10.67529297 64.1418457 C-15.28079643 64.18186275 -19.8856401 64.24765414 -24.49072266 64.32104492 C-26.47989394 64.34918671 -28.46917563 64.3704349 -30.45849609 64.38452148 C-33.3261744 64.40604521 -36.19253469 64.45274351 -39.05981445 64.50415039 C-39.94238419 64.50537903 -40.82495392 64.50660767 -41.73426819 64.50787354 C-47.65411297 64.64678257 -50.99011284 65.85606533 -55.9309082 69.11352539 C-56.9209082 69.44352539 -57.9109082 69.77352539 -58.9309082 70.11352539 C-60.05606905 71.94636982 -60.05606905 71.94636982 -60.9309082 74.11352539 C-61.26993164 74.66911133 -61.60895508 75.22469727 -61.95825195 75.79711914 C-64.20830706 81.15568412 -63.59959485 87.44162971 -62.9309082 93.11352539 C-60.5117802 99.00125604 -55.90260184 102.20219651 -50.4699707 105.20336914 C-49.96208008 105.5037207 -49.45418945 105.80407227 -48.9309082 106.11352539 C-48.9309082 106.44352539 -48.9309082 106.77352539 -48.9309082 107.11352539 C-49.61080811 107.11763428 -50.29070801 107.12174316 -50.99121094 107.12597656 C-54.11778397 107.15918428 -57.24247788 107.2298571 -60.3684082 107.30102539 C-61.43768555 107.30682617 -62.50696289 107.31262695 -63.60864258 107.31860352 C-72.13214309 107.55319527 -78.39529962 109.39660355 -84.3684082 115.67602539 C-87.05198425 119.86240403 -88.19768799 122.84844237 -88.5559082 127.86352539 C-88.63067383 128.84836914 -88.70543945 129.83321289 -88.7824707 130.84790039 C-88.83145508 131.59555664 -88.88043945 132.34321289 -88.9309082 133.11352539 C-95.69418631 131.50322108 -101.02714367 129.08041937 -104.9309082 123.11352539 C-107.42966673 117.15706501 -108.36344343 111.80176488 -108.27148438 105.38085938 C-108.27192245 104.56024521 -108.27236053 103.73963104 -108.27281189 102.89414978 C-108.27074288 100.21572006 -108.24750243 97.53793778 -108.22387695 94.85961914 C-108.21827426 92.989185 -108.21400735 91.11874642 -108.21101379 89.24830627 C-108.19961801 84.3508567 -108.17019671 79.45367857 -108.13690186 74.55633545 C-108.10608684 69.54874339 -108.09248413 64.54110702 -108.07739258 59.53344727 C-108.04532152 49.72668808 -107.99418958 39.9201294 -107.9309082 30.11352539 C-107.6009082 30.11352539 -107.2709082 30.11352539 -106.9309082 30.11352539 C-106.6009082 56.51352539 -106.2709082 82.91352539 -105.9309082 110.11352539 C-102.9609082 105.65852539 -102.9609082 105.65852539 -99.9309082 101.11352539 C-97.5871582 98.55493164 -97.5871582 98.55493164 -95.4309082 96.67602539 C-94.7193457 96.03793945 -94.0077832 95.39985352 -93.2746582 94.74243164 C-90.59741471 92.88174742 -88.05242878 92.00602912 -84.9309082 91.11352539 C-84.97731445 90.23051758 -85.0237207 89.34750977 -85.0715332 88.43774414 C-85.47808873 74.91977284 -82.0690512 65.22682306 -72.9309082 55.11352539 C-64.62062539 47.90057461 -55.877425 43.80854233 -44.9309082 43.11352539 C-45.0855957 41.53571289 -45.0855957 41.53571289 -45.2434082 39.92602539 C-45.2584325 31.49739754 -41.02955318 22.69242213 -35.9309082 16.11352539 C-35.3946582 15.30915039 -34.8584082 14.50477539 -34.3059082 13.67602539 C-24.67597242 3.28583152 -13.69283895 -0.05260696 0 0 Z " fill="#FEBD86" transform="translate(253.930908203125,131.886474609375)"/>
<path d="M0 0 C6.05493724 1.54893743 9.16900495 4.26742275 12.62026978 9.41809082 C14.62919461 14.63344827 14.41776731 19.51742657 14.38818359 25.06054688 C14.39344055 26.2709816 14.39869751 27.48141632 14.40411377 28.72853088 C14.41503223 32.03652325 14.41250557 35.34395045 14.40297651 38.65191078 C14.39535922 42.12044638 14.40243126 45.58895852 14.40713501 49.05749512 C14.41258656 54.88131016 14.4054168 60.70501092 14.39111328 66.52880859 C14.37478783 73.25333233 14.38007677 79.97758315 14.3965925 86.70210028 C14.41022457 92.48488109 14.41211865 98.26757995 14.40427649 104.05037165 C14.39960939 107.50013353 14.39894845 110.94976731 14.40888596 114.39952087 C14.41919387 118.24627213 14.40489008 122.09271987 14.38818359 125.93945312 C14.39425629 127.07729752 14.40032898 128.21514191 14.40658569 129.38746643 C14.35357741 135.97535476 13.91431693 140.77464228 9.31640625 145.86328125 C8.73761719 146.34152344 8.15882813 146.81976563 7.5625 147.3125 C6.98628906 147.80363281 6.41007812 148.29476562 5.81640625 148.80078125 C3.87606157 150.08182602 2.27193829 150.57557197 0 151 C-20.23363582 121.41830143 -27.86071671 85.01116973 -21.86865234 49.59082031 C-18.42354744 32.3823339 -11.5480357 13.45529047 0 0 Z " fill="#59D5FE" transform="translate(481,165)"/>
<path d="M0 0 C0 7.26 0 14.52 0 22 C-5.54566036 24.16981693 -11.09158984 26.3389212 -16.63818359 28.50634766 C-18.51756974 29.24097889 -20.39680635 29.97599281 -22.27587891 30.71142578 C-28.51288671 33.15228361 -34.75448108 35.58100772 -41 38 C-41.7940625 38.30885132 -42.588125 38.61770264 -43.40625 38.93591309 C-45.59142025 39.78380467 -47.77946473 40.62373824 -49.96875 41.4609375 C-51.19013672 41.93063965 -52.41152344 42.4003418 -53.66992188 42.88427734 C-63.8678163 46.30102056 -74.12924152 46.13872996 -84.1875 42.5 C-85.12988525 42.17213501 -85.12988525 42.17213501 -86.09130859 41.83764648 C-89.17434681 40.62363544 -91.50162833 39.53148602 -93.79972839 37.08068848 C-99.3507538 31.30172985 -104.34985004 30.23330155 -112.03955078 30 C-116.09309057 29.93120466 -120.14159506 29.96036156 -124.1953125 30 C-126.35579892 29.99247388 -128.5162757 29.98143324 -130.67672729 29.96704102 C-136.33559873 29.93870983 -141.99333325 29.95783024 -147.65216064 29.98712158 C-153.43745194 30.00857532 -159.22254186 29.9847558 -165.0078125 29.96484375 C-176.33879762 29.93246743 -187.66909841 29.95026237 -199 30 C-199.64122505 28.72751677 -200.28130236 27.45445513 -200.92089844 26.18115234 C-201.27746521 25.47227875 -201.63403198 24.76340515 -202.00140381 24.03305054 C-203.19487267 21.60325707 -204.25020167 19.14036564 -205.25 16.625 C-205.58515625 15.79226563 -205.9203125 14.95953125 -206.265625 14.1015625 C-207 12 -207 12 -207 10 C-205.71484497 9.99413376 -204.42968994 9.98826752 -203.10559082 9.98222351 C-190.98185651 9.92495872 -178.85830092 9.85217713 -166.73474884 9.76428509 C-160.50221556 9.71959762 -154.2697474 9.68033766 -148.03710938 9.65356445 C-142.0199197 9.62751567 -136.00298086 9.58710146 -129.98594666 9.53681374 C-127.69273503 9.5201558 -125.39948004 9.50863486 -123.10621643 9.50238609 C-119.88890416 9.49273363 -116.67223207 9.46465944 -113.45507812 9.43237305 C-112.03950623 9.43452568 -112.03950623 9.43452568 -110.59533691 9.4367218 C-104.74315971 9.35391174 -100.30744826 8.5385994 -95 6 C-94.34 5.01 -93.68 4.02 -93 3 C-92.82984375 3.59167969 -92.6596875 4.18335938 -92.484375 4.79296875 C-89.83047263 13.44638445 -85.95087412 17.75518014 -78 22 C-68.4282373 25.19058757 -59.17760863 22.60815183 -50.25 18.8125 C-49.17032959 18.37631348 -48.09065918 17.94012695 -46.97827148 17.49072266 C-44.61272887 16.53477622 -42.25079623 15.56985992 -39.89208984 14.59716797 C-33.38634814 11.91698049 -26.83816366 9.34236735 -20.2935791 6.75888062 C-18.08606663 5.88433633 -15.88216427 5.00116933 -13.67871094 4.11645508 C-12.31843143 3.57485154 -10.95808321 3.03342055 -9.59765625 2.4921875 C-8.39633057 2.01120605 -7.19500488 1.53022461 -5.95727539 1.03466797 C-3 0 -3 0 0 0 Z " fill="#FEBF9D" transform="translate(367,350)"/>
<path d="M0 0 C5.25803515 2.70413236 9.09608181 6.28824543 11 12 C11.09821157 13.68423337 11.13924773 15.37206726 11.14717102 17.05914307 C11.15432632 18.1049202 11.16148163 19.15069733 11.16885376 20.22816467 C11.17154266 21.37522385 11.17423157 22.52228302 11.17700195 23.70410156 C11.18685875 25.51668709 11.18685875 25.51668709 11.19691467 27.3658905 C11.2166631 31.37413784 11.22831562 35.38234516 11.23828125 39.390625 C11.24232974 40.77202118 11.24644669 42.15341716 11.25063133 43.53481293 C11.26967898 50.02587302 11.28391039 56.51692177 11.2922433 63.00800443 C11.30201181 70.49320491 11.32832267 77.97810937 11.36874419 85.46320558 C11.39893721 91.25356361 11.41371521 97.04383694 11.41702431 102.83427215 C11.41937137 106.29034679 11.42828612 109.74610505 11.45348549 113.20209503 C11.48116788 117.06093239 11.4769253 120.91938251 11.4699707 124.77832031 C11.48278076 125.91728256 11.49559082 127.05624481 11.50878906 128.22972107 C11.45636909 136.20960685 10.00117061 140.24853674 5 146.5 C3 148 3 148 1.14453125 148.0234375 C-2.26901667 146.39438549 -3.57915361 143.3319373 -5.3125 140.125 C-5.70203857 139.414646 -6.09157715 138.70429199 -6.49291992 137.97241211 C-22.9958618 106.89237749 -27.24315122 69.32058449 -17.26855469 35.52148438 C-13.26665997 22.76575956 -7.41071765 11.11607647 0 0 Z " fill="#F8EC7F" transform="translate(67,197)"/>
<path d="M0 0 C0.98608749 0.00848969 1.97217499 0.01697937 2.98814392 0.02572632 C6.10653662 0.05904337 9.2222462 0.13428119 12.33984375 0.2109375 C14.46675926 0.24106516 16.59371572 0.26843602 18.72070312 0.29296875 C23.90726789 0.35876354 29.09185257 0.4621333 34.27734375 0.5859375 C33.7887085 1.53275391 33.30007324 2.47957031 32.79663086 3.45507812 C32.15320066 4.717304 31.51006864 5.9796819 30.8671875 7.2421875 C30.38445374 8.17466309 30.38445374 8.17466309 29.89196777 9.12597656 C27.11889856 14.59673058 25.74775237 19.50422611 25.27734375 25.5859375 C25.138125 27.20242187 25.138125 27.20242187 24.99609375 28.8515625 C24.46966248 40.59097984 28.01373336 50.19874021 33.27734375 60.5859375 C27.44308761 60.82890416 21.60870571 61.04362135 15.77246094 61.23291016 C13.78976134 61.30111192 11.8073054 61.37685046 9.82519531 61.46044922 C6.96581259 61.5797099 4.10663207 61.67128688 1.24609375 61.7578125 C-0.07001892 61.82159088 -0.07001892 61.82159088 -1.41271973 61.88665771 C-7.99368753 62.04582634 -13.26854506 60.70247967 -18.24963379 56.20819092 C-24.44113749 49.33126538 -24.09537256 41.55870106 -24.09326172 32.81030273 C-24.09762335 30.78868568 -24.13396616 28.7692771 -24.171875 26.74804688 C-24.19403 19.31504576 -24.205495 12.76007171 -19.72265625 6.5859375 C-13.55305081 0.96785034 -8.14974768 -0.26909854 0 0 Z " fill="#55D47B" transform="translate(181.72265625,-0.5859375)"/>
<path d="M0 0 C0.77261673 0.02361099 1.54523346 0.04722198 2.34126282 0.07154846 C4.80712765 0.14807546 7.27266971 0.23214672 9.73828125 0.31640625 C11.41079154 0.36963793 13.08331754 0.42237826 14.75585938 0.47460938 C18.85437077 0.60367572 22.95260877 0.73950833 27.05078125 0.87890625 C26.73761963 1.81605469 26.42445801 2.75320313 26.10180664 3.71875 C25.19975329 6.4309866 24.32482763 9.14589608 23.48828125 11.87890625 C23.23949219 12.68328125 22.99070313 13.48765625 22.734375 14.31640625 C19.07936805 28.01746088 20.75322633 41.14285937 27.49609375 53.53515625 C28.64169312 55.34193011 29.84024461 57.11498144 31.05078125 58.87890625 C31.05078125 59.53890625 31.05078125 60.19890625 31.05078125 60.87890625 C25.46405931 60.95326876 19.87762786 61.00760879 14.29052734 61.04370117 C12.39138772 61.05875316 10.49228266 61.07919941 8.59326172 61.10522461 C5.85766044 61.14176617 3.12252025 61.15866863 0.38671875 61.171875 C-0.45726471 61.18735886 -1.30124817 61.20284271 -2.17080688 61.21879578 C-8.04262309 61.22045813 -12.34059707 60.28518201 -16.8125 56.16015625 C-17.29074219 55.57234375 -17.76898438 54.98453125 -18.26171875 54.37890625 C-18.75285156 53.79109375 -19.24398437 53.20328125 -19.75 52.59765625 C-23.45560484 47.28669166 -22.2528218 39.38189925 -22.29931641 33.13842773 C-22.31582836 31.51588551 -22.34305564 29.89341459 -22.38134766 28.27124023 C-22.76260373 12.01481263 -22.76260373 12.01481263 -18.33496094 6.24072266 C-12.6209449 0.62536299 -7.66839744 -0.27638456 0 0 Z " fill="#F85647" transform="translate(224.94921875,451.12109375)"/>
<path d="M0 0 C0.99 0.495 0.99 0.495 2 1 C3.67620194 1.09422414 5.35615551 1.12464779 7.03500366 1.12457275 C8.10056992 1.12713577 9.16613617 1.12969879 10.26399231 1.13233948 C11.43806137 1.13023972 12.61213043 1.12813995 13.82177734 1.12597656 C15.67063286 1.12877876 15.67063286 1.12877876 17.55683899 1.13163757 C20.24093615 1.13564949 22.92498588 1.13799073 25.60908127 1.13809967 C29.8530033 1.13923877 34.09683809 1.15206782 38.34072876 1.16766357 C39.05659476 1.17023643 39.77246075 1.17280928 40.51001966 1.1754601 C41.97399019 1.18072675 43.43796065 1.18601223 44.90193105 1.19131613 C54.78391802 1.22644487 64.66579698 1.25297683 74.54785156 1.25048828 C81.21129886 1.24890045 87.87444929 1.2649171 94.53780138 1.30119491 C98.06479619 1.31966992 101.59129526 1.32898502 105.11832809 1.31671906 C109.05230662 1.30317066 112.98552188 1.32819221 116.91943359 1.35644531 C118.08945419 1.34624863 119.25947479 1.33605194 120.46495056 1.32554626 C128.32905089 1.42716759 128.32905089 1.42716759 131.75112915 4.34881592 C133 7 133 7 133.0625 10.0625 C131.69935641 13.83119109 130.38892278 14.8745379 127 17 C124.10835576 17.40067171 121.59289726 17.57474365 118.70336914 17.56176758 C117.87966324 17.57371155 117.05595734 17.58565552 116.20729065 17.59796143 C113.48307046 17.63254279 110.75957803 17.63886237 108.03515625 17.64453125 C106.12200971 17.66208181 104.20887702 17.68120728 102.29576111 17.701828 C98.27504141 17.74117378 94.25452093 17.76765659 90.23364258 17.78393555 C85.14523501 17.80465325 80.05733881 17.84705367 74.96915531 17.89822865 C70.05371299 17.94659817 65.13820055 17.98332219 60.22265625 18.01953125 C59.31443682 18.02720835 58.40621738 18.03488544 57.47047615 18.04279518 C47.32151579 18.12067302 37.19107322 18.01988565 27.04858398 17.62768555 C25.67293447 17.58232399 25.67293447 17.58232399 24.26949406 17.53604603 C16.49633764 17.18983527 10.63065458 15.80426176 5.12109375 10.03125 C2.52135219 6.79816072 0.81266652 4.09985692 0 0 Z " fill="#FECABD" transform="translate(165,266)"/>
<path d="M0 0 C13.34337018 0.01486337 26.68636425 0.05640562 40.02953625 0.13209057 C46.22522519 0.16639359 52.42066667 0.19147577 58.61645508 0.19555664 C64.59483665 0.19983237 70.57265969 0.22823577 76.55086708 0.27343178 C78.83260153 0.28642984 81.11440274 0.29070634 83.39616966 0.28615379 C86.59049299 0.28126446 89.78317341 0.30726808 92.97729492 0.34057617 C93.92244461 0.33195053 94.8675943 0.32332489 95.84138489 0.31443787 C100.36431669 0.39359269 102.39310682 0.55012316 106.12251282 3.31465149 C108 6 108 6 108.0625 9.625 C106.86636946 13.42447347 106.40871701 14.13284951 103 16 C100.41918299 16.30335716 98.07549617 16.43762478 95.49462891 16.43237305 C94.7424408 16.4425647 93.99025269 16.45275635 93.215271 16.46325684 C90.71895935 16.49350853 88.22303405 16.50269317 85.7265625 16.51171875 C83.96567568 16.52860531 82.20480062 16.54676074 80.44393921 16.56611633 C75.7833029 16.61374597 71.12271362 16.64340504 66.46191406 16.66955566 C61.83778358 16.69880468 57.21384117 16.74586862 52.58984375 16.79101562 C32.06002635 16.98274613 11.5306333 17.04900812 -9 17 C-9 16.67 -9 16.34 -9 16 C-1.74 15.67 5.52 15.34 13 15 C11.02 13.68 9.04 12.36 7 11 C5.13671875 9.21875 5.13671875 9.21875 3.6875 7.5 C3.19636719 6.9328125 2.70523438 6.365625 2.19921875 5.78125 C0.89773398 3.84809998 0.50729831 2.25414113 0 0 Z " fill="#FFCBBE" transform="translate(190,223)"/>
<path d="M0 0 C9.17079003 -0.11592091 18.34132735 -0.20472845 27.51269054 -0.25906086 C31.77150055 -0.28513973 36.02980883 -0.32050551 40.28833008 -0.37719727 C44.3991672 -0.43157963 48.50952218 -0.46143341 52.6206913 -0.47438622 C54.1880178 -0.48361508 55.75531832 -0.50163749 57.32243919 -0.52865028 C59.52046808 -0.56502658 61.71651279 -0.56994225 63.91479492 -0.56762695 C65.16499924 -0.57873001 66.41520355 -0.58983307 67.70329285 -0.60127258 C71.90196685 0.16450595 73.37029847 1.71227491 76 5 C76.625 7.5 76.625 7.5 76 10 C74.3396683 12.44092691 73.48791619 13.55423257 71 15 C66.94930836 15.76065859 62.94365502 15.700379 58.83203125 15.6640625 C57.64204025 15.66884613 56.45204926 15.67362976 55.22599792 15.67855835 C52.70851317 15.68195875 50.19098435 15.67274676 47.67358398 15.65185547 C43.84321949 15.62521367 40.01581739 15.65154128 36.18554688 15.68359375 C33.73436858 15.68028737 31.28319212 15.67387644 28.83203125 15.6640625 C27.69627151 15.67418365 26.56051178 15.68430481 25.39033508 15.69473267 C17.90285814 15.58589346 12.27946707 14.18728915 6 10 C3.7109375 7.578125 3.7109375 7.578125 2.375 5.25 C1.90835938 4.47140625 1.44171875 3.6928125 0.9609375 2.890625 C0 1 0 1 0 0 Z " fill="#FFCBBE" transform="translate(231,181)"/>
<path d="M0 0 C1.99621248 -0.0165432 3.99236612 -0.0438116 5.98828125 -0.08203125 C8.86391993 -0.13683709 11.73816696 -0.1586816 14.61425781 -0.17333984 C15.94889069 -0.2073439 15.94889069 -0.2073439 17.31048584 -0.24203491 C21.80424001 -0.22673827 23.66132498 -0.10842341 27.32617188 2.72265625 C29.25488281 5.35009766 29.25488281 5.35009766 29.75488281 7.91259766 C29.16219897 10.8019314 28.29576317 12.23362914 26.25488281 14.35009766 C23.27606855 15.34303574 21.34001042 15.4712955 18.23266602 15.46362305 C17.21183426 15.46354752 16.1910025 15.46347198 15.13923645 15.46339417 C14.03915756 15.45823288 12.93907867 15.45307159 11.80566406 15.44775391 C10.67791061 15.44633896 9.55015717 15.44492401 8.38822937 15.44346619 C4.78125369 15.43786236 1.17433977 15.42530919 -2.43261719 15.41259766 C-4.87597567 15.40758315 -7.31933512 15.40302016 -9.76269531 15.39892578 C-15.75685706 15.38789169 -21.75098271 15.37114981 -27.74511719 15.35009766 C-26.41861656 11.11347991 -25.21999199 8.30325115 -22.18261719 5.03759766 C-21.56257813 4.36083984 -20.94253906 3.68408203 -20.30371094 2.98681641 C-15.72237311 -1.82416241 -6.42228996 0.03904448 0 0 Z " fill="#FECABD" transform="translate(301.7451171875,325.64990234375)"/>
</svg>
