<?xml version="1.0" encoding="UTF-8"?>
<svg version="1.1" xmlns="http://www.w3.org/2000/svg" width="512" height="512">
<path d="M0 0 C2.43293043 1.10741223 3.89613676 2.42784002 5.79059899 4.31765127 C6.53417635 5.05217199 7.27775371 5.78669271 8.04386371 6.54347163 C8.85388456 7.3588204 9.6639054 8.17416917 10.49847233 9.01422548 C11.36422515 9.87388719 12.22997796 10.7335489 13.12196571 11.61926097 C15.52610803 14.00960998 17.92332314 16.40654455 20.31784153 18.80651176 C22.90071347 21.39204908 25.49215476 23.96897286 28.08247197 26.54704714 C33.15619708 31.59969702 38.22161521 36.66059666 43.28392158 41.72468463 C47.39671064 45.83877998 51.51204186 49.95031528 55.6292001 54.06003809 C56.81390983 55.2426487 57.9986188 56.42526007 59.18332702 57.60787219 C59.77292965 58.19643129 60.36253228 58.7849904 60.97000166 59.39138462 C72.12498423 70.52745724 83.26996515 81.6734986 94.41208567 92.82243796 C104.61556157 103.03149307 114.83218638 113.22727391 125.05498508 123.41697691 C135.54318322 133.87148219 146.02211397 144.33519474 156.49116546 154.80887431 C162.37236052 160.69231812 168.25727528 166.57192628 174.15200055 172.44181681 C179.16880011 177.43766037 184.17688477 182.44203928 189.17372928 187.45784513 C191.72528289 190.0185909 194.28076357 192.5750743 196.84717572 195.12093592 C199.62406704 197.87583532 202.38150143 200.64968366 205.13714421 203.42584658 C205.95831866 204.23450318 206.77949311 205.04315979 207.62555164 205.87632114 C208.35609026 206.6186651 209.08662889 207.36100906 209.83930504 208.12584829 C210.47848439 208.76475526 211.11766374 209.40366222 211.77621216 210.06193 C213.00034916 211.91051149 213.00034916 211.91051149 212.81297433 214.00892156 C211.63044882 216.77609971 209.83221833 218.44666918 207.70406926 220.56755495 C206.31367184 221.96413836 206.31367184 221.96413836 204.89518559 223.38893557 C203.85998431 224.41351967 202.82464014 225.43795942 201.78916752 226.46226931 C200.70464567 227.54594497 199.62078393 228.6302816 198.53753483 229.71522951 C195.59395517 232.65967088 192.64120891 235.59476278 189.68675506 238.52828741 C186.60108506 241.59521999 183.52389299 244.67063455 180.44579899 247.74516726 C174.61527085 253.56636632 168.77713663 259.37987501 162.93624467 265.19067311 C156.28715396 271.80624671 149.64656673 278.43032778 143.00668716 285.05514431 C129.34736143 298.68310146 115.67737058 312.30031499 102.00034916 325.91051149 C97.3358589 322.01405145 92.91752482 317.96610418 88.6412183 313.64903688 C88.04832509 313.0546834 87.45543187 312.46032991 86.84457219 311.84796572 C85.5694617 310.5690774 84.29550666 309.28903618 83.02261364 308.00794077 C81.00177261 305.97421994 78.97772278 303.94374103 76.95284855 301.91403627 C71.92580338 296.87369136 66.90422621 291.82791019 61.88249028 286.78227663 C57.63133457 282.51130758 53.37808096 278.24244832 49.12208188 273.97630548 C47.13932326 271.98711953 45.15962932 269.99491883 43.18005192 268.00256777 C35.11902832 259.89751641 35.11902832 259.89751641 26.59652531 252.28403139 C23.91305045 249.97488392 21.47145207 247.44339198 19.00034916 244.91051149 C20.60102477 240.93524925 23.37178473 238.27030845 26.36802495 235.31578493 C26.91451695 234.76900087 27.46100895 234.22221682 28.02406132 233.65886354 C29.82656009 231.85775501 31.63603312 230.06382902 33.44566166 228.26988649 C34.69877283 227.02050654 35.95144235 225.77068348 37.20368779 224.52043581 C40.49710872 221.23464278 43.79649208 217.95490079 47.09715092 214.67638063 C50.4656391 211.32836897 53.82845676 207.97467242 57.19175541 204.62144899 C63.78908092 198.04555853 70.39271899 191.47604634 77.00034916 184.91051149 C75.6600696 181.92958141 74.18503028 179.84705835 71.87458622 177.54423952 C71.23236119 176.89926516 70.59013615 176.25429079 69.92844975 175.58977175 C69.22498417 174.89349672 68.5215186 174.1972217 67.79673588 173.47984743 C67.05517247 172.73799196 66.31360905 171.99613649 65.54957402 171.23180056 C63.09777246 168.7813921 60.63896312 166.3381435 58.18003666 163.89488649 C56.47852091 162.19710093 54.77744624 160.4988732 53.0767957 158.80022097 C48.5997011 154.33076233 44.11663279 149.86734236 39.63230717 145.4051404 C35.05736447 140.85065682 30.48807869 136.29050582 25.91831791 131.73082399 C16.95119921 122.78515457 7.97795209 113.84565859 -0.99965084 104.91051149 C-6.00585032 109.10580331 -10.70780305 113.47922302 -15.3119067 118.10924196 C-16.35219524 119.14931147 -16.35219524 119.14931147 -17.41349971 120.21039248 C-19.68287924 122.48046321 -21.94870579 124.75404479 -24.21449459 127.02769899 C-25.79610848 128.61117988 -27.37794473 130.19443871 -28.95999324 131.77748537 C-33.10661728 135.92791241 -37.25022835 140.08133469 -41.39320552 144.23540163 C-45.62803305 148.4804911 -49.86572203 152.722722 -54.10316646 156.96519899 C-62.40478739 165.27751811 -70.70322605 173.59300638 -78.99965084 181.91051149 C-77.73402151 184.67846928 -76.44057058 186.71732398 -74.28321731 188.85907412 C-73.72824201 189.41494802 -73.17326672 189.97082191 -72.60147399 190.54354048 C-71.99184772 191.14393046 -71.38222145 191.74432045 -70.75412166 192.36290407 C-69.78269813 193.33159914 -69.78269813 193.33159914 -68.79164988 194.3198638 C-66.61672956 196.48635889 -64.43476133 198.64561588 -62.25282466 200.80504274 C-60.69381285 202.35530681 -59.13527626 203.90604891 -57.57718074 205.45723391 C-54.21968221 208.79823245 -50.85925467 212.13624746 -47.49666965 215.47212648 C-42.18470068 220.74280109 -36.8819114 226.02264482 -31.58087337 231.30431032 C-24.15249463 238.70428772 -16.72241019 246.10254509 -9.28895748 253.49742556 C-8.58148481 254.20123439 -8.58148481 254.20123439 -7.85971978 254.91926157 C-0.20714619 262.53178229 7.45129991 270.13837553 15.11102744 277.74369681 C22.97261098 285.54991717 30.8244618 293.36585198 38.66857141 301.18963194 C43.94085718 306.4472346 49.22406115 311.69353876 54.51541185 316.93195009 C57.79775467 320.18665076 61.06966105 323.45168398 64.33861554 326.71982622 C65.8617427 328.23836565 67.38919811 329.75257734 68.92115605 331.26220751 C71.00432913 333.31622759 73.07173389 335.38489715 75.13577092 337.45811892 C75.75208935 338.0585089 76.36840778 338.65889889 77.00340253 339.27748251 C78.66143906 340.96194887 78.66143906 340.96194887 81.00034916 343.91051149 C80.5549831 347.33889049 79.3187441 348.97093136 76.90786564 351.39740419 C76.24755345 352.06906618 75.58724125 352.74072817 74.9069196 353.43274355 C74.17809071 354.15864183 73.44926182 354.88454012 72.69834721 355.63243532 C71.93409428 356.40515779 71.16984135 357.17788027 70.38242924 357.97401857 C67.85012091 360.52975586 65.30672968 363.074109 62.76206791 365.61754274 C61.0015826 367.38512467 59.24139868 369.15300684 57.48150456 370.92117739 C53.79025872 374.62588067 50.09318832 378.32468142 46.39219487 382.01964235 C42.11115719 386.29403055 37.84511459 390.58298364 33.58597165 394.8791793 C29.48941521 399.01007815 25.37912066 403.12706881 21.26329815 407.23876429 C19.51257823 408.99118293 17.76586327 410.74761182 16.02318203 412.50802469 C13.59065138 414.96257409 11.14291439 417.40086499 8.69053471 419.83556032 C7.96777852 420.57157976 7.24502232 421.3075992 6.50036442 422.06592226 C5.49720692 423.05226656 5.49720692 423.05226656 4.47378361 424.05853701 C3.89619644 424.63683669 3.31860926 425.21513638 2.72351944 425.81096029 C1.00034916 426.91051149 1.00034916 426.91051149 -0.87045836 426.69217968 C-3.4900603 425.73047259 -4.81508187 424.47334225 -6.78990066 422.50337172 C-7.53347802 421.768851 -8.27705538 421.03433028 -9.04316539 420.27755135 C-9.85318623 419.46220258 -10.66320707 418.64685381 -11.497774 417.8067975 C-12.36352682 416.94713579 -13.22927963 416.08747409 -14.12126738 415.20176202 C-16.5254097 412.811413 -18.92262481 410.41447844 -21.3171432 408.01451123 C-23.90001514 405.42897391 -26.49145643 402.85205013 -29.08177364 400.27397585 C-34.15549876 395.22132597 -39.22091688 390.16042632 -44.28322325 385.09633835 C-48.39601232 380.98224301 -52.51134354 376.87070771 -56.62850177 372.7609849 C-57.8132115 371.57837429 -58.99792047 370.39576292 -60.18262869 369.2131508 C-60.77223132 368.6245917 -61.36183395 368.03603259 -61.96930333 367.42963836 C-73.1242859 356.29356574 -84.26926682 345.14752438 -95.41138735 333.99858502 C-105.61486325 323.78952992 -115.83148805 313.59374907 -126.05428676 303.40404608 C-136.5424849 292.94954079 -147.02141564 282.48582825 -157.49046713 272.01214868 C-163.3716622 266.12870487 -169.25657695 260.2490967 -175.15130222 254.37920618 C-180.16810178 249.38336261 -185.17618644 244.37898371 -190.17303095 239.36317786 C-192.72458456 236.80243208 -195.28006525 234.24594869 -197.84647739 231.70008707 C-200.62336871 228.94518767 -203.3808031 226.17133933 -206.13644588 223.39517641 C-206.95762033 222.58651981 -207.77879479 221.7778632 -208.62485331 220.94470185 C-209.35539194 220.20235789 -210.08593056 219.46001393 -210.83860672 218.69517469 C-211.79737574 217.73681425 -211.79737574 217.73681425 -212.77551383 216.75909299 C-213.99965084 214.91051149 -213.99965084 214.91051149 -213.91016233 212.91086066 C-212.8027501 210.47793023 -211.48232231 209.01472389 -209.59251106 207.12026167 C-208.85799034 206.37668431 -208.12346962 205.63310695 -207.3666907 204.86699694 C-206.55134193 204.0569761 -205.73599316 203.24695526 -204.89593685 202.41238832 C-204.03627514 201.54663551 -203.17661343 200.6808827 -202.29090136 199.78889495 C-199.90055235 197.38475263 -197.50361778 194.98753752 -195.10365057 192.59301913 C-192.51811325 190.01014718 -189.94118947 187.4187059 -187.36311519 184.82838869 C-182.31046531 179.75466357 -177.24956567 174.68924545 -172.1854777 169.62693908 C-168.07138235 165.51415001 -163.95984705 161.39881879 -159.85012424 157.28166056 C-158.66751363 156.09695083 -157.48490226 154.91224186 -156.30229014 153.72753364 C-155.71373104 153.13793101 -155.12517193 152.54832838 -154.51877771 151.940859 C-143.38270509 140.78587643 -132.23666373 129.64089551 -121.08772437 118.49877498 C-110.87866926 108.29529908 -100.68288842 98.07867428 -90.49318542 87.85587557 C-80.03868013 77.36767743 -69.57496759 66.88874669 -59.10128802 56.4196952 C-53.21784421 50.53850013 -47.33823605 44.65358537 -41.46834552 38.75886011 C-36.47250196 33.74206055 -31.46812305 28.73397589 -26.4523172 23.73713138 C-23.89157143 21.18557777 -21.33508803 18.63009708 -18.78922641 16.06368494 C-16.03432701 13.28679362 -13.26047867 10.52935923 -10.48431575 7.77371645 C-9.67565915 6.952542 -8.86700254 6.13136754 -8.03384119 5.28530902 C-7.29149723 4.55477039 -6.54915327 3.82423177 -5.78431404 3.07155561 C-4.82595359 2.11278659 -4.82595359 2.11278659 -3.84823233 1.1346485 C-1.99965084 -0.08948851 -1.99965084 -0.08948851 0 0 Z " fill="#CC3333" transform="translate(255.9996508359909,2.0894885063171387)"/>
<path d="M0 0 C2.23904206 0.91762307 3.45059481 1.89222323 5.15580678 3.60120779 C5.75594822 4.19537609 6.35608966 4.78954439 6.97441721 5.40171778 C7.62422705 6.06026615 8.2740369 6.71881452 8.94353795 7.3973189 C9.98997035 8.43990639 9.98997035 8.43990639 11.0575428 9.50355625 C13.40163452 11.8426926 15.73481859 14.19241675 18.06823277 16.5422011 C19.7430341 18.21784831 21.41849564 19.89283585 23.09456944 21.56721026 C27.17706913 25.64893675 31.2526152 29.73751147 35.32518747 33.82914127 C40.06402601 38.58941296 44.81132297 43.34121117 49.55917343 48.09249174 C58.02607993 56.56596532 66.48626424 65.04611777 74.94225621 73.53048235 C83.15684102 81.77260107 91.37456847 90.01156537 99.59655309 98.24630266 C100.10329144 98.75382919 100.6100298 99.26135571 101.13212386 99.78426183 C103.6742818 102.33033487 106.21650177 104.87634596 108.75875258 107.42232627 C129.8516809 128.5463585 150.93360302 149.68134632 172.00866246 170.82320696 C176.93615241 166.69277917 181.56586604 162.39881237 186.08756566 157.83091265 C186.76451051 157.1512944 187.44145536 156.47167614 188.13891369 155.77146339 C190.39045779 153.50991583 192.63836769 151.24479065 194.88634801 148.9797011 C196.50623081 147.35134503 198.12637514 145.7232491 199.74676061 144.09539324 C203.22701484 140.59845913 206.70589066 137.10016146 210.18383908 133.60093409 C215.67964957 128.07247045 221.18144891 122.54999378 226.68464208 117.02888018 C228.09553787 115.61329821 229.50643366 114.19771623 230.91732836 112.78213317 C231.86705734 111.82925283 232.81679126 110.87637742 233.76653006 109.92350687 C239.11594585 104.55639953 244.46465786 99.18859139 249.81261754 93.82003313 C250.54528307 93.08455203 250.54528307 93.08455203 251.29274992 92.33421271 C259.22645715 84.36954452 267.15277643 76.39755818 275.07689216 68.42334879 C283.21762345 60.23159212 291.36800033 52.04953326 299.52656323 43.87553406 C304.10523592 39.28746343 308.67915867 34.69486355 313.2423718 30.0914126 C317.52698429 25.76912283 321.82292666 21.45843779 326.12804723 17.15657717 C327.70947187 15.57216788 329.28657471 13.98343194 330.85910535 12.39019495 C332.99834992 10.22402815 335.15225737 8.07361738 337.31071019 5.92661577 C337.93629046 5.28578918 338.56187072 4.64496259 339.20640796 3.98471701 C340.95915818 2.26026541 340.95915818 2.26026541 344.00866246 -0.17679304 C347.17026448 0.23910176 348.79650472 1.22970673 351.04894567 3.44356829 C351.61245229 3.99116305 352.17595891 4.5387578 352.75654149 5.10294634 C353.35149922 5.69770266 353.94645696 6.29245898 354.55944371 6.90523821 C355.48674542 7.82111964 355.48674542 7.82111964 356.4327805 8.75550371 C357.73512869 10.0470578 359.03353296 11.34259924 360.32824254 12.64181048 C362.31745924 14.63200192 364.32704968 16.59990749 366.33874059 18.56734759 C367.6011067 19.82450869 368.86221878 21.08293055 370.12194371 22.34273821 C371.02956204 23.22576365 371.02956204 23.22576365 371.9555161 24.12662798 C373.61535192 25.81466204 373.61535192 25.81466204 376.00866246 28.82320696 C375.74651312 32.31461705 374.16917002 34.03957812 371.75769639 36.45728308 C371.05800963 37.16602648 370.35832286 37.87476989 369.63743347 38.60499036 C368.47277454 39.76165741 368.47277454 39.76165741 367.28458714 40.94169146 C366.46576096 41.76660875 365.64693477 42.59152604 364.80329567 43.44144082 C362.52698275 45.73154435 360.24403031 48.01478078 357.95809209 50.29526943 C355.49525456 52.75544112 353.04103256 55.22418196 350.58565831 57.69179827 C345.77364177 62.524888 340.953379 67.34967142 336.12992486 72.17134384 C332.2112908 76.08867153 328.29521756 80.00854125 324.38095593 83.93023783 C323.25451516 85.05877773 322.12807361 86.18731687 321.00163132 87.31585526 C320.441024 87.87750611 319.88041668 88.43915696 319.30282126 89.01782753 C308.69609921 99.64345867 298.07941022 110.25908833 287.45982162 120.87185784 C277.73575468 130.59034551 268.0249654 140.32197923 258.32025113 150.0597888 C248.36295144 160.05078217 238.39644512 170.03250577 228.4199701 180.00435281 C222.81598195 185.6060923 217.21583153 191.21154778 211.62539792 196.82681757 C206.86743916 201.60573338 202.10094797 206.37592823 197.32302674 211.13488916 C194.88379429 213.56493012 192.44883085 215.99888806 190.02448392 218.44378763 C187.39888332 221.08739749 184.75853816 223.71531016 182.11368871 226.33964068 C180.95906802 227.51303813 180.95906802 227.51303813 179.78112167 228.71014059 C179.07361167 229.40584525 178.36610166 230.10154992 177.63715196 230.81833655 C177.02862262 231.42713827 176.42009328 232.03593999 175.79312366 232.66319025 C174.00866246 233.82320696 174.00866246 233.82320696 172.00901163 233.71419674 C169.62653421 232.65300049 168.22236468 231.41525681 166.37458634 229.57224089 C165.66584294 228.87255413 164.95709954 228.17286736 164.22687906 227.45197797 C163.07021202 226.28731904 163.07021202 226.28731904 161.89017797 225.09913164 C161.06526068 224.28030546 160.24034339 223.46147927 159.3904286 222.61784017 C157.10032507 220.34152724 154.81708864 218.05857481 152.53659999 215.77263659 C150.07642831 213.30979906 147.60768746 210.85557706 145.14007115 208.40020281 C140.30698142 203.58818627 135.482198 198.7679235 130.66052558 193.94446936 C126.7431979 190.0258353 122.82332818 186.10976206 118.90163159 182.19550043 C117.77309169 181.06905965 116.64455255 179.94261811 115.51601416 178.81617582 C114.95436331 178.2555685 114.39271246 177.69496118 113.81404189 177.11736576 C103.18841076 166.5106437 92.57278109 155.89395472 81.96001158 145.27436612 C72.24152391 135.55029918 62.50989019 125.8395099 52.77208062 116.13479563 C42.78108726 106.17749594 32.79936365 96.21098962 22.82751662 86.23451459 C17.22577712 80.63052645 11.62032164 75.03037603 6.00505185 69.43994242 C1.22613604 64.68198366 -3.54405881 59.91549246 -8.30301974 55.13757124 C-10.7330607 52.69833879 -13.16701864 50.26337535 -15.61191821 47.83902842 C-18.25552806 45.21342782 -20.88344074 42.57308266 -23.50777125 39.92823321 C-24.68116871 38.77361252 -24.68116871 38.77361252 -25.87827116 37.59566617 C-26.57397583 36.88815616 -27.2696805 36.18064616 -27.98646712 35.45169646 C-28.59526884 34.84316712 -29.20407056 34.23463778 -29.83132082 33.60766816 C-30.99133754 31.82320696 -30.99133754 31.82320696 -30.75141233 29.69334733 C-29.89696422 27.59100436 -28.95883797 26.39845606 -27.37097621 24.78292376 C-26.82338145 24.21941714 -26.2757867 23.65591051 -25.71159816 23.07532793 C-25.11684184 22.4803702 -24.52208552 21.88541247 -23.90930629 21.27242571 C-23.29871867 20.65422457 -22.68813106 20.03602343 -22.05904078 19.39908892 C-20.7674867 18.09674073 -19.47194526 16.79833646 -18.17273402 15.50362688 C-16.18254258 13.51441019 -14.21463701 11.50481974 -12.24719691 9.49312884 C-10.99003581 8.23076272 -9.73161395 6.96965065 -8.47180629 5.70992571 C-7.88312266 5.10484682 -7.29443904 4.49976794 -6.68791652 3.87635332 C-2.51833109 -0.22358008 -2.51833109 -0.22358008 0 0 Z " fill="#CC3333" transform="translate(82.9913375377655,276.17679303884506)"/>
</svg>
